%TF.GenerationSoftware,KiCad,Pcbnew,8.0.5*%
%TF.CreationDate,2024-10-22T12:33:32-04:00*%
%TF.ProjectId,PCB_Schematic,5043425f-5363-4686-956d-617469632e6b,rev?*%
%TF.SameCoordinates,Original*%
%TF.FileFunction,Soldermask,Top*%
%TF.FilePolarity,Negative*%
%FSLAX46Y46*%
G04 Gerber Fmt 4.6, Leading zero omitted, Abs format (unit mm)*
G04 Created by KiCad (PCBNEW 8.0.5) date 2024-10-22 12:33:32*
%MOMM*%
%LPD*%
G01*
G04 APERTURE LIST*
G04 Aperture macros list*
%AMRoundRect*
0 Rectangle with rounded corners*
0 $1 Rounding radius*
0 $2 $3 $4 $5 $6 $7 $8 $9 X,Y pos of 4 corners*
0 Add a 4 corners polygon primitive as box body*
4,1,4,$2,$3,$4,$5,$6,$7,$8,$9,$2,$3,0*
0 Add four circle primitives for the rounded corners*
1,1,$1+$1,$2,$3*
1,1,$1+$1,$4,$5*
1,1,$1+$1,$6,$7*
1,1,$1+$1,$8,$9*
0 Add four rect primitives between the rounded corners*
20,1,$1+$1,$2,$3,$4,$5,0*
20,1,$1+$1,$4,$5,$6,$7,0*
20,1,$1+$1,$6,$7,$8,$9,0*
20,1,$1+$1,$8,$9,$2,$3,0*%
G04 Aperture macros list end*
%ADD10RoundRect,0.250000X0.350000X0.450000X-0.350000X0.450000X-0.350000X-0.450000X0.350000X-0.450000X0*%
%ADD11C,1.752600*%
%ADD12RoundRect,0.250000X0.337500X0.475000X-0.337500X0.475000X-0.337500X-0.475000X0.337500X-0.475000X0*%
%ADD13RoundRect,0.250000X-0.337500X-0.475000X0.337500X-0.475000X0.337500X0.475000X-0.337500X0.475000X0*%
%ADD14RoundRect,0.250000X-0.450000X0.350000X-0.450000X-0.350000X0.450000X-0.350000X0.450000X0.350000X0*%
%ADD15RoundRect,0.250000X0.250000X-0.250000X0.250000X0.250000X-0.250000X0.250000X-0.250000X-0.250000X0*%
%ADD16RoundRect,0.325000X0.325000X1.175000X-0.325000X1.175000X-0.325000X-1.175000X0.325000X-1.175000X0*%
%ADD17O,1.200000X2.900000*%
%ADD18RoundRect,0.250000X0.250000X0.250000X-0.250000X0.250000X-0.250000X-0.250000X0.250000X-0.250000X0*%
%ADD19RoundRect,0.150000X0.587500X0.150000X-0.587500X0.150000X-0.587500X-0.150000X0.587500X-0.150000X0*%
%ADD20RoundRect,0.250000X0.450000X-0.325000X0.450000X0.325000X-0.450000X0.325000X-0.450000X-0.325000X0*%
%ADD21RoundRect,0.250000X0.450000X-0.350000X0.450000X0.350000X-0.450000X0.350000X-0.450000X-0.350000X0*%
%ADD22RoundRect,0.225000X0.375000X-0.225000X0.375000X0.225000X-0.375000X0.225000X-0.375000X-0.225000X0*%
%ADD23R,1.168400X0.889000*%
%ADD24R,1.168400X0.482600*%
%ADD25RoundRect,0.250000X-0.475000X0.337500X-0.475000X-0.337500X0.475000X-0.337500X0.475000X0.337500X0*%
%ADD26RoundRect,0.250000X0.325000X0.450000X-0.325000X0.450000X-0.325000X-0.450000X0.325000X-0.450000X0*%
%ADD27R,4.165600X3.251200*%
%ADD28RoundRect,0.250000X-0.325000X-0.450000X0.325000X-0.450000X0.325000X0.450000X-0.325000X0.450000X0*%
%ADD29RoundRect,0.112500X-0.112500X-0.637500X0.112500X-0.637500X0.112500X0.637500X-0.112500X0.637500X0*%
%ADD30RoundRect,0.250000X0.600000X0.600000X-0.600000X0.600000X-0.600000X-0.600000X0.600000X-0.600000X0*%
%ADD31C,1.700000*%
%ADD32RoundRect,0.250000X0.475000X-0.337500X0.475000X0.337500X-0.475000X0.337500X-0.475000X-0.337500X0*%
%ADD33RoundRect,0.250000X-0.350000X-0.450000X0.350000X-0.450000X0.350000X0.450000X-0.350000X0.450000X0*%
%ADD34C,2.200000*%
%ADD35RoundRect,0.102000X-1.075000X-0.475000X1.075000X-0.475000X1.075000X0.475000X-1.075000X0.475000X0*%
%ADD36RoundRect,0.102000X-1.075000X-1.625000X1.075000X-1.625000X1.075000X1.625000X-1.075000X1.625000X0*%
%ADD37RoundRect,0.250000X-0.450000X0.325000X-0.450000X-0.325000X0.450000X-0.325000X0.450000X0.325000X0*%
%ADD38RoundRect,0.102000X1.050000X0.700000X-1.050000X0.700000X-1.050000X-0.700000X1.050000X-0.700000X0*%
%ADD39RoundRect,0.075000X-0.700000X-0.075000X0.700000X-0.075000X0.700000X0.075000X-0.700000X0.075000X0*%
%ADD40RoundRect,0.075000X-0.075000X-0.700000X0.075000X-0.700000X0.075000X0.700000X-0.075000X0.700000X0*%
%ADD41RoundRect,0.150000X0.512500X0.150000X-0.512500X0.150000X-0.512500X-0.150000X0.512500X-0.150000X0*%
%ADD42RoundRect,0.102000X-0.200000X-0.750000X0.200000X-0.750000X0.200000X0.750000X-0.200000X0.750000X0*%
%ADD43R,0.558800X1.981200*%
%ADD44RoundRect,0.102000X-0.570000X-0.735000X0.570000X-0.735000X0.570000X0.735000X-0.570000X0.735000X0*%
G04 APERTURE END LIST*
D10*
%TO.C,R1*%
X160020000Y-45720000D03*
X158020000Y-45720000D03*
%TD*%
D11*
%TO.C,J7*%
X161067597Y-99919200D03*
X161067597Y-97419200D03*
X161067597Y-94919200D03*
X161067597Y-92419200D03*
%TD*%
D12*
%TO.C,R4*%
X129329000Y-116792000D03*
X127254000Y-116792000D03*
%TD*%
D10*
%TO.C,R12*%
X97012000Y-70358000D03*
X95012000Y-70358000D03*
%TD*%
D13*
%TO.C,Ccomp1*%
X99292500Y-55880000D03*
X101367500Y-55880000D03*
%TD*%
D14*
%TO.C,R17*%
X157480000Y-58420000D03*
X157480000Y-60420000D03*
%TD*%
D15*
%TO.C,D12*%
X160020000Y-54590000D03*
X160020000Y-52090000D03*
%TD*%
D16*
%TO.C,J5*%
X150820000Y-45350000D03*
X148320000Y-45350000D03*
X146320000Y-45350000D03*
X143820000Y-45350000D03*
D17*
X153720000Y-41650000D03*
X140920000Y-41650000D03*
%TD*%
D11*
%TO.C,J6*%
X161133000Y-114916000D03*
X161133000Y-112416000D03*
X161133000Y-109916000D03*
X161133000Y-107416000D03*
%TD*%
D18*
%TO.C,D9*%
X121666000Y-50292000D03*
X119166000Y-50292000D03*
%TD*%
D19*
%TO.C,D18*%
X147846500Y-98928000D03*
X147846500Y-97028000D03*
X145971500Y-97978000D03*
%TD*%
D20*
%TO.C,D13*%
X160020000Y-60470000D03*
X160020000Y-58420000D03*
%TD*%
D21*
%TO.C,R15*%
X99787500Y-112874500D03*
X99787500Y-110874500D03*
%TD*%
D22*
%TO.C,D10*%
X110490000Y-52196000D03*
X110490000Y-48896000D03*
%TD*%
D13*
%TO.C,C13*%
X127000000Y-46228000D03*
X129075000Y-46228000D03*
%TD*%
D23*
%TO.C,D14*%
X151881400Y-53336800D03*
D24*
X151881400Y-51640000D03*
X149838600Y-51639999D03*
X149838600Y-53540001D03*
%TD*%
D12*
%TO.C,Css1*%
X100097500Y-44704000D03*
X98022500Y-44704000D03*
%TD*%
D19*
%TO.C,D16*%
X114870500Y-112586500D03*
X114870500Y-110686500D03*
X112995500Y-111636500D03*
%TD*%
D25*
%TO.C,R9*%
X121412000Y-66294000D03*
X121412000Y-68369000D03*
%TD*%
D26*
%TO.C,D22*%
X105174000Y-116078000D03*
X103124000Y-116078000D03*
%TD*%
D21*
%TO.C,R21*%
X100803500Y-108268500D03*
X100803500Y-106268500D03*
%TD*%
D27*
%TO.C,L1*%
X105664000Y-57658000D03*
X110744000Y-57658000D03*
%TD*%
D28*
%TO.C,D3*%
X132071000Y-116428000D03*
X134121000Y-116428000D03*
%TD*%
D10*
%TO.C,R30*%
X156210000Y-117348000D03*
X154210000Y-117348000D03*
%TD*%
D26*
%TO.C,D21*%
X100348000Y-101600000D03*
X98298000Y-101600000D03*
%TD*%
%TO.C,D11*%
X97037000Y-67056000D03*
X94987000Y-67056000D03*
%TD*%
D12*
%TO.C,R6*%
X129329000Y-122792000D03*
X127254000Y-122792000D03*
%TD*%
D29*
%TO.C,U5*%
X112843000Y-97216000D03*
X114143000Y-97216000D03*
X113493000Y-94556000D03*
%TD*%
D30*
%TO.C,J1*%
X161798000Y-81280000D03*
D31*
X159258000Y-81280000D03*
X161798000Y-78740000D03*
X159258000Y-78740000D03*
X161798000Y-76200000D03*
X159258000Y-76200000D03*
X161798000Y-73660000D03*
X159258000Y-73660000D03*
X161798000Y-71120000D03*
X159258000Y-71120000D03*
%TD*%
D32*
%TO.C,C14*%
X118364000Y-92941000D03*
X118364000Y-90866000D03*
%TD*%
D10*
%TO.C,R29*%
X156210000Y-104902000D03*
X154210000Y-104902000D03*
%TD*%
D12*
%TO.C,C12*%
X120396000Y-109728000D03*
X118321000Y-109728000D03*
%TD*%
D33*
%TO.C,Rcomp1*%
X99330000Y-58166000D03*
X101330000Y-58166000D03*
%TD*%
D25*
%TO.C,C16*%
X108809000Y-94422000D03*
X108809000Y-96497000D03*
%TD*%
D11*
%TO.C,J2*%
X113538000Y-123952000D03*
X111038000Y-123952000D03*
X108538000Y-123952000D03*
X106038000Y-123952000D03*
%TD*%
D34*
%TO.C,H1*%
X91613000Y-36156000D03*
%TD*%
D35*
%TO.C,U3*%
X118004000Y-42404000D03*
X118004000Y-44704000D03*
X118004000Y-47004000D03*
D36*
X123804000Y-44704000D03*
%TD*%
D20*
%TO.C,D24*%
X156210000Y-114300000D03*
X156210000Y-112250000D03*
%TD*%
D10*
%TO.C,Rfbb1*%
X96758000Y-53086000D03*
X94758000Y-53086000D03*
%TD*%
D34*
%TO.C,H4*%
X163322000Y-123698000D03*
%TD*%
D11*
%TO.C,J4*%
X93901500Y-104980500D03*
X93901500Y-107480500D03*
X93901500Y-109980500D03*
X93901500Y-112480500D03*
%TD*%
D28*
%TO.C,D4*%
X132071000Y-119428000D03*
X134121000Y-119428000D03*
%TD*%
D33*
%TO.C,Rfbt1*%
X94758000Y-57150000D03*
X96758000Y-57150000D03*
%TD*%
D14*
%TO.C,R8*%
X114300000Y-69120000D03*
X114300000Y-71120000D03*
%TD*%
D37*
%TO.C,D25*%
X155702000Y-91431000D03*
X155702000Y-93481000D03*
%TD*%
D32*
%TO.C,C5*%
X114300000Y-103886000D03*
X114300000Y-101811000D03*
%TD*%
D12*
%TO.C,R5*%
X129329000Y-119792000D03*
X127254000Y-119792000D03*
%TD*%
D38*
%TO.C,SW1*%
X101324000Y-92166000D03*
X101324000Y-87666000D03*
X92224000Y-92166000D03*
X92224000Y-87666000D03*
%TD*%
D37*
%TO.C,D23*%
X156210000Y-107424000D03*
X156210000Y-109474000D03*
%TD*%
D34*
%TO.C,H2*%
X163322000Y-36068000D03*
%TD*%
D21*
%TO.C,R3*%
X121412000Y-92710000D03*
X121412000Y-90710000D03*
%TD*%
D12*
%TO.C,R7*%
X129329000Y-125792000D03*
X127254000Y-125792000D03*
%TD*%
D39*
%TO.C,U1*%
X117866000Y-97558000D03*
X117866000Y-98058000D03*
X117866000Y-98558000D03*
X117866000Y-99058000D03*
X117866000Y-99558000D03*
X117866000Y-100058000D03*
X117866000Y-100558000D03*
X117866000Y-101058000D03*
X117866000Y-101558000D03*
X117866000Y-102058000D03*
X117866000Y-102558000D03*
X117866000Y-103058000D03*
X117866000Y-103558000D03*
X117866000Y-104058000D03*
X117866000Y-104558000D03*
X117866000Y-105058000D03*
D40*
X119791000Y-106983000D03*
X120291000Y-106983000D03*
X120791000Y-106983000D03*
X121291000Y-106983000D03*
X121791000Y-106983000D03*
X122291000Y-106983000D03*
X122791000Y-106983000D03*
X123291000Y-106983000D03*
X123791000Y-106983000D03*
X124291000Y-106983000D03*
X124791000Y-106983000D03*
X125291000Y-106983000D03*
X125791000Y-106983000D03*
X126291000Y-106983000D03*
X126791000Y-106983000D03*
X127291000Y-106983000D03*
D39*
X129216000Y-105058000D03*
X129216000Y-104558000D03*
X129216000Y-104058000D03*
X129216000Y-103558000D03*
X129216000Y-103058000D03*
X129216000Y-102558000D03*
X129216000Y-102058000D03*
X129216000Y-101558000D03*
X129216000Y-101058000D03*
X129216000Y-100558000D03*
X129216000Y-100058000D03*
X129216000Y-99558000D03*
X129216000Y-99058000D03*
X129216000Y-98558000D03*
X129216000Y-98058000D03*
X129216000Y-97558000D03*
D40*
X127291000Y-95633000D03*
X126791000Y-95633000D03*
X126291000Y-95633000D03*
X125791000Y-95633000D03*
X125291000Y-95633000D03*
X124791000Y-95633000D03*
X124291000Y-95633000D03*
X123791000Y-95633000D03*
X123291000Y-95633000D03*
X122791000Y-95633000D03*
X122291000Y-95633000D03*
X121791000Y-95633000D03*
X121291000Y-95633000D03*
X120791000Y-95633000D03*
X120291000Y-95633000D03*
X119791000Y-95633000D03*
%TD*%
D19*
%TO.C,D20*%
X147671000Y-93406000D03*
X147671000Y-91506000D03*
X145796000Y-92456000D03*
%TD*%
D32*
%TO.C,Cout1*%
X113792000Y-51583500D03*
X113792000Y-49508500D03*
%TD*%
D14*
%TO.C,R13*%
X103886000Y-85598000D03*
X103886000Y-87598000D03*
%TD*%
D41*
%TO.C,Q1*%
X105384000Y-112806500D03*
X105384000Y-110906500D03*
X103109000Y-111856500D03*
%TD*%
D21*
%TO.C,R14*%
X109282500Y-108014500D03*
X109282500Y-106014500D03*
%TD*%
D11*
%TO.C,J3*%
X154178000Y-123698000D03*
X151678000Y-123698000D03*
X149178000Y-123698000D03*
X146678000Y-123698000D03*
%TD*%
D21*
%TO.C,R22*%
X109028500Y-112686500D03*
X109028500Y-110686500D03*
%TD*%
D19*
%TO.C,D15*%
X105980500Y-107694500D03*
X105980500Y-105794500D03*
X104105500Y-106744500D03*
%TD*%
D13*
%TO.C,C10*%
X127973000Y-109728000D03*
X130048000Y-109728000D03*
%TD*%
D14*
%TO.C,R2*%
X115316000Y-55649000D03*
X115316000Y-57649000D03*
%TD*%
D28*
%TO.C,D1*%
X157970000Y-48260000D03*
X160020000Y-48260000D03*
%TD*%
D14*
%TO.C,R24*%
X150973000Y-96454000D03*
X150973000Y-98454000D03*
%TD*%
D37*
%TO.C,D8*%
X125476000Y-66294000D03*
X125476000Y-68344000D03*
%TD*%
D25*
%TO.C,C3*%
X132588000Y-73914000D03*
X132588000Y-75989000D03*
%TD*%
D10*
%TO.C,R32*%
X155162000Y-101092000D03*
X153162000Y-101092000D03*
%TD*%
D33*
%TO.C,R28*%
X108236000Y-116078000D03*
X110236000Y-116078000D03*
%TD*%
D20*
%TO.C,D2*%
X117856000Y-57676000D03*
X117856000Y-55626000D03*
%TD*%
D10*
%TO.C,R31*%
X155956000Y-88900000D03*
X153956000Y-88900000D03*
%TD*%
D13*
%TO.C,C11*%
X126957000Y-43434000D03*
X129032000Y-43434000D03*
%TD*%
D28*
%TO.C,D6*%
X132071000Y-125428000D03*
X134121000Y-125428000D03*
%TD*%
D34*
%TO.C,H3*%
X91694000Y-123698000D03*
%TD*%
D33*
%TO.C,R27*%
X102902000Y-101600000D03*
X104902000Y-101600000D03*
%TD*%
D13*
%TO.C,Cin1*%
X102848500Y-44704000D03*
X104923500Y-44704000D03*
%TD*%
D25*
%TO.C,C4*%
X114300000Y-44704000D03*
X114300000Y-46779000D03*
%TD*%
D13*
%TO.C,C15*%
X92801000Y-83789000D03*
X94876000Y-83789000D03*
%TD*%
D42*
%TO.C,U2*%
X119062000Y-78997000D03*
X119712000Y-78997000D03*
X120362000Y-78997000D03*
X121012000Y-78997000D03*
X121662000Y-78997000D03*
X122312000Y-78997000D03*
X122962000Y-78997000D03*
X123612000Y-78997000D03*
X124262000Y-78997000D03*
X124912000Y-78997000D03*
X125562000Y-78997000D03*
X126212000Y-78997000D03*
X126862000Y-78997000D03*
X127512000Y-78997000D03*
X127512000Y-71747000D03*
X126862000Y-71747000D03*
X126212000Y-71747000D03*
X125562000Y-71747000D03*
X124912000Y-71747000D03*
X124262000Y-71747000D03*
X123612000Y-71747000D03*
X122962000Y-71747000D03*
X122312000Y-71747000D03*
X121662000Y-71747000D03*
X121012000Y-71747000D03*
X120362000Y-71747000D03*
X119712000Y-71747000D03*
X119062000Y-71747000D03*
%TD*%
D43*
%TO.C,U4*%
X104013000Y-47828200D03*
X102743000Y-47828200D03*
X101473000Y-47828200D03*
X100203000Y-47828200D03*
X100203000Y-52755800D03*
X101473000Y-52755800D03*
X102743000Y-52755800D03*
X104013000Y-52755800D03*
%TD*%
D19*
%TO.C,D17*%
X147084500Y-114422000D03*
X147084500Y-112522000D03*
X145209500Y-113472000D03*
%TD*%
D21*
%TO.C,R10*%
X127508000Y-40624000D03*
X127508000Y-38624000D03*
%TD*%
D44*
%TO.C,FB1*%
X132460000Y-70104000D03*
X134240000Y-70104000D03*
%TD*%
D20*
%TO.C,D26*%
X155448000Y-98316000D03*
X155448000Y-96266000D03*
%TD*%
D21*
%TO.C,R25*%
X150894500Y-109596000D03*
X150894500Y-107596000D03*
%TD*%
D19*
%TO.C,D19*%
X147084500Y-109088000D03*
X147084500Y-107188000D03*
X145209500Y-108138000D03*
%TD*%
D14*
%TO.C,R23*%
X150894500Y-112168000D03*
X150894500Y-114168000D03*
%TD*%
D28*
%TO.C,D5*%
X132071000Y-122428000D03*
X134121000Y-122428000D03*
%TD*%
D21*
%TO.C,R26*%
X151227000Y-93374000D03*
X151227000Y-91374000D03*
%TD*%
%TO.C,R11*%
X124206000Y-40354000D03*
X124206000Y-38354000D03*
%TD*%
D13*
%TO.C,Ccomp2*%
X99292500Y-60706000D03*
X101367500Y-60706000D03*
%TD*%
D20*
%TO.C,D7*%
X118110000Y-68344000D03*
X118110000Y-66294000D03*
%TD*%
D21*
%TO.C,Cboot1*%
X107696000Y-51816000D03*
X107696000Y-49816000D03*
%TD*%
M02*
