%TF.GenerationSoftware,KiCad,Pcbnew,8.0.5*%
%TF.CreationDate,2024-10-22T12:33:32-04:00*%
%TF.ProjectId,PCB_Schematic,5043425f-5363-4686-956d-617469632e6b,rev?*%
%TF.SameCoordinates,Original*%
%TF.FileFunction,Copper,L2,Bot*%
%TF.FilePolarity,Positive*%
%FSLAX46Y46*%
G04 Gerber Fmt 4.6, Leading zero omitted, Abs format (unit mm)*
G04 Created by KiCad (PCBNEW 8.0.5) date 2024-10-22 12:33:32*
%MOMM*%
%LPD*%
G01*
G04 APERTURE LIST*
G04 Aperture macros list*
%AMRoundRect*
0 Rectangle with rounded corners*
0 $1 Rounding radius*
0 $2 $3 $4 $5 $6 $7 $8 $9 X,Y pos of 4 corners*
0 Add a 4 corners polygon primitive as box body*
4,1,4,$2,$3,$4,$5,$6,$7,$8,$9,$2,$3,0*
0 Add four circle primitives for the rounded corners*
1,1,$1+$1,$2,$3*
1,1,$1+$1,$4,$5*
1,1,$1+$1,$6,$7*
1,1,$1+$1,$8,$9*
0 Add four rect primitives between the rounded corners*
20,1,$1+$1,$2,$3,$4,$5,0*
20,1,$1+$1,$4,$5,$6,$7,0*
20,1,$1+$1,$6,$7,$8,$9,0*
20,1,$1+$1,$8,$9,$2,$3,0*%
G04 Aperture macros list end*
%TA.AperFunction,ComponentPad*%
%ADD10C,1.752600*%
%TD*%
%TA.AperFunction,ComponentPad*%
%ADD11O,1.200000X2.900000*%
%TD*%
%TA.AperFunction,ComponentPad*%
%ADD12RoundRect,0.250000X0.600000X0.600000X-0.600000X0.600000X-0.600000X-0.600000X0.600000X-0.600000X0*%
%TD*%
%TA.AperFunction,ComponentPad*%
%ADD13C,1.700000*%
%TD*%
%TA.AperFunction,SMDPad,CuDef*%
%ADD14RoundRect,0.250000X0.337500X0.475000X-0.337500X0.475000X-0.337500X-0.475000X0.337500X-0.475000X0*%
%TD*%
%TA.AperFunction,SMDPad,CuDef*%
%ADD15RoundRect,0.250000X-0.475000X0.337500X-0.475000X-0.337500X0.475000X-0.337500X0.475000X0.337500X0*%
%TD*%
%TA.AperFunction,SMDPad,CuDef*%
%ADD16RoundRect,0.250000X-0.337500X-0.475000X0.337500X-0.475000X0.337500X0.475000X-0.337500X0.475000X0*%
%TD*%
%TA.AperFunction,SMDPad,CuDef*%
%ADD17RoundRect,0.250000X-0.450000X0.350000X-0.450000X-0.350000X0.450000X-0.350000X0.450000X0.350000X0*%
%TD*%
%TA.AperFunction,SMDPad,CuDef*%
%ADD18RoundRect,0.250000X0.450000X-0.350000X0.450000X0.350000X-0.450000X0.350000X-0.450000X-0.350000X0*%
%TD*%
%TA.AperFunction,ViaPad*%
%ADD19C,0.600000*%
%TD*%
%TA.AperFunction,ViaPad*%
%ADD20C,0.800000*%
%TD*%
%TA.AperFunction,ViaPad*%
%ADD21C,5.000000*%
%TD*%
%TA.AperFunction,ViaPad*%
%ADD22C,1.000000*%
%TD*%
%TA.AperFunction,Conductor*%
%ADD23C,0.254000*%
%TD*%
%TA.AperFunction,Conductor*%
%ADD24C,0.300000*%
%TD*%
%TA.AperFunction,Conductor*%
%ADD25C,0.600000*%
%TD*%
%TA.AperFunction,Conductor*%
%ADD26C,0.250000*%
%TD*%
%TA.AperFunction,Conductor*%
%ADD27C,0.400000*%
%TD*%
G04 APERTURE END LIST*
D10*
%TO.P,J7,1,Pin_1*%
%TO.N,+3.3V*%
X161067597Y-99919200D03*
%TO.P,J7,2,Pin_2*%
%TO.N,GND*%
X161067597Y-97419200D03*
%TO.P,J7,3,Pin_3*%
%TO.N,/SCL2E*%
X161067597Y-94919200D03*
%TO.P,J7,4,Pin_4*%
%TO.N,/SDA2E*%
X161067597Y-92419200D03*
%TD*%
D11*
%TO.P,J5,5,Shield*%
%TO.N,unconnected-(J5-Shield-Pad5)*%
X153720000Y-41650000D03*
%TO.N,unconnected-(J5-Shield-Pad5)_1*%
X140920000Y-41650000D03*
%TD*%
D10*
%TO.P,J6,1,Pin_1*%
%TO.N,+3.3V*%
X161133000Y-114916000D03*
%TO.P,J6,2,Pin_2*%
%TO.N,GND*%
X161133000Y-112416000D03*
%TO.P,J6,3,Pin_3*%
%TO.N,/SCL1E*%
X161133000Y-109916000D03*
%TO.P,J6,4,Pin_4*%
%TO.N,/SDA1E*%
X161133000Y-107416000D03*
%TD*%
D12*
%TO.P,J1,1,Pin_1*%
%TO.N,/NRST*%
X161798000Y-81280000D03*
D13*
%TO.P,J1,2,Pin_2*%
%TO.N,/SWDIO_IN*%
X159258000Y-81280000D03*
%TO.P,J1,3,Pin_3*%
%TO.N,GND*%
X161798000Y-78740000D03*
%TO.P,J1,4,Pin_4*%
X159258000Y-78740000D03*
%TO.P,J1,5,Pin_5*%
%TO.N,unconnected-(J1-Pin_5-Pad5)*%
X161798000Y-76200000D03*
%TO.P,J1,6,Pin_6*%
%TO.N,/SWCLK_IN*%
X159258000Y-76200000D03*
%TO.P,J1,7,Pin_7*%
%TO.N,unconnected-(J1-Pin_7-Pad7)*%
X161798000Y-73660000D03*
%TO.P,J1,8,Pin_8*%
%TO.N,unconnected-(J1-Pin_8-Pad8)*%
X159258000Y-73660000D03*
%TO.P,J1,9,Pin_9*%
%TO.N,unconnected-(J1-Pin_9-Pad9)*%
X161798000Y-71120000D03*
%TO.P,J1,10,Pin_10*%
%TO.N,unconnected-(J1-Pin_10-Pad10)*%
X159258000Y-71120000D03*
%TD*%
D10*
%TO.P,J2,1,Pin_1*%
%TO.N,GND*%
X113538000Y-123952000D03*
%TO.P,J2,2,Pin_2*%
X111038000Y-123952000D03*
%TO.P,J2,3,Pin_3*%
X108538000Y-123952000D03*
%TO.P,J2,4,Pin_4*%
X106038000Y-123952000D03*
%TD*%
%TO.P,J4,1,Pin_1*%
%TO.N,+5V*%
X93901500Y-104980500D03*
%TO.P,J4,2,Pin_2*%
%TO.N,/TrigE*%
X93901500Y-107480500D03*
%TO.P,J4,3,Pin_3*%
%TO.N,/Echo5VE*%
X93901500Y-109980500D03*
%TO.P,J4,4,Pin_4*%
%TO.N,GND*%
X93901500Y-112480500D03*
%TD*%
%TO.P,J3,1,Pin_1*%
%TO.N,+3.3V*%
X154178000Y-123698000D03*
%TO.P,J3,2,Pin_2*%
X151678000Y-123698000D03*
%TO.P,J3,3,Pin_3*%
X149178000Y-123698000D03*
%TO.P,J3,4,Pin_4*%
X146678000Y-123698000D03*
%TD*%
D14*
%TO.P,C2,1*%
%TO.N,+5V*%
X126767500Y-76708000D03*
%TO.P,C2,2*%
%TO.N,GND*%
X124692500Y-76708000D03*
%TD*%
%TO.P,C8,1*%
%TO.N,+3.3V*%
X127648000Y-104836000D03*
%TO.P,C8,2*%
%TO.N,GND*%
X125573000Y-104836000D03*
%TD*%
%TO.P,C7,1*%
%TO.N,+3.3V*%
X121763000Y-104582000D03*
%TO.P,C7,2*%
%TO.N,GND*%
X119688000Y-104582000D03*
%TD*%
%TO.P,C1,1*%
%TO.N,/USB UART Comm/VCCIO*%
X121455000Y-75184000D03*
%TO.P,C1,2*%
%TO.N,GND*%
X119380000Y-75184000D03*
%TD*%
D15*
%TO.P,C9,1*%
%TO.N,+3.3V*%
X127000000Y-99017000D03*
%TO.P,C9,2*%
%TO.N,GND*%
X127000000Y-101092000D03*
%TD*%
D16*
%TO.P,C6,1*%
%TO.N,+3.3V*%
X119985000Y-97978000D03*
%TO.P,C6,2*%
%TO.N,GND*%
X122060000Y-97978000D03*
%TD*%
D17*
%TO.P,R16,1*%
%TO.N,+3.3V*%
X157226000Y-103140000D03*
%TO.P,R16,2*%
%TO.N,/SDA1E*%
X157226000Y-105140000D03*
%TD*%
D18*
%TO.P,R18,1*%
%TO.N,+3.3V*%
X155956000Y-113268000D03*
%TO.P,R18,2*%
%TO.N,/SCL1E*%
X155956000Y-111268000D03*
%TD*%
%TO.P,R19,1*%
%TO.N,+3.3V*%
X155956000Y-93202000D03*
%TO.P,R19,2*%
%TO.N,/SDA2E*%
X155956000Y-91202000D03*
%TD*%
%TO.P,R20,1*%
%TO.N,+3.3V*%
X155956000Y-97790000D03*
%TO.P,R20,2*%
%TO.N,/SCL2E*%
X155956000Y-95790000D03*
%TD*%
D19*
%TO.N,GND*%
X132080000Y-97536000D03*
D20*
X137414000Y-37846000D03*
D19*
X151892000Y-56896000D03*
X152654000Y-55626000D03*
X125222000Y-69596000D03*
D20*
X145288000Y-82296000D03*
D19*
X118364000Y-107696000D03*
D20*
X133604000Y-56896000D03*
D19*
X124714000Y-124460000D03*
X92964000Y-48768000D03*
D20*
X164592000Y-53848000D03*
D19*
X120396000Y-70358000D03*
D20*
X147574000Y-87884000D03*
D19*
X123444000Y-68834000D03*
X148590000Y-94996000D03*
D20*
X133604000Y-83566000D03*
X103886000Y-82550000D03*
X125984000Y-55118000D03*
D19*
X111760000Y-45466000D03*
X108712000Y-69088000D03*
X114300000Y-85344000D03*
X100838000Y-50800000D03*
D20*
X148082000Y-65532000D03*
X130556000Y-89154000D03*
X94742000Y-96774000D03*
X139954000Y-58166000D03*
X108458000Y-74676000D03*
D19*
X100838000Y-94742000D03*
X101854000Y-50800000D03*
X114300000Y-63500000D03*
X109037500Y-114565500D03*
X113538000Y-91440000D03*
D20*
X110744000Y-88138000D03*
X148844000Y-114808000D03*
D19*
X112522000Y-101600000D03*
D20*
X134874000Y-42926000D03*
D19*
X104648000Y-109220000D03*
D20*
X164084000Y-61468000D03*
D19*
X96266000Y-48260000D03*
D20*
X137922000Y-78740000D03*
D19*
X121666000Y-70104000D03*
D20*
X144780000Y-54356000D03*
D19*
X100838000Y-49784000D03*
D20*
X102870000Y-96774000D03*
D19*
X103124000Y-49784000D03*
D20*
X141478000Y-117602000D03*
X130302000Y-65024000D03*
D19*
X124714000Y-126492000D03*
X154178000Y-53086000D03*
X107950000Y-46736000D03*
X94488000Y-82042000D03*
X102870000Y-50800000D03*
X134820000Y-77149000D03*
D20*
X109474000Y-91694000D03*
X137414000Y-82296000D03*
X138938000Y-106680000D03*
D19*
X121666000Y-89408000D03*
X135328000Y-73339000D03*
X120291000Y-93726000D03*
X116078000Y-101600000D03*
D20*
X99314000Y-120396000D03*
X90932000Y-118872000D03*
D19*
X155956000Y-38354000D03*
X92964000Y-65278000D03*
D20*
X137414000Y-90678000D03*
D19*
X119380000Y-111252000D03*
X103378000Y-61722000D03*
X158750000Y-88900000D03*
D20*
X94742000Y-118364000D03*
D19*
X101854000Y-49784000D03*
D20*
X110744000Y-64262000D03*
X140970000Y-89154000D03*
D19*
X129032000Y-111506000D03*
X97028000Y-95758000D03*
D20*
X110744000Y-80264000D03*
D19*
X114935000Y-113919000D03*
X122936000Y-80772000D03*
D20*
X142240000Y-48260000D03*
D19*
X94742000Y-49530000D03*
D20*
X126746000Y-33782000D03*
D19*
X102870000Y-71628000D03*
X110236000Y-83820000D03*
X96266000Y-50038000D03*
X95504000Y-46482000D03*
X104902000Y-35052000D03*
D20*
X114300000Y-116332000D03*
D19*
X125984000Y-118364000D03*
D20*
X115316000Y-81534000D03*
D19*
X106172000Y-69596000D03*
X92710000Y-46736000D03*
X124968000Y-121412000D03*
D21*
X120904000Y-121412000D03*
D20*
X140208000Y-122428000D03*
X148590000Y-109474000D03*
X109220000Y-36830000D03*
D19*
X125984000Y-109474000D03*
D20*
%TO.N,+5V*%
X131064000Y-69088000D03*
D19*
X129540000Y-75438000D03*
D20*
X124968000Y-73660000D03*
D19*
X102616000Y-41656000D03*
D20*
%TO.N,+3.3V*%
X120142000Y-99568000D03*
D22*
X132080000Y-96266000D03*
D20*
X121920000Y-102870000D03*
D19*
X124714000Y-49784000D03*
X127254000Y-103124000D03*
%TO.N,/NRST*%
X146304000Y-78740000D03*
%TO.N,Net-(U4-BOOT)*%
X107696000Y-48768000D03*
X105410000Y-48006000D03*
%TO.N,/USB UART Comm/VCCIO*%
X121455000Y-76665000D03*
X123190000Y-75184000D03*
%TO.N,/TXD*%
X120269000Y-88773000D03*
%TO.N,/RXD*%
X125476000Y-85598000D03*
D20*
%TO.N,Net-(D9-A)*%
X115824000Y-43180000D03*
X116078000Y-49530000D03*
%TO.N,/Trig*%
X109220000Y-102713456D03*
%TO.N,/SCL1*%
X135636000Y-102362000D03*
D19*
%TO.N,/SCL2*%
X143002000Y-98298000D03*
D20*
%TO.N,/SDA1*%
X139954000Y-101346000D03*
D19*
%TO.N,/SDA2*%
X136652000Y-98044000D03*
%TO.N,/Echo3.3V*%
X112776000Y-107442000D03*
%TO.N,Net-(U2-CBUS0)*%
X118364000Y-73726500D03*
D20*
%TO.N,/PA7*%
X122428000Y-115062000D03*
%TO.N,/PA4*%
X118110000Y-115062000D03*
%TO.N,/PB1*%
X127254000Y-115062000D03*
%TO.N,/PC5*%
X124714000Y-115062000D03*
%TO.N,/PA6*%
X120142000Y-115062000D03*
%TO.N,Net-(U2-VCC)*%
X123444000Y-73660000D03*
D19*
X133858000Y-71882000D03*
%TD*%
D23*
%TO.N,GND*%
X103378000Y-61722000D02*
X105664000Y-61722000D01*
D24*
%TO.N,+5V*%
X124968000Y-72756000D02*
X128636000Y-69088000D01*
X126767500Y-76708000D02*
X128270000Y-76708000D01*
X124968000Y-73660000D02*
X124968000Y-72756000D01*
X128270000Y-76708000D02*
X129540000Y-75438000D01*
X128636000Y-69088000D02*
X131064000Y-69088000D01*
D25*
%TO.N,+3.3V*%
X129751000Y-96266000D02*
X127000000Y-99017000D01*
D26*
X127648000Y-104836000D02*
X127574000Y-104836000D01*
D27*
X121920000Y-102870000D02*
X121920000Y-101346000D01*
D26*
X121763000Y-104582000D02*
X121732000Y-104582000D01*
D24*
X155956000Y-93202000D02*
X155718000Y-93202000D01*
D23*
X122274445Y-102870000D02*
X121920000Y-102870000D01*
D25*
X157226000Y-103140000D02*
X159496000Y-103140000D01*
D24*
X121763000Y-103027000D02*
X121920000Y-102870000D01*
D26*
X121732000Y-104582000D02*
X121666000Y-104648000D01*
D27*
X126127445Y-99017000D02*
X122274445Y-102870000D01*
D25*
X161067597Y-101568403D02*
X161067597Y-99919200D01*
D24*
X127648000Y-104836000D02*
X127648000Y-103518000D01*
D25*
X132080000Y-96266000D02*
X151484445Y-96266000D01*
D27*
X119985000Y-97978000D02*
X119985000Y-99411000D01*
D25*
X155956000Y-97790000D02*
X155956000Y-99919200D01*
D24*
X159485000Y-113268000D02*
X161133000Y-114916000D01*
D25*
X155718000Y-93202000D02*
X152069223Y-96850777D01*
D24*
X152196223Y-96977777D02*
X152069223Y-96850777D01*
D27*
X121920000Y-101346000D02*
X120142000Y-99568000D01*
X121763000Y-104582000D02*
X121763000Y-103027000D01*
D26*
X127574000Y-104836000D02*
X127508000Y-104902000D01*
D27*
X127000000Y-99017000D02*
X126127445Y-99017000D01*
D24*
X127648000Y-103518000D02*
X127254000Y-103124000D01*
D25*
X155956000Y-99919200D02*
X155137645Y-99919200D01*
X157226000Y-99919200D02*
X155956000Y-99919200D01*
D24*
X155956000Y-113268000D02*
X159485000Y-113268000D01*
D26*
X119985000Y-99411000D02*
X120142000Y-99568000D01*
D25*
X155137645Y-99919200D02*
X152196223Y-96977777D01*
X151484445Y-96266000D02*
X152069223Y-96850777D01*
X159496000Y-103140000D02*
X161067597Y-101568403D01*
X161067597Y-99919200D02*
X157226000Y-99919200D01*
X132080000Y-96266000D02*
X129751000Y-96266000D01*
D23*
%TO.N,/NRST*%
X160020000Y-83058000D02*
X162052000Y-81026000D01*
X150114000Y-78740000D02*
X154432000Y-83058000D01*
X154432000Y-83058000D02*
X160020000Y-83058000D01*
X146304000Y-78740000D02*
X150114000Y-78740000D01*
%TO.N,Net-(U4-BOOT)*%
X106934000Y-48006000D02*
X105410000Y-48006000D01*
X107696000Y-48768000D02*
X106934000Y-48006000D01*
D24*
%TO.N,/USB UART Comm/VCCIO*%
X121455000Y-75184000D02*
X121455000Y-76665000D01*
X121412000Y-76708000D02*
X121455000Y-76665000D01*
X121455000Y-75184000D02*
X123190000Y-75184000D01*
%TO.N,/SDA1E*%
X157226000Y-105140000D02*
X158857000Y-105140000D01*
X158857000Y-105140000D02*
X161133000Y-107416000D01*
%TO.N,/SCL1E*%
X155956000Y-111268000D02*
X159781000Y-111268000D01*
X159781000Y-111268000D02*
X161133000Y-109916000D01*
%TO.N,/SDA2E*%
X155956000Y-91202000D02*
X159850397Y-91202000D01*
X159850397Y-91202000D02*
X161067597Y-92419200D01*
%TO.N,/SCL2E*%
X160196797Y-95790000D02*
X161067597Y-94919200D01*
X155956000Y-95790000D02*
X160196797Y-95790000D01*
D23*
%TO.N,Net-(D9-A)*%
X116078000Y-49530000D02*
X115824000Y-49530000D01*
D24*
X115824000Y-43180000D02*
X115824000Y-49276000D01*
X115824000Y-49276000D02*
X116078000Y-49530000D01*
D26*
%TO.N,Net-(U2-CBUS0)*%
X118364000Y-73726500D02*
X118618000Y-73726500D01*
D24*
%TO.N,Net-(U2-VCC)*%
X131318000Y-74422000D02*
X124206000Y-74422000D01*
X133858000Y-71882000D02*
X131318000Y-74422000D01*
X124206000Y-74422000D02*
X123444000Y-73660000D01*
%TD*%
%TA.AperFunction,Conductor*%
%TO.N,GND*%
G36*
X159900923Y-96460185D02*
G01*
X159946678Y-96512989D01*
X159956622Y-96582147D01*
X159937693Y-96632322D01*
X159853027Y-96761912D01*
X159761406Y-96970784D01*
X159705414Y-97191895D01*
X159686580Y-97419194D01*
X159686580Y-97419205D01*
X159705414Y-97646504D01*
X159761406Y-97867615D01*
X159853028Y-98076490D01*
X159933531Y-98199710D01*
X160487755Y-97645486D01*
X160516122Y-97713970D01*
X160584225Y-97815893D01*
X160670904Y-97902572D01*
X160772827Y-97970675D01*
X160841308Y-97999040D01*
X160285685Y-98554662D01*
X160285686Y-98554663D01*
X160306714Y-98571031D01*
X160347526Y-98627742D01*
X160351199Y-98697515D01*
X160316567Y-98758198D01*
X160306712Y-98766736D01*
X160131927Y-98902775D01*
X160131916Y-98902786D01*
X159977386Y-99070649D01*
X159977225Y-99070857D01*
X159977137Y-99070919D01*
X159973910Y-99074426D01*
X159973188Y-99073762D01*
X159920517Y-99111673D01*
X159879368Y-99118700D01*
X156880500Y-99118700D01*
X156813461Y-99099015D01*
X156767706Y-99046211D01*
X156756500Y-98994700D01*
X156756500Y-98874797D01*
X156776185Y-98807758D01*
X156815403Y-98769258D01*
X156874656Y-98732712D01*
X156998712Y-98608656D01*
X157090814Y-98459334D01*
X157145999Y-98292797D01*
X157156500Y-98190009D01*
X157156499Y-97389992D01*
X157149166Y-97318211D01*
X157145999Y-97287203D01*
X157145998Y-97287200D01*
X157140743Y-97271341D01*
X157090814Y-97120666D01*
X156998712Y-96971344D01*
X156905049Y-96877681D01*
X156871564Y-96816358D01*
X156876548Y-96746666D01*
X156905049Y-96702319D01*
X156998712Y-96608656D01*
X157066099Y-96499402D01*
X157118047Y-96452679D01*
X157171638Y-96440500D01*
X159833884Y-96440500D01*
X159900923Y-96460185D01*
G37*
%TD.AperFunction*%
%TA.AperFunction,Conductor*%
G36*
X161332075Y-78932993D02*
G01*
X161397901Y-79047007D01*
X161490993Y-79140099D01*
X161605007Y-79205925D01*
X161668590Y-79222962D01*
X161032208Y-79859342D01*
X161021788Y-79911193D01*
X160973172Y-79961376D01*
X160951032Y-79971205D01*
X160878674Y-79995182D01*
X160878663Y-79995187D01*
X160729342Y-80087289D01*
X160605289Y-80211342D01*
X160513187Y-80360663D01*
X160513183Y-80360673D01*
X160510335Y-80369268D01*
X160470560Y-80426711D01*
X160406044Y-80453531D01*
X160337268Y-80441214D01*
X160300517Y-80412233D01*
X160300324Y-80412427D01*
X160298682Y-80410785D01*
X160297642Y-80409965D01*
X160296494Y-80408597D01*
X160129402Y-80241506D01*
X160129401Y-80241505D01*
X159943405Y-80111269D01*
X159899781Y-80056692D01*
X159892588Y-79987193D01*
X159924110Y-79924839D01*
X159943405Y-79908119D01*
X160019373Y-79854925D01*
X159387409Y-79222962D01*
X159450993Y-79205925D01*
X159565007Y-79140099D01*
X159658099Y-79047007D01*
X159723925Y-78932993D01*
X159740962Y-78869410D01*
X160372925Y-79501373D01*
X160426425Y-79424968D01*
X160481002Y-79381344D01*
X160550501Y-79374151D01*
X160612855Y-79405673D01*
X160629576Y-79424969D01*
X160683073Y-79501372D01*
X161315037Y-78869409D01*
X161332075Y-78932993D01*
G37*
%TD.AperFunction*%
%TA.AperFunction,Conductor*%
G36*
X160612855Y-76866546D02*
G01*
X160629575Y-76885842D01*
X160759500Y-77071395D01*
X160759505Y-77071401D01*
X160926599Y-77238495D01*
X161112594Y-77368730D01*
X161156218Y-77423307D01*
X161163411Y-77492806D01*
X161131889Y-77555160D01*
X161112593Y-77571880D01*
X161036626Y-77625072D01*
X161036625Y-77625072D01*
X161668590Y-78257037D01*
X161605007Y-78274075D01*
X161490993Y-78339901D01*
X161397901Y-78432993D01*
X161332075Y-78547007D01*
X161315037Y-78610590D01*
X160683072Y-77978625D01*
X160683072Y-77978626D01*
X160629574Y-78055030D01*
X160574998Y-78098655D01*
X160505499Y-78105849D01*
X160443144Y-78074326D01*
X160426424Y-78055030D01*
X160372925Y-77978626D01*
X160372925Y-77978625D01*
X159740962Y-78610589D01*
X159723925Y-78547007D01*
X159658099Y-78432993D01*
X159565007Y-78339901D01*
X159450993Y-78274075D01*
X159387410Y-78257037D01*
X160019373Y-77625073D01*
X160019373Y-77625072D01*
X159943405Y-77571880D01*
X159899780Y-77517304D01*
X159892586Y-77447805D01*
X159924108Y-77385451D01*
X159943399Y-77368734D01*
X160129401Y-77238495D01*
X160296495Y-77071401D01*
X160426425Y-76885842D01*
X160481002Y-76842217D01*
X160550500Y-76835023D01*
X160612855Y-76866546D01*
G37*
%TD.AperFunction*%
%TA.AperFunction,Conductor*%
G36*
X157423039Y-32670185D02*
G01*
X157468794Y-32722989D01*
X157480000Y-32774500D01*
X157480000Y-41148000D01*
X166784500Y-41148000D01*
X166851539Y-41167685D01*
X166897294Y-41220489D01*
X166908500Y-41272000D01*
X166908500Y-119002000D01*
X166888815Y-119069039D01*
X166836011Y-119114794D01*
X166784500Y-119126000D01*
X161289999Y-119126000D01*
X158496000Y-122173999D01*
X158496000Y-127113500D01*
X158476315Y-127180539D01*
X158423511Y-127226294D01*
X158372000Y-127237500D01*
X96136000Y-127237500D01*
X96068961Y-127217815D01*
X96023206Y-127165011D01*
X96012000Y-127113500D01*
X96012000Y-123951994D01*
X104656983Y-123951994D01*
X104656983Y-123952005D01*
X104675817Y-124179304D01*
X104731809Y-124400415D01*
X104823431Y-124609290D01*
X104903934Y-124732510D01*
X105458158Y-124178287D01*
X105486525Y-124246770D01*
X105554628Y-124348693D01*
X105641307Y-124435372D01*
X105743230Y-124503475D01*
X105811711Y-124531840D01*
X105256088Y-125087462D01*
X105256089Y-125087463D01*
X105282651Y-125108137D01*
X105282652Y-125108139D01*
X105483250Y-125216698D01*
X105483255Y-125216700D01*
X105698976Y-125290757D01*
X105923958Y-125328300D01*
X106152042Y-125328300D01*
X106377023Y-125290757D01*
X106592744Y-125216700D01*
X106592749Y-125216698D01*
X106793346Y-125108139D01*
X106793349Y-125108137D01*
X106819910Y-125087463D01*
X106264287Y-124531840D01*
X106332770Y-124503475D01*
X106434693Y-124435372D01*
X106521372Y-124348693D01*
X106589475Y-124246770D01*
X106617840Y-124178288D01*
X107172063Y-124732511D01*
X107184190Y-124713950D01*
X107237336Y-124668593D01*
X107306567Y-124659169D01*
X107369903Y-124688670D01*
X107391807Y-124713949D01*
X107403934Y-124732511D01*
X107958158Y-124178287D01*
X107986525Y-124246770D01*
X108054628Y-124348693D01*
X108141307Y-124435372D01*
X108243230Y-124503475D01*
X108311711Y-124531840D01*
X107756088Y-125087462D01*
X107756089Y-125087463D01*
X107782651Y-125108137D01*
X107782652Y-125108139D01*
X107983250Y-125216698D01*
X107983255Y-125216700D01*
X108198976Y-125290757D01*
X108423958Y-125328300D01*
X108652042Y-125328300D01*
X108877023Y-125290757D01*
X109092744Y-125216700D01*
X109092749Y-125216698D01*
X109293346Y-125108139D01*
X109293349Y-125108137D01*
X109319910Y-125087463D01*
X108764287Y-124531840D01*
X108832770Y-124503475D01*
X108934693Y-124435372D01*
X109021372Y-124348693D01*
X109089475Y-124246770D01*
X109117840Y-124178288D01*
X109672063Y-124732511D01*
X109684190Y-124713950D01*
X109737336Y-124668593D01*
X109806567Y-124659169D01*
X109869903Y-124688670D01*
X109891807Y-124713949D01*
X109903934Y-124732511D01*
X110458158Y-124178287D01*
X110486525Y-124246770D01*
X110554628Y-124348693D01*
X110641307Y-124435372D01*
X110743230Y-124503475D01*
X110811711Y-124531840D01*
X110256088Y-125087462D01*
X110256089Y-125087463D01*
X110282651Y-125108137D01*
X110282652Y-125108139D01*
X110483250Y-125216698D01*
X110483255Y-125216700D01*
X110698976Y-125290757D01*
X110923958Y-125328300D01*
X111152042Y-125328300D01*
X111377023Y-125290757D01*
X111592744Y-125216700D01*
X111592749Y-125216698D01*
X111793346Y-125108139D01*
X111793349Y-125108137D01*
X111819910Y-125087463D01*
X111264287Y-124531840D01*
X111332770Y-124503475D01*
X111434693Y-124435372D01*
X111521372Y-124348693D01*
X111589475Y-124246770D01*
X111617840Y-124178288D01*
X112172063Y-124732511D01*
X112184190Y-124713950D01*
X112237336Y-124668593D01*
X112306567Y-124659169D01*
X112369903Y-124688670D01*
X112391807Y-124713949D01*
X112403934Y-124732511D01*
X112958158Y-124178287D01*
X112986525Y-124246770D01*
X113054628Y-124348693D01*
X113141307Y-124435372D01*
X113243230Y-124503475D01*
X113311711Y-124531840D01*
X112756088Y-125087462D01*
X112756089Y-125087463D01*
X112782651Y-125108137D01*
X112782652Y-125108139D01*
X112983250Y-125216698D01*
X112983255Y-125216700D01*
X113198976Y-125290757D01*
X113423958Y-125328300D01*
X113652042Y-125328300D01*
X113877023Y-125290757D01*
X114092744Y-125216700D01*
X114092749Y-125216698D01*
X114293346Y-125108139D01*
X114293349Y-125108137D01*
X114319910Y-125087463D01*
X113764287Y-124531840D01*
X113832770Y-124503475D01*
X113934693Y-124435372D01*
X114021372Y-124348693D01*
X114089475Y-124246770D01*
X114117840Y-124178288D01*
X114672063Y-124732511D01*
X114752569Y-124609287D01*
X114844190Y-124400415D01*
X114900182Y-124179304D01*
X114919017Y-123952005D01*
X114919017Y-123951994D01*
X114900182Y-123724695D01*
X114893420Y-123697994D01*
X145296481Y-123697994D01*
X145296481Y-123698005D01*
X145315321Y-123925383D01*
X145315323Y-123925391D01*
X145371335Y-124146577D01*
X145462989Y-124355529D01*
X145587787Y-124546548D01*
X145718621Y-124688670D01*
X145742323Y-124714417D01*
X145922381Y-124854561D01*
X146123050Y-124963158D01*
X146338857Y-125037245D01*
X146563915Y-125074800D01*
X146792085Y-125074800D01*
X147017143Y-125037245D01*
X147232950Y-124963158D01*
X147433619Y-124854561D01*
X147613677Y-124714417D01*
X147768213Y-124546547D01*
X147824191Y-124460866D01*
X147877337Y-124415509D01*
X147946568Y-124406085D01*
X148009904Y-124435587D01*
X148031809Y-124460866D01*
X148087787Y-124546548D01*
X148218621Y-124688670D01*
X148242323Y-124714417D01*
X148422381Y-124854561D01*
X148623050Y-124963158D01*
X148838857Y-125037245D01*
X149063915Y-125074800D01*
X149292085Y-125074800D01*
X149517143Y-125037245D01*
X149732950Y-124963158D01*
X149933619Y-124854561D01*
X150113677Y-124714417D01*
X150268213Y-124546547D01*
X150324191Y-124460866D01*
X150377337Y-124415509D01*
X150446568Y-124406085D01*
X150509904Y-124435587D01*
X150531809Y-124460866D01*
X150587787Y-124546548D01*
X150718621Y-124688670D01*
X150742323Y-124714417D01*
X150922381Y-124854561D01*
X151123050Y-124963158D01*
X151338857Y-125037245D01*
X151563915Y-125074800D01*
X151792085Y-125074800D01*
X152017143Y-125037245D01*
X152232950Y-124963158D01*
X152433619Y-124854561D01*
X152613677Y-124714417D01*
X152768213Y-124546547D01*
X152824191Y-124460866D01*
X152877337Y-124415509D01*
X152946568Y-124406085D01*
X153009904Y-124435587D01*
X153031809Y-124460866D01*
X153087787Y-124546548D01*
X153218621Y-124688670D01*
X153242323Y-124714417D01*
X153422381Y-124854561D01*
X153623050Y-124963158D01*
X153838857Y-125037245D01*
X154063915Y-125074800D01*
X154292085Y-125074800D01*
X154517143Y-125037245D01*
X154732950Y-124963158D01*
X154933619Y-124854561D01*
X155113677Y-124714417D01*
X155268213Y-124546547D01*
X155393010Y-124355530D01*
X155484664Y-124146578D01*
X155540677Y-123925391D01*
X155559519Y-123698000D01*
X155547695Y-123555307D01*
X155540678Y-123470616D01*
X155540677Y-123470613D01*
X155540677Y-123470609D01*
X155484664Y-123249422D01*
X155393010Y-123040470D01*
X155268213Y-122849453D01*
X155268212Y-122849451D01*
X155113680Y-122681586D01*
X155113676Y-122681582D01*
X154933620Y-122541440D01*
X154933619Y-122541439D01*
X154732950Y-122432842D01*
X154732942Y-122432839D01*
X154517145Y-122358755D01*
X154292085Y-122321200D01*
X154063915Y-122321200D01*
X153838854Y-122358755D01*
X153623057Y-122432839D01*
X153623049Y-122432842D01*
X153422379Y-122541440D01*
X153242323Y-122681582D01*
X153242319Y-122681586D01*
X153087789Y-122849449D01*
X153031809Y-122935134D01*
X152978662Y-122980490D01*
X152909431Y-122989914D01*
X152846095Y-122960412D01*
X152824191Y-122935134D01*
X152768210Y-122849449D01*
X152613680Y-122681586D01*
X152613676Y-122681582D01*
X152433620Y-122541440D01*
X152433619Y-122541439D01*
X152232950Y-122432842D01*
X152232942Y-122432839D01*
X152017145Y-122358755D01*
X151792085Y-122321200D01*
X151563915Y-122321200D01*
X151338854Y-122358755D01*
X151123057Y-122432839D01*
X151123049Y-122432842D01*
X150922379Y-122541440D01*
X150742323Y-122681582D01*
X150742319Y-122681586D01*
X150587789Y-122849449D01*
X150531809Y-122935134D01*
X150478662Y-122980490D01*
X150409431Y-122989914D01*
X150346095Y-122960412D01*
X150324191Y-122935134D01*
X150268210Y-122849449D01*
X150113680Y-122681586D01*
X150113676Y-122681582D01*
X149933620Y-122541440D01*
X149933619Y-122541439D01*
X149732950Y-122432842D01*
X149732942Y-122432839D01*
X149517145Y-122358755D01*
X149292085Y-122321200D01*
X149063915Y-122321200D01*
X148838854Y-122358755D01*
X148623057Y-122432839D01*
X148623049Y-122432842D01*
X148422379Y-122541440D01*
X148242323Y-122681582D01*
X148242319Y-122681586D01*
X148087789Y-122849449D01*
X148031809Y-122935134D01*
X147978662Y-122980490D01*
X147909431Y-122989914D01*
X147846095Y-122960412D01*
X147824191Y-122935134D01*
X147768210Y-122849449D01*
X147613680Y-122681586D01*
X147613676Y-122681582D01*
X147433620Y-122541440D01*
X147433619Y-122541439D01*
X147232950Y-122432842D01*
X147232942Y-122432839D01*
X147017145Y-122358755D01*
X146792085Y-122321200D01*
X146563915Y-122321200D01*
X146338854Y-122358755D01*
X146123057Y-122432839D01*
X146123049Y-122432842D01*
X145922379Y-122541440D01*
X145742323Y-122681582D01*
X145742319Y-122681586D01*
X145587787Y-122849451D01*
X145462989Y-123040470D01*
X145371335Y-123249422D01*
X145315323Y-123470608D01*
X145315321Y-123470616D01*
X145296481Y-123697994D01*
X114893420Y-123697994D01*
X114844190Y-123503584D01*
X114752568Y-123294709D01*
X114672063Y-123171487D01*
X114117840Y-123725710D01*
X114089475Y-123657230D01*
X114021372Y-123555307D01*
X113934693Y-123468628D01*
X113832770Y-123400525D01*
X113764288Y-123372159D01*
X114319910Y-122816537D01*
X114319909Y-122816535D01*
X114293349Y-122795862D01*
X114293348Y-122795861D01*
X114092749Y-122687301D01*
X114092744Y-122687299D01*
X113877023Y-122613242D01*
X113652042Y-122575700D01*
X113423958Y-122575700D01*
X113198976Y-122613242D01*
X112983255Y-122687299D01*
X112983250Y-122687301D01*
X112782652Y-122795860D01*
X112782646Y-122795864D01*
X112756089Y-122816534D01*
X112756089Y-122816536D01*
X113311712Y-123372159D01*
X113243230Y-123400525D01*
X113141307Y-123468628D01*
X113054628Y-123555307D01*
X112986525Y-123657230D01*
X112958159Y-123725712D01*
X112403934Y-123171487D01*
X112391807Y-123190050D01*
X112338661Y-123235406D01*
X112269430Y-123244830D01*
X112206094Y-123215328D01*
X112184190Y-123190049D01*
X112172063Y-123171487D01*
X111617840Y-123725710D01*
X111589475Y-123657230D01*
X111521372Y-123555307D01*
X111434693Y-123468628D01*
X111332770Y-123400525D01*
X111264288Y-123372159D01*
X111819910Y-122816537D01*
X111819909Y-122816535D01*
X111793349Y-122795862D01*
X111793348Y-122795861D01*
X111592749Y-122687301D01*
X111592744Y-122687299D01*
X111377023Y-122613242D01*
X111152042Y-122575700D01*
X110923958Y-122575700D01*
X110698976Y-122613242D01*
X110483255Y-122687299D01*
X110483250Y-122687301D01*
X110282652Y-122795860D01*
X110282646Y-122795864D01*
X110256089Y-122816534D01*
X110256089Y-122816536D01*
X110811712Y-123372159D01*
X110743230Y-123400525D01*
X110641307Y-123468628D01*
X110554628Y-123555307D01*
X110486525Y-123657230D01*
X110458159Y-123725712D01*
X109903934Y-123171487D01*
X109891807Y-123190050D01*
X109838661Y-123235406D01*
X109769430Y-123244830D01*
X109706094Y-123215328D01*
X109684190Y-123190049D01*
X109672063Y-123171487D01*
X109117840Y-123725710D01*
X109089475Y-123657230D01*
X109021372Y-123555307D01*
X108934693Y-123468628D01*
X108832770Y-123400525D01*
X108764288Y-123372159D01*
X109319910Y-122816537D01*
X109319909Y-122816535D01*
X109293349Y-122795862D01*
X109293348Y-122795861D01*
X109092749Y-122687301D01*
X109092744Y-122687299D01*
X108877023Y-122613242D01*
X108652042Y-122575700D01*
X108423958Y-122575700D01*
X108198976Y-122613242D01*
X107983255Y-122687299D01*
X107983250Y-122687301D01*
X107782652Y-122795860D01*
X107782646Y-122795864D01*
X107756089Y-122816534D01*
X107756089Y-122816536D01*
X108311712Y-123372159D01*
X108243230Y-123400525D01*
X108141307Y-123468628D01*
X108054628Y-123555307D01*
X107986525Y-123657230D01*
X107958159Y-123725712D01*
X107403934Y-123171487D01*
X107391807Y-123190050D01*
X107338661Y-123235406D01*
X107269430Y-123244830D01*
X107206094Y-123215328D01*
X107184190Y-123190049D01*
X107172063Y-123171487D01*
X106617840Y-123725710D01*
X106589475Y-123657230D01*
X106521372Y-123555307D01*
X106434693Y-123468628D01*
X106332770Y-123400525D01*
X106264288Y-123372159D01*
X106819910Y-122816537D01*
X106819909Y-122816535D01*
X106793349Y-122795862D01*
X106793348Y-122795861D01*
X106592749Y-122687301D01*
X106592744Y-122687299D01*
X106377023Y-122613242D01*
X106152042Y-122575700D01*
X105923958Y-122575700D01*
X105698976Y-122613242D01*
X105483255Y-122687299D01*
X105483250Y-122687301D01*
X105282652Y-122795860D01*
X105282646Y-122795864D01*
X105256089Y-122816534D01*
X105256089Y-122816536D01*
X105811712Y-123372159D01*
X105743230Y-123400525D01*
X105641307Y-123468628D01*
X105554628Y-123555307D01*
X105486525Y-123657230D01*
X105458159Y-123725712D01*
X104903935Y-123171488D01*
X104823431Y-123294710D01*
X104823429Y-123294714D01*
X104731809Y-123503584D01*
X104675817Y-123724695D01*
X104656983Y-123951994D01*
X96012000Y-123951994D01*
X96012000Y-120142000D01*
X88231500Y-120142000D01*
X88164461Y-120122315D01*
X88118706Y-120069511D01*
X88107500Y-120018000D01*
X88107500Y-115062000D01*
X117204540Y-115062000D01*
X117224326Y-115250256D01*
X117224327Y-115250259D01*
X117282818Y-115430277D01*
X117282821Y-115430284D01*
X117377467Y-115594216D01*
X117504129Y-115734888D01*
X117657265Y-115846148D01*
X117657270Y-115846151D01*
X117830192Y-115923142D01*
X117830197Y-115923144D01*
X118015354Y-115962500D01*
X118015355Y-115962500D01*
X118204644Y-115962500D01*
X118204646Y-115962500D01*
X118389803Y-115923144D01*
X118562730Y-115846151D01*
X118715871Y-115734888D01*
X118842533Y-115594216D01*
X118937179Y-115430284D01*
X118995674Y-115250256D01*
X119002679Y-115183597D01*
X119029263Y-115118985D01*
X119086561Y-115079000D01*
X119156380Y-115076340D01*
X119216553Y-115111849D01*
X119247977Y-115174254D01*
X119249318Y-115183583D01*
X119256326Y-115250256D01*
X119256327Y-115250259D01*
X119314818Y-115430277D01*
X119314821Y-115430284D01*
X119409467Y-115594216D01*
X119536129Y-115734888D01*
X119689265Y-115846148D01*
X119689270Y-115846151D01*
X119862192Y-115923142D01*
X119862197Y-115923144D01*
X120047354Y-115962500D01*
X120047355Y-115962500D01*
X120236644Y-115962500D01*
X120236646Y-115962500D01*
X120421803Y-115923144D01*
X120594730Y-115846151D01*
X120747871Y-115734888D01*
X120874533Y-115594216D01*
X120969179Y-115430284D01*
X121027674Y-115250256D01*
X121047460Y-115062000D01*
X121522540Y-115062000D01*
X121542326Y-115250256D01*
X121542327Y-115250259D01*
X121600818Y-115430277D01*
X121600821Y-115430284D01*
X121695467Y-115594216D01*
X121822129Y-115734888D01*
X121975265Y-115846148D01*
X121975270Y-115846151D01*
X122148192Y-115923142D01*
X122148197Y-115923144D01*
X122333354Y-115962500D01*
X122333355Y-115962500D01*
X122522644Y-115962500D01*
X122522646Y-115962500D01*
X122707803Y-115923144D01*
X122880730Y-115846151D01*
X123033871Y-115734888D01*
X123160533Y-115594216D01*
X123255179Y-115430284D01*
X123313674Y-115250256D01*
X123333460Y-115062000D01*
X123808540Y-115062000D01*
X123828326Y-115250256D01*
X123828327Y-115250259D01*
X123886818Y-115430277D01*
X123886821Y-115430284D01*
X123981467Y-115594216D01*
X124108129Y-115734888D01*
X124261265Y-115846148D01*
X124261270Y-115846151D01*
X124434192Y-115923142D01*
X124434197Y-115923144D01*
X124619354Y-115962500D01*
X124619355Y-115962500D01*
X124808644Y-115962500D01*
X124808646Y-115962500D01*
X124993803Y-115923144D01*
X125166730Y-115846151D01*
X125319871Y-115734888D01*
X125446533Y-115594216D01*
X125541179Y-115430284D01*
X125599674Y-115250256D01*
X125619460Y-115062000D01*
X126348540Y-115062000D01*
X126368326Y-115250256D01*
X126368327Y-115250259D01*
X126426818Y-115430277D01*
X126426821Y-115430284D01*
X126521467Y-115594216D01*
X126648129Y-115734888D01*
X126801265Y-115846148D01*
X126801270Y-115846151D01*
X126974192Y-115923142D01*
X126974197Y-115923144D01*
X127159354Y-115962500D01*
X127159355Y-115962500D01*
X127348644Y-115962500D01*
X127348646Y-115962500D01*
X127533803Y-115923144D01*
X127706730Y-115846151D01*
X127859871Y-115734888D01*
X127986533Y-115594216D01*
X128081179Y-115430284D01*
X128139674Y-115250256D01*
X128159460Y-115062000D01*
X128139674Y-114873744D01*
X128081179Y-114693716D01*
X127986533Y-114529784D01*
X127859871Y-114389112D01*
X127831500Y-114368499D01*
X127706734Y-114277851D01*
X127706729Y-114277848D01*
X127533807Y-114200857D01*
X127533802Y-114200855D01*
X127388001Y-114169865D01*
X127348646Y-114161500D01*
X127159354Y-114161500D01*
X127126897Y-114168398D01*
X126974197Y-114200855D01*
X126974192Y-114200857D01*
X126801270Y-114277848D01*
X126801265Y-114277851D01*
X126648129Y-114389111D01*
X126521466Y-114529785D01*
X126426821Y-114693715D01*
X126426818Y-114693722D01*
X126368327Y-114873740D01*
X126368326Y-114873744D01*
X126348540Y-115062000D01*
X125619460Y-115062000D01*
X125599674Y-114873744D01*
X125541179Y-114693716D01*
X125446533Y-114529784D01*
X125319871Y-114389112D01*
X125291500Y-114368499D01*
X125166734Y-114277851D01*
X125166729Y-114277848D01*
X124993807Y-114200857D01*
X124993802Y-114200855D01*
X124848001Y-114169865D01*
X124808646Y-114161500D01*
X124619354Y-114161500D01*
X124586897Y-114168398D01*
X124434197Y-114200855D01*
X124434192Y-114200857D01*
X124261270Y-114277848D01*
X124261265Y-114277851D01*
X124108129Y-114389111D01*
X123981466Y-114529785D01*
X123886821Y-114693715D01*
X123886818Y-114693722D01*
X123828327Y-114873740D01*
X123828326Y-114873744D01*
X123808540Y-115062000D01*
X123333460Y-115062000D01*
X123313674Y-114873744D01*
X123255179Y-114693716D01*
X123160533Y-114529784D01*
X123033871Y-114389112D01*
X123005500Y-114368499D01*
X122880734Y-114277851D01*
X122880729Y-114277848D01*
X122707807Y-114200857D01*
X122707802Y-114200855D01*
X122562001Y-114169865D01*
X122522646Y-114161500D01*
X122333354Y-114161500D01*
X122300897Y-114168398D01*
X122148197Y-114200855D01*
X122148192Y-114200857D01*
X121975270Y-114277848D01*
X121975265Y-114277851D01*
X121822129Y-114389111D01*
X121695466Y-114529785D01*
X121600821Y-114693715D01*
X121600818Y-114693722D01*
X121542327Y-114873740D01*
X121542326Y-114873744D01*
X121522540Y-115062000D01*
X121047460Y-115062000D01*
X121027674Y-114873744D01*
X120969179Y-114693716D01*
X120874533Y-114529784D01*
X120747871Y-114389112D01*
X120719500Y-114368499D01*
X120594734Y-114277851D01*
X120594729Y-114277848D01*
X120421807Y-114200857D01*
X120421802Y-114200855D01*
X120276001Y-114169865D01*
X120236646Y-114161500D01*
X120047354Y-114161500D01*
X120014897Y-114168398D01*
X119862197Y-114200855D01*
X119862192Y-114200857D01*
X119689270Y-114277848D01*
X119689265Y-114277851D01*
X119536129Y-114389111D01*
X119409466Y-114529785D01*
X119314821Y-114693715D01*
X119314818Y-114693722D01*
X119256327Y-114873740D01*
X119256326Y-114873744D01*
X119249320Y-114940402D01*
X119222736Y-115005014D01*
X119165439Y-115044999D01*
X119095620Y-115047659D01*
X119035446Y-115012150D01*
X119004023Y-114949745D01*
X119002681Y-114940416D01*
X118995674Y-114873744D01*
X118937179Y-114693716D01*
X118842533Y-114529784D01*
X118715871Y-114389112D01*
X118687500Y-114368499D01*
X118562734Y-114277851D01*
X118562729Y-114277848D01*
X118389807Y-114200857D01*
X118389802Y-114200855D01*
X118244001Y-114169865D01*
X118204646Y-114161500D01*
X118015354Y-114161500D01*
X117982897Y-114168398D01*
X117830197Y-114200855D01*
X117830192Y-114200857D01*
X117657270Y-114277848D01*
X117657265Y-114277851D01*
X117504129Y-114389111D01*
X117377466Y-114529785D01*
X117282821Y-114693715D01*
X117282818Y-114693722D01*
X117224327Y-114873740D01*
X117224326Y-114873744D01*
X117204540Y-115062000D01*
X88107500Y-115062000D01*
X88107500Y-104980494D01*
X92519981Y-104980494D01*
X92519981Y-104980505D01*
X92538821Y-105207883D01*
X92538823Y-105207891D01*
X92594835Y-105429077D01*
X92686489Y-105638029D01*
X92811287Y-105829048D01*
X92965819Y-105996913D01*
X92965830Y-105996924D01*
X93140208Y-106132647D01*
X93181021Y-106189357D01*
X93184696Y-106259130D01*
X93150064Y-106319813D01*
X93140208Y-106328353D01*
X92965830Y-106464075D01*
X92965819Y-106464086D01*
X92811287Y-106631951D01*
X92686489Y-106822970D01*
X92594835Y-107031922D01*
X92538823Y-107253108D01*
X92538821Y-107253116D01*
X92519981Y-107480494D01*
X92519981Y-107480505D01*
X92538821Y-107707883D01*
X92538823Y-107707891D01*
X92594835Y-107929077D01*
X92686489Y-108138029D01*
X92811287Y-108329048D01*
X92965819Y-108496913D01*
X92965830Y-108496924D01*
X93140208Y-108632647D01*
X93181021Y-108689357D01*
X93184696Y-108759130D01*
X93150064Y-108819813D01*
X93140208Y-108828353D01*
X92965830Y-108964075D01*
X92965819Y-108964086D01*
X92811287Y-109131951D01*
X92686489Y-109322970D01*
X92594835Y-109531922D01*
X92538823Y-109753108D01*
X92538821Y-109753116D01*
X92519981Y-109980494D01*
X92519981Y-109980505D01*
X92538821Y-110207883D01*
X92538823Y-110207891D01*
X92594835Y-110429077D01*
X92686489Y-110638029D01*
X92811287Y-110829048D01*
X92906446Y-110932417D01*
X92965823Y-110996917D01*
X93068715Y-111077001D01*
X93140615Y-111132962D01*
X93181428Y-111189673D01*
X93185103Y-111259446D01*
X93150472Y-111320129D01*
X93140616Y-111328669D01*
X93119589Y-111345034D01*
X93119589Y-111345036D01*
X93675212Y-111900659D01*
X93606730Y-111929025D01*
X93504807Y-111997128D01*
X93418128Y-112083807D01*
X93350025Y-112185730D01*
X93321659Y-112254212D01*
X92767435Y-111699988D01*
X92686931Y-111823210D01*
X92686929Y-111823214D01*
X92595309Y-112032084D01*
X92539317Y-112253195D01*
X92520483Y-112480494D01*
X92520483Y-112480505D01*
X92539317Y-112707804D01*
X92595309Y-112928915D01*
X92686931Y-113137790D01*
X92767434Y-113261010D01*
X93321658Y-112706787D01*
X93350025Y-112775270D01*
X93418128Y-112877193D01*
X93504807Y-112963872D01*
X93606730Y-113031975D01*
X93675211Y-113060340D01*
X93119588Y-113615962D01*
X93119589Y-113615963D01*
X93146151Y-113636637D01*
X93146152Y-113636639D01*
X93346750Y-113745198D01*
X93346755Y-113745200D01*
X93562476Y-113819257D01*
X93787458Y-113856800D01*
X94015542Y-113856800D01*
X94240523Y-113819257D01*
X94456244Y-113745200D01*
X94456249Y-113745198D01*
X94656846Y-113636639D01*
X94656849Y-113636637D01*
X94683410Y-113615963D01*
X94127787Y-113060340D01*
X94196270Y-113031975D01*
X94298193Y-112963872D01*
X94384872Y-112877193D01*
X94452975Y-112775270D01*
X94481340Y-112706788D01*
X95035563Y-113261011D01*
X95116069Y-113137787D01*
X95207690Y-112928915D01*
X95263682Y-112707804D01*
X95282517Y-112480505D01*
X95282517Y-112480494D01*
X95263682Y-112253195D01*
X95207690Y-112032084D01*
X95116068Y-111823209D01*
X95035563Y-111699987D01*
X94481340Y-112254210D01*
X94452975Y-112185730D01*
X94384872Y-112083807D01*
X94298193Y-111997128D01*
X94196270Y-111929025D01*
X94127788Y-111900659D01*
X94683410Y-111345037D01*
X94683409Y-111345035D01*
X94662382Y-111328668D01*
X94621570Y-111271957D01*
X94617897Y-111202184D01*
X94652529Y-111141501D01*
X94662371Y-111132972D01*
X94837177Y-110996917D01*
X94991713Y-110829047D01*
X95116510Y-110638030D01*
X95208164Y-110429078D01*
X95264177Y-110207891D01*
X95267524Y-110167500D01*
X95283019Y-109980505D01*
X95283019Y-109980494D01*
X95264178Y-109753116D01*
X95264177Y-109753113D01*
X95264177Y-109753109D01*
X95208164Y-109531922D01*
X95116510Y-109322970D01*
X94991713Y-109131953D01*
X94991712Y-109131951D01*
X94837180Y-108964086D01*
X94837176Y-108964082D01*
X94662791Y-108828354D01*
X94621978Y-108771643D01*
X94618303Y-108701870D01*
X94652934Y-108641187D01*
X94662791Y-108632646D01*
X94837177Y-108496917D01*
X94991713Y-108329047D01*
X95116510Y-108138030D01*
X95208164Y-107929078D01*
X95264177Y-107707891D01*
X95269522Y-107643391D01*
X95283019Y-107480505D01*
X95283019Y-107480494D01*
X95279829Y-107441996D01*
X111970435Y-107441996D01*
X111970435Y-107442003D01*
X111990630Y-107621249D01*
X111990631Y-107621254D01*
X112050211Y-107791523D01*
X112096115Y-107864578D01*
X112146184Y-107944262D01*
X112273738Y-108071816D01*
X112426478Y-108167789D01*
X112596745Y-108227368D01*
X112596750Y-108227369D01*
X112775996Y-108247565D01*
X112776000Y-108247565D01*
X112776004Y-108247565D01*
X112955249Y-108227369D01*
X112955252Y-108227368D01*
X112955255Y-108227368D01*
X113125522Y-108167789D01*
X113278262Y-108071816D01*
X113405816Y-107944262D01*
X113501789Y-107791522D01*
X113561368Y-107621255D01*
X113581565Y-107442000D01*
X113578636Y-107416005D01*
X113561369Y-107262750D01*
X113561368Y-107262745D01*
X113501788Y-107092476D01*
X113423211Y-106967422D01*
X113405816Y-106939738D01*
X113278262Y-106812184D01*
X113192777Y-106758470D01*
X113125523Y-106716211D01*
X112955254Y-106656631D01*
X112955249Y-106656630D01*
X112776004Y-106636435D01*
X112775996Y-106636435D01*
X112596750Y-106656630D01*
X112596745Y-106656631D01*
X112426476Y-106716211D01*
X112273737Y-106812184D01*
X112146184Y-106939737D01*
X112050211Y-107092476D01*
X111990631Y-107262745D01*
X111990630Y-107262750D01*
X111970435Y-107441996D01*
X95279829Y-107441996D01*
X95264178Y-107253116D01*
X95264177Y-107253113D01*
X95264177Y-107253109D01*
X95208164Y-107031922D01*
X95116510Y-106822970D01*
X95007835Y-106656630D01*
X94991712Y-106631951D01*
X94837180Y-106464086D01*
X94837176Y-106464082D01*
X94662791Y-106328354D01*
X94621978Y-106271643D01*
X94618303Y-106201870D01*
X94652934Y-106141187D01*
X94662791Y-106132646D01*
X94708281Y-106097240D01*
X94837177Y-105996917D01*
X94991713Y-105829047D01*
X95116510Y-105638030D01*
X95208164Y-105429078D01*
X95264177Y-105207891D01*
X95272536Y-105107016D01*
X95272538Y-105106986D01*
X118600501Y-105106986D01*
X118610994Y-105209697D01*
X118666141Y-105376119D01*
X118666143Y-105376124D01*
X118758184Y-105525345D01*
X118882154Y-105649315D01*
X119031375Y-105741356D01*
X119031380Y-105741358D01*
X119197802Y-105796505D01*
X119197809Y-105796506D01*
X119300519Y-105806999D01*
X119437999Y-105806999D01*
X119438000Y-105806998D01*
X119438000Y-104832000D01*
X118600501Y-104832000D01*
X118600501Y-105106986D01*
X95272538Y-105106986D01*
X95283019Y-104980505D01*
X95283019Y-104980494D01*
X95264178Y-104753116D01*
X95264177Y-104753113D01*
X95264177Y-104753109D01*
X95208164Y-104531922D01*
X95116510Y-104322970D01*
X95041594Y-104208302D01*
X94991712Y-104131951D01*
X94922726Y-104057013D01*
X118600500Y-104057013D01*
X118600500Y-104332000D01*
X119438000Y-104332000D01*
X119438000Y-103357000D01*
X119300527Y-103357000D01*
X119300512Y-103357001D01*
X119197802Y-103367494D01*
X119031380Y-103422641D01*
X119031375Y-103422643D01*
X118882154Y-103514684D01*
X118758184Y-103638654D01*
X118666143Y-103787875D01*
X118666141Y-103787880D01*
X118610994Y-103954302D01*
X118610993Y-103954309D01*
X118600500Y-104057013D01*
X94922726Y-104057013D01*
X94837180Y-103964086D01*
X94837176Y-103964082D01*
X94689880Y-103849438D01*
X94657119Y-103823939D01*
X94456450Y-103715342D01*
X94456442Y-103715339D01*
X94240645Y-103641255D01*
X94015585Y-103603700D01*
X93787415Y-103603700D01*
X93562354Y-103641255D01*
X93346557Y-103715339D01*
X93346549Y-103715342D01*
X93145879Y-103823940D01*
X92965823Y-103964082D01*
X92965819Y-103964086D01*
X92811287Y-104131951D01*
X92686489Y-104322970D01*
X92594835Y-104531922D01*
X92538823Y-104753108D01*
X92538821Y-104753116D01*
X92519981Y-104980494D01*
X88107500Y-104980494D01*
X88107500Y-102713456D01*
X108314540Y-102713456D01*
X108334326Y-102901712D01*
X108334327Y-102901715D01*
X108392818Y-103081733D01*
X108392821Y-103081740D01*
X108487467Y-103245672D01*
X108597156Y-103367494D01*
X108614129Y-103386344D01*
X108767265Y-103497604D01*
X108767270Y-103497607D01*
X108940192Y-103574598D01*
X108940197Y-103574600D01*
X109125354Y-103613956D01*
X109125355Y-103613956D01*
X109314644Y-103613956D01*
X109314646Y-103613956D01*
X109499803Y-103574600D01*
X109672730Y-103497607D01*
X109825871Y-103386344D01*
X109952533Y-103245672D01*
X110047179Y-103081740D01*
X110105674Y-102901712D01*
X110125460Y-102713456D01*
X110105674Y-102525200D01*
X110047179Y-102345172D01*
X109952533Y-102181240D01*
X109825871Y-102040568D01*
X109825870Y-102040567D01*
X109672734Y-101929307D01*
X109672729Y-101929304D01*
X109499807Y-101852313D01*
X109499802Y-101852311D01*
X109354001Y-101821321D01*
X109314646Y-101812956D01*
X109125354Y-101812956D01*
X109092897Y-101819854D01*
X108940197Y-101852311D01*
X108940192Y-101852313D01*
X108767270Y-101929304D01*
X108767265Y-101929307D01*
X108614129Y-102040567D01*
X108487466Y-102181241D01*
X108392821Y-102345171D01*
X108392818Y-102345178D01*
X108334327Y-102525196D01*
X108334326Y-102525200D01*
X108314540Y-102713456D01*
X88107500Y-102713456D01*
X88107500Y-99822000D01*
X106680000Y-99822000D01*
X116586000Y-99822000D01*
X116586000Y-97452983D01*
X118897000Y-97452983D01*
X118897000Y-98503001D01*
X118897001Y-98503019D01*
X118907500Y-98605796D01*
X118907501Y-98605799D01*
X118962685Y-98772331D01*
X118962687Y-98772336D01*
X118997569Y-98828888D01*
X119054788Y-98921656D01*
X119178844Y-99045712D01*
X119225596Y-99074548D01*
X119272320Y-99126494D01*
X119284500Y-99180087D01*
X119284500Y-99273393D01*
X119278431Y-99311710D01*
X119256326Y-99379744D01*
X119236540Y-99568000D01*
X119256326Y-99756256D01*
X119256327Y-99756259D01*
X119314818Y-99936277D01*
X119314821Y-99936284D01*
X119409467Y-100100216D01*
X119536129Y-100240888D01*
X119689265Y-100352148D01*
X119689270Y-100352151D01*
X119862191Y-100429142D01*
X119862193Y-100429142D01*
X119862197Y-100429144D01*
X120017130Y-100462075D01*
X120078607Y-100495266D01*
X120079026Y-100495683D01*
X121183181Y-101599838D01*
X121216666Y-101661161D01*
X121219500Y-101687519D01*
X121219500Y-102254608D01*
X121199815Y-102321647D01*
X121187656Y-102337574D01*
X121187468Y-102337782D01*
X121187464Y-102337787D01*
X121092821Y-102501715D01*
X121092818Y-102501722D01*
X121053823Y-102621738D01*
X121034326Y-102681744D01*
X121024580Y-102774476D01*
X121014540Y-102870000D01*
X121030912Y-103025778D01*
X121034326Y-103058256D01*
X121056431Y-103126289D01*
X121062500Y-103164605D01*
X121062500Y-103379911D01*
X121042815Y-103446950D01*
X121003598Y-103485449D01*
X120956844Y-103514287D01*
X120832788Y-103638343D01*
X120832783Y-103638349D01*
X120830741Y-103641661D01*
X120828747Y-103643453D01*
X120828307Y-103644011D01*
X120828211Y-103643935D01*
X120778791Y-103688383D01*
X120709828Y-103699602D01*
X120645747Y-103671755D01*
X120619668Y-103641656D01*
X120617819Y-103638659D01*
X120617816Y-103638655D01*
X120493845Y-103514684D01*
X120344624Y-103422643D01*
X120344619Y-103422641D01*
X120178197Y-103367494D01*
X120178190Y-103367493D01*
X120075486Y-103357000D01*
X119938000Y-103357000D01*
X119938000Y-105806999D01*
X120075472Y-105806999D01*
X120075486Y-105806998D01*
X120178197Y-105796505D01*
X120344619Y-105741358D01*
X120344624Y-105741356D01*
X120493845Y-105649315D01*
X120617818Y-105525342D01*
X120619665Y-105522348D01*
X120621469Y-105520724D01*
X120622298Y-105519677D01*
X120622476Y-105519818D01*
X120671610Y-105475621D01*
X120740573Y-105464396D01*
X120804656Y-105492236D01*
X120830743Y-105522341D01*
X120832788Y-105525656D01*
X120956844Y-105649712D01*
X121106166Y-105741814D01*
X121272703Y-105796999D01*
X121375491Y-105807500D01*
X122150508Y-105807499D01*
X122150516Y-105807498D01*
X122150519Y-105807498D01*
X122206802Y-105801748D01*
X122253297Y-105796999D01*
X122419834Y-105741814D01*
X122569156Y-105649712D01*
X122693212Y-105525656D01*
X122785314Y-105376334D01*
X122790400Y-105360986D01*
X124485501Y-105360986D01*
X124495994Y-105463697D01*
X124551141Y-105630119D01*
X124551143Y-105630124D01*
X124643184Y-105779345D01*
X124767154Y-105903315D01*
X124916375Y-105995356D01*
X124916380Y-105995358D01*
X125082802Y-106050505D01*
X125082809Y-106050506D01*
X125185519Y-106060999D01*
X125322999Y-106060999D01*
X125323000Y-106060998D01*
X125323000Y-105086000D01*
X124485501Y-105086000D01*
X124485501Y-105360986D01*
X122790400Y-105360986D01*
X122840499Y-105209797D01*
X122851000Y-105107009D01*
X122850999Y-104311013D01*
X124485500Y-104311013D01*
X124485500Y-104586000D01*
X125323000Y-104586000D01*
X125323000Y-103611000D01*
X125185527Y-103611000D01*
X125185512Y-103611001D01*
X125082802Y-103621494D01*
X124916380Y-103676641D01*
X124916375Y-103676643D01*
X124767154Y-103768684D01*
X124643184Y-103892654D01*
X124551143Y-104041875D01*
X124551141Y-104041880D01*
X124495994Y-104208302D01*
X124495993Y-104208309D01*
X124485500Y-104311013D01*
X122850999Y-104311013D01*
X122850999Y-104056992D01*
X122849433Y-104041666D01*
X122840499Y-103954203D01*
X122840498Y-103954200D01*
X122835958Y-103940499D01*
X122785314Y-103787666D01*
X122693212Y-103638344D01*
X122676761Y-103621893D01*
X122643276Y-103560570D01*
X122648260Y-103490878D01*
X122690132Y-103434945D01*
X122695553Y-103431109D01*
X122708226Y-103422641D01*
X122720988Y-103414114D01*
X124655615Y-101479486D01*
X125775001Y-101479486D01*
X125785494Y-101582197D01*
X125840641Y-101748619D01*
X125840643Y-101748624D01*
X125932684Y-101897845D01*
X126056654Y-102021815D01*
X126205875Y-102113856D01*
X126205880Y-102113858D01*
X126372302Y-102169005D01*
X126372309Y-102169006D01*
X126475019Y-102179499D01*
X126822140Y-102179499D01*
X126889179Y-102199183D01*
X126934934Y-102251987D01*
X126944878Y-102321146D01*
X126915853Y-102384701D01*
X126888113Y-102408492D01*
X126751740Y-102494182D01*
X126751737Y-102494184D01*
X126624184Y-102621737D01*
X126528211Y-102774476D01*
X126468631Y-102944745D01*
X126468630Y-102944750D01*
X126448435Y-103123996D01*
X126448435Y-103124003D01*
X126468630Y-103303249D01*
X126468631Y-103303254D01*
X126528211Y-103473523D01*
X126624184Y-103626262D01*
X126716345Y-103718423D01*
X126749830Y-103779746D01*
X126744846Y-103849438D01*
X126721375Y-103885963D01*
X126722272Y-103886672D01*
X126717787Y-103892344D01*
X126715741Y-103895662D01*
X126713746Y-103897455D01*
X126713314Y-103898003D01*
X126713220Y-103897928D01*
X126663791Y-103942384D01*
X126594828Y-103953603D01*
X126530747Y-103925756D01*
X126504665Y-103895652D01*
X126502818Y-103892657D01*
X126378845Y-103768684D01*
X126229624Y-103676643D01*
X126229619Y-103676641D01*
X126063197Y-103621494D01*
X126063190Y-103621493D01*
X125960486Y-103611000D01*
X125823000Y-103611000D01*
X125823000Y-106060999D01*
X125960472Y-106060999D01*
X125960486Y-106060998D01*
X126063197Y-106050505D01*
X126229619Y-105995358D01*
X126229624Y-105995356D01*
X126378845Y-105903315D01*
X126502818Y-105779342D01*
X126504665Y-105776348D01*
X126506469Y-105774724D01*
X126507298Y-105773677D01*
X126507476Y-105773818D01*
X126556610Y-105729621D01*
X126625573Y-105718396D01*
X126689656Y-105746236D01*
X126715743Y-105776341D01*
X126717788Y-105779656D01*
X126841844Y-105903712D01*
X126991166Y-105995814D01*
X127157703Y-106050999D01*
X127260491Y-106061500D01*
X128035508Y-106061499D01*
X128035516Y-106061498D01*
X128035519Y-106061498D01*
X128091802Y-106055748D01*
X128138297Y-106050999D01*
X128304834Y-105995814D01*
X128454156Y-105903712D01*
X128578212Y-105779656D01*
X128670314Y-105630334D01*
X128725499Y-105463797D01*
X128736000Y-105361009D01*
X128735999Y-104310992D01*
X128725499Y-104208203D01*
X128670314Y-104041666D01*
X128578212Y-103892344D01*
X128454156Y-103768288D01*
X128357402Y-103708610D01*
X128310679Y-103656663D01*
X128298500Y-103603072D01*
X128298500Y-103453928D01*
X128273502Y-103328261D01*
X128273501Y-103328260D01*
X128273501Y-103328256D01*
X128224465Y-103209873D01*
X128224464Y-103209872D01*
X128224461Y-103209866D01*
X128153277Y-103103332D01*
X128131678Y-103081733D01*
X128075720Y-103025775D01*
X128042237Y-102964455D01*
X128040182Y-102951973D01*
X128039368Y-102944745D01*
X127979789Y-102774478D01*
X127883816Y-102621738D01*
X127756262Y-102494184D01*
X127718829Y-102470663D01*
X127597626Y-102394506D01*
X127598965Y-102392374D01*
X127565329Y-102362000D01*
X134730540Y-102362000D01*
X134750326Y-102550256D01*
X134750327Y-102550259D01*
X134808818Y-102730277D01*
X134808821Y-102730284D01*
X134903467Y-102894216D01*
X135021926Y-103025778D01*
X135030129Y-103034888D01*
X135183265Y-103146148D01*
X135183270Y-103146151D01*
X135356192Y-103223142D01*
X135356197Y-103223144D01*
X135541354Y-103262500D01*
X135541355Y-103262500D01*
X135730644Y-103262500D01*
X135730646Y-103262500D01*
X135915803Y-103223144D01*
X136088730Y-103146151D01*
X136241871Y-103034888D01*
X136368533Y-102894216D01*
X136463179Y-102730284D01*
X136521674Y-102550256D01*
X136541460Y-102362000D01*
X136521674Y-102173744D01*
X136463179Y-101993716D01*
X136368533Y-101829784D01*
X136241871Y-101689112D01*
X136241870Y-101689111D01*
X136088734Y-101577851D01*
X136088729Y-101577848D01*
X135915807Y-101500857D01*
X135915802Y-101500855D01*
X135770001Y-101469865D01*
X135730646Y-101461500D01*
X135541354Y-101461500D01*
X135508897Y-101468398D01*
X135356197Y-101500855D01*
X135356192Y-101500857D01*
X135183270Y-101577848D01*
X135183265Y-101577851D01*
X135030129Y-101689111D01*
X134903466Y-101829785D01*
X134808821Y-101993715D01*
X134808818Y-101993722D01*
X134751865Y-102169006D01*
X134750326Y-102173744D01*
X134730540Y-102362000D01*
X127565329Y-102362000D01*
X127555753Y-102353353D01*
X127537444Y-102285925D01*
X127558496Y-102219302D01*
X127612225Y-102174637D01*
X127622414Y-102170756D01*
X127794119Y-102113858D01*
X127794124Y-102113856D01*
X127943345Y-102021815D01*
X128067315Y-101897845D01*
X128159356Y-101748624D01*
X128159358Y-101748619D01*
X128214505Y-101582197D01*
X128214506Y-101582190D01*
X128224999Y-101479486D01*
X128225000Y-101479473D01*
X128225000Y-101346000D01*
X139048540Y-101346000D01*
X139068326Y-101534256D01*
X139068327Y-101534259D01*
X139126818Y-101714277D01*
X139126821Y-101714284D01*
X139221467Y-101878216D01*
X139348129Y-102018888D01*
X139501265Y-102130148D01*
X139501270Y-102130151D01*
X139674192Y-102207142D01*
X139674197Y-102207144D01*
X139859354Y-102246500D01*
X139859355Y-102246500D01*
X140048644Y-102246500D01*
X140048646Y-102246500D01*
X140233803Y-102207144D01*
X140406730Y-102130151D01*
X140559871Y-102018888D01*
X140686533Y-101878216D01*
X140781179Y-101714284D01*
X140839674Y-101534256D01*
X140859460Y-101346000D01*
X140839674Y-101157744D01*
X140781179Y-100977716D01*
X140686533Y-100813784D01*
X140559871Y-100673112D01*
X140552360Y-100667655D01*
X140406734Y-100561851D01*
X140406729Y-100561848D01*
X140233807Y-100484857D01*
X140233802Y-100484855D01*
X140088001Y-100453865D01*
X140048646Y-100445500D01*
X139859354Y-100445500D01*
X139826897Y-100452398D01*
X139674197Y-100484855D01*
X139674192Y-100484857D01*
X139501270Y-100561848D01*
X139501265Y-100561851D01*
X139348129Y-100673111D01*
X139221466Y-100813785D01*
X139126821Y-100977715D01*
X139126818Y-100977722D01*
X139073548Y-101141672D01*
X139068326Y-101157744D01*
X139048540Y-101346000D01*
X128225000Y-101346000D01*
X128225000Y-101342000D01*
X125775001Y-101342000D01*
X125775001Y-101479486D01*
X124655615Y-101479486D01*
X125567728Y-100567372D01*
X125629049Y-100533889D01*
X125698740Y-100538873D01*
X125754674Y-100580745D01*
X125779091Y-100646209D01*
X125778765Y-100667655D01*
X125775001Y-100704506D01*
X125775000Y-100704526D01*
X125775000Y-100842000D01*
X128224999Y-100842000D01*
X128224999Y-100704528D01*
X128224998Y-100704513D01*
X128214505Y-100601802D01*
X128159358Y-100435380D01*
X128159356Y-100435375D01*
X128067315Y-100286154D01*
X127943344Y-100162183D01*
X127943341Y-100162181D01*
X127940339Y-100160329D01*
X127938713Y-100158521D01*
X127937677Y-100157702D01*
X127937817Y-100157524D01*
X127893617Y-100108380D01*
X127882397Y-100039417D01*
X127910243Y-99975336D01*
X127940344Y-99949254D01*
X127943656Y-99947212D01*
X128067712Y-99823156D01*
X128159814Y-99673834D01*
X128214999Y-99507297D01*
X128225500Y-99404509D01*
X128225499Y-98974938D01*
X128245183Y-98907900D01*
X128261813Y-98887263D01*
X130046259Y-97102819D01*
X130107582Y-97069334D01*
X130133940Y-97066500D01*
X131433947Y-97066500D01*
X131500986Y-97086185D01*
X131512607Y-97094643D01*
X131521462Y-97101910D01*
X131521463Y-97101910D01*
X131521465Y-97101912D01*
X131521467Y-97101913D01*
X131695266Y-97194811D01*
X131695269Y-97194811D01*
X131695273Y-97194814D01*
X131883868Y-97252024D01*
X132080000Y-97271341D01*
X132276132Y-97252024D01*
X132464727Y-97194814D01*
X132485193Y-97183875D01*
X132603448Y-97120666D01*
X132638538Y-97101910D01*
X132647387Y-97094647D01*
X132711696Y-97067334D01*
X132726053Y-97066500D01*
X136292013Y-97066500D01*
X136359052Y-97086185D01*
X136404807Y-97138989D01*
X136414751Y-97208147D01*
X136385726Y-97271703D01*
X136332968Y-97307541D01*
X136302480Y-97318209D01*
X136149737Y-97414184D01*
X136022184Y-97541737D01*
X135926211Y-97694476D01*
X135866631Y-97864745D01*
X135866630Y-97864750D01*
X135846435Y-98043996D01*
X135846435Y-98044003D01*
X135866630Y-98223249D01*
X135866631Y-98223254D01*
X135926211Y-98393523D01*
X136019757Y-98542400D01*
X136022184Y-98546262D01*
X136149738Y-98673816D01*
X136187455Y-98697515D01*
X136297620Y-98766737D01*
X136302478Y-98769789D01*
X136410987Y-98807758D01*
X136472745Y-98829368D01*
X136472750Y-98829369D01*
X136651996Y-98849565D01*
X136652000Y-98849565D01*
X136652004Y-98849565D01*
X136831249Y-98829369D01*
X136831252Y-98829368D01*
X136831255Y-98829368D01*
X137001522Y-98769789D01*
X137154262Y-98673816D01*
X137281816Y-98546262D01*
X137377789Y-98393522D01*
X137411215Y-98297996D01*
X142196435Y-98297996D01*
X142196435Y-98298003D01*
X142216630Y-98477249D01*
X142216631Y-98477254D01*
X142276211Y-98647523D01*
X142354504Y-98772124D01*
X142372184Y-98800262D01*
X142499738Y-98927816D01*
X142652478Y-99023789D01*
X142786396Y-99070649D01*
X142822745Y-99083368D01*
X142822750Y-99083369D01*
X143001996Y-99103565D01*
X143002000Y-99103565D01*
X143002004Y-99103565D01*
X143181249Y-99083369D01*
X143181252Y-99083368D01*
X143181255Y-99083368D01*
X143351522Y-99023789D01*
X143504262Y-98927816D01*
X143631816Y-98800262D01*
X143727789Y-98647522D01*
X143787368Y-98477255D01*
X143787860Y-98472887D01*
X143807565Y-98298003D01*
X143807565Y-98297996D01*
X143787369Y-98118750D01*
X143787368Y-98118745D01*
X143761215Y-98044003D01*
X143727789Y-97948478D01*
X143722148Y-97939501D01*
X143631815Y-97795737D01*
X143504262Y-97668184D01*
X143351523Y-97572211D01*
X143181254Y-97512631D01*
X143181249Y-97512630D01*
X143002004Y-97492435D01*
X143001996Y-97492435D01*
X142822750Y-97512630D01*
X142822745Y-97512631D01*
X142652476Y-97572211D01*
X142499737Y-97668184D01*
X142372184Y-97795737D01*
X142276211Y-97948476D01*
X142216631Y-98118745D01*
X142216630Y-98118750D01*
X142196435Y-98297996D01*
X137411215Y-98297996D01*
X137437368Y-98223255D01*
X137437914Y-98218409D01*
X137457565Y-98044003D01*
X137457565Y-98043996D01*
X137437369Y-97864750D01*
X137437368Y-97864745D01*
X137413221Y-97795737D01*
X137377789Y-97694478D01*
X137361267Y-97668184D01*
X137338582Y-97632080D01*
X137281816Y-97541738D01*
X137154262Y-97414184D01*
X137064701Y-97357909D01*
X137001519Y-97318209D01*
X136971032Y-97307541D01*
X136914256Y-97266820D01*
X136888509Y-97201867D01*
X136901965Y-97133305D01*
X136950353Y-97082903D01*
X137011987Y-97066500D01*
X151101505Y-97066500D01*
X151168544Y-97086185D01*
X151189186Y-97102819D01*
X151563241Y-97476874D01*
X151563158Y-97476956D01*
X151570044Y-97483841D01*
X151570127Y-97483759D01*
X154627352Y-100540986D01*
X154627356Y-100540989D01*
X154758459Y-100628590D01*
X154758463Y-100628592D01*
X154758466Y-100628594D01*
X154904148Y-100688938D01*
X155058798Y-100719699D01*
X155058802Y-100719700D01*
X155058803Y-100719700D01*
X155216488Y-100719700D01*
X155877158Y-100719700D01*
X157147158Y-100719700D01*
X159879368Y-100719700D01*
X159946407Y-100739385D01*
X159973616Y-100764245D01*
X159973911Y-100763974D01*
X159977045Y-100767379D01*
X159977225Y-100767543D01*
X159977380Y-100767743D01*
X160131917Y-100935614D01*
X160131925Y-100935622D01*
X160219258Y-101003594D01*
X160260072Y-101060304D01*
X160267097Y-101101448D01*
X160267097Y-101185463D01*
X160247412Y-101252502D01*
X160230778Y-101273144D01*
X159200741Y-102303181D01*
X159139418Y-102336666D01*
X159113060Y-102339500D01*
X158338231Y-102339500D01*
X158271192Y-102319815D01*
X158250550Y-102303182D01*
X158199355Y-102251987D01*
X158144656Y-102197288D01*
X158009394Y-102113858D01*
X157995336Y-102105187D01*
X157995331Y-102105185D01*
X157993862Y-102104698D01*
X157828797Y-102050001D01*
X157828795Y-102050000D01*
X157726010Y-102039500D01*
X156725998Y-102039500D01*
X156725980Y-102039501D01*
X156623203Y-102050000D01*
X156623200Y-102050001D01*
X156456668Y-102105185D01*
X156456663Y-102105187D01*
X156307342Y-102197289D01*
X156183289Y-102321342D01*
X156091187Y-102470663D01*
X156091185Y-102470668D01*
X156073115Y-102525200D01*
X156036001Y-102637203D01*
X156036001Y-102637204D01*
X156036000Y-102637204D01*
X156025500Y-102739983D01*
X156025500Y-103540001D01*
X156025501Y-103540019D01*
X156036000Y-103642796D01*
X156036001Y-103642799D01*
X156084075Y-103787875D01*
X156091186Y-103809334D01*
X156180602Y-103954302D01*
X156183289Y-103958657D01*
X156276951Y-104052319D01*
X156310436Y-104113642D01*
X156305452Y-104183334D01*
X156276951Y-104227681D01*
X156183289Y-104321342D01*
X156091187Y-104470663D01*
X156091186Y-104470666D01*
X156036001Y-104637203D01*
X156036001Y-104637204D01*
X156036000Y-104637204D01*
X156025500Y-104739983D01*
X156025500Y-105540001D01*
X156025501Y-105540019D01*
X156036000Y-105642796D01*
X156036001Y-105642799D01*
X156091185Y-105809331D01*
X156091187Y-105809336D01*
X156115901Y-105849403D01*
X156183288Y-105958656D01*
X156307344Y-106082712D01*
X156456666Y-106174814D01*
X156623203Y-106229999D01*
X156725991Y-106240500D01*
X157726008Y-106240499D01*
X157726016Y-106240498D01*
X157726019Y-106240498D01*
X157823892Y-106230500D01*
X157828797Y-106229999D01*
X157995334Y-106174814D01*
X158144656Y-106082712D01*
X158268712Y-105958656D01*
X158336099Y-105849402D01*
X158388047Y-105802679D01*
X158441638Y-105790500D01*
X158536192Y-105790500D01*
X158603231Y-105810185D01*
X158623873Y-105826819D01*
X159764014Y-106966960D01*
X159797499Y-107028283D01*
X159796539Y-107085080D01*
X159770324Y-107188601D01*
X159770321Y-107188616D01*
X159751481Y-107415994D01*
X159751481Y-107416005D01*
X159770321Y-107643383D01*
X159770323Y-107643391D01*
X159826335Y-107864577D01*
X159917989Y-108073529D01*
X160042787Y-108264548D01*
X160197319Y-108432413D01*
X160197330Y-108432424D01*
X160371708Y-108568147D01*
X160412521Y-108624857D01*
X160416196Y-108694630D01*
X160381564Y-108755313D01*
X160371708Y-108763853D01*
X160197330Y-108899575D01*
X160197319Y-108899586D01*
X160042787Y-109067451D01*
X159917989Y-109258470D01*
X159826335Y-109467422D01*
X159770323Y-109688608D01*
X159770321Y-109688616D01*
X159751481Y-109915994D01*
X159751481Y-109916005D01*
X159770321Y-110143383D01*
X159770323Y-110143394D01*
X159796539Y-110246917D01*
X159793914Y-110316737D01*
X159764014Y-110365038D01*
X159547871Y-110581182D01*
X159486551Y-110614666D01*
X159460192Y-110617500D01*
X157171638Y-110617500D01*
X157104599Y-110597815D01*
X157066099Y-110558597D01*
X156998712Y-110449344D01*
X156874656Y-110325288D01*
X156725334Y-110233186D01*
X156558797Y-110178001D01*
X156558795Y-110178000D01*
X156456010Y-110167500D01*
X155455998Y-110167500D01*
X155455980Y-110167501D01*
X155353203Y-110178000D01*
X155353200Y-110178001D01*
X155186668Y-110233185D01*
X155186663Y-110233187D01*
X155037342Y-110325289D01*
X154913289Y-110449342D01*
X154821187Y-110598663D01*
X154821186Y-110598666D01*
X154766001Y-110765203D01*
X154766001Y-110765204D01*
X154766000Y-110765204D01*
X154755500Y-110867983D01*
X154755500Y-111668001D01*
X154755501Y-111668019D01*
X154766000Y-111770796D01*
X154766001Y-111770799D01*
X154821185Y-111937331D01*
X154821187Y-111937336D01*
X154913289Y-112086657D01*
X155006951Y-112180319D01*
X155040436Y-112241642D01*
X155035452Y-112311334D01*
X155006951Y-112355681D01*
X154913289Y-112449342D01*
X154821187Y-112598663D01*
X154821185Y-112598668D01*
X154810147Y-112631978D01*
X154766001Y-112765203D01*
X154766001Y-112765204D01*
X154766000Y-112765204D01*
X154755500Y-112867983D01*
X154755500Y-113668001D01*
X154755501Y-113668019D01*
X154766000Y-113770796D01*
X154766001Y-113770799D01*
X154814945Y-113918500D01*
X154821186Y-113937334D01*
X154913288Y-114086656D01*
X155037344Y-114210712D01*
X155186666Y-114302814D01*
X155353203Y-114357999D01*
X155455991Y-114368500D01*
X156456008Y-114368499D01*
X156456016Y-114368498D01*
X156456019Y-114368498D01*
X156512302Y-114362748D01*
X156558797Y-114357999D01*
X156725334Y-114302814D01*
X156874656Y-114210712D01*
X156998712Y-114086656D01*
X157066099Y-113977402D01*
X157118047Y-113930679D01*
X157171638Y-113918500D01*
X159164192Y-113918500D01*
X159231231Y-113938185D01*
X159251873Y-113954819D01*
X159764014Y-114466960D01*
X159797499Y-114528283D01*
X159796539Y-114585080D01*
X159770324Y-114688601D01*
X159770321Y-114688616D01*
X159751481Y-114915994D01*
X159751481Y-114916005D01*
X159770321Y-115143383D01*
X159770323Y-115143391D01*
X159826335Y-115364577D01*
X159917989Y-115573529D01*
X160042787Y-115764548D01*
X160197319Y-115932413D01*
X160197323Y-115932417D01*
X160377381Y-116072561D01*
X160578050Y-116181158D01*
X160793857Y-116255245D01*
X161018915Y-116292800D01*
X161247085Y-116292800D01*
X161472143Y-116255245D01*
X161687950Y-116181158D01*
X161888619Y-116072561D01*
X162068677Y-115932417D01*
X162223213Y-115764547D01*
X162348010Y-115573530D01*
X162439664Y-115364578D01*
X162495677Y-115143391D01*
X162495678Y-115143383D01*
X162514519Y-114916005D01*
X162514519Y-114915994D01*
X162495678Y-114688616D01*
X162495677Y-114688613D01*
X162495677Y-114688609D01*
X162439664Y-114467422D01*
X162348010Y-114258470D01*
X162310369Y-114200856D01*
X162223212Y-114067451D01*
X162068680Y-113899586D01*
X162068676Y-113899582D01*
X161903212Y-113770797D01*
X161893883Y-113763536D01*
X161853071Y-113706826D01*
X161849396Y-113637053D01*
X161884027Y-113576370D01*
X161893880Y-113567832D01*
X161914909Y-113551462D01*
X161359287Y-112995840D01*
X161427770Y-112967475D01*
X161529693Y-112899372D01*
X161616372Y-112812693D01*
X161684475Y-112710770D01*
X161712840Y-112642288D01*
X162267063Y-113196511D01*
X162347569Y-113073287D01*
X162439190Y-112864415D01*
X162495182Y-112643304D01*
X162514017Y-112416005D01*
X162514017Y-112415994D01*
X162495182Y-112188695D01*
X162439190Y-111967584D01*
X162347568Y-111758709D01*
X162267063Y-111635487D01*
X161712840Y-112189710D01*
X161684475Y-112121230D01*
X161616372Y-112019307D01*
X161529693Y-111932628D01*
X161427770Y-111864525D01*
X161359287Y-111836158D01*
X161914910Y-111280536D01*
X161914909Y-111280535D01*
X161893882Y-111264168D01*
X161853070Y-111207457D01*
X161849397Y-111137684D01*
X161884029Y-111077001D01*
X161893871Y-111068472D01*
X162068677Y-110932417D01*
X162223213Y-110764547D01*
X162348010Y-110573530D01*
X162439664Y-110364578D01*
X162495677Y-110143391D01*
X162509174Y-109980505D01*
X162514519Y-109916005D01*
X162514519Y-109915994D01*
X162495678Y-109688616D01*
X162495677Y-109688613D01*
X162495677Y-109688609D01*
X162439664Y-109467422D01*
X162348010Y-109258470D01*
X162265353Y-109131953D01*
X162223212Y-109067451D01*
X162068680Y-108899586D01*
X162068676Y-108899582D01*
X161966188Y-108819813D01*
X161894290Y-108763853D01*
X161853478Y-108707143D01*
X161849803Y-108637370D01*
X161884434Y-108576687D01*
X161894291Y-108568146D01*
X162068677Y-108432417D01*
X162223213Y-108264547D01*
X162348010Y-108073530D01*
X162439664Y-107864578D01*
X162495677Y-107643391D01*
X162495678Y-107643383D01*
X162514519Y-107416005D01*
X162514519Y-107415994D01*
X162495678Y-107188616D01*
X162495677Y-107188613D01*
X162495677Y-107188609D01*
X162439664Y-106967422D01*
X162348010Y-106758470D01*
X162265353Y-106631953D01*
X162223212Y-106567451D01*
X162068680Y-106399586D01*
X162068676Y-106399582D01*
X161888620Y-106259440D01*
X161888619Y-106259439D01*
X161687950Y-106150842D01*
X161687942Y-106150839D01*
X161472145Y-106076755D01*
X161247085Y-106039200D01*
X161018915Y-106039200D01*
X160788798Y-106077599D01*
X160788418Y-106075326D01*
X160728194Y-106072968D01*
X160680076Y-106043130D01*
X159271674Y-104634727D01*
X159271673Y-104634726D01*
X159271669Y-104634723D01*
X159165127Y-104563535D01*
X159046744Y-104514499D01*
X159046738Y-104514497D01*
X158921071Y-104489500D01*
X158921069Y-104489500D01*
X158441638Y-104489500D01*
X158374599Y-104469815D01*
X158336099Y-104430597D01*
X158268712Y-104321344D01*
X158175049Y-104227681D01*
X158141564Y-104166358D01*
X158146548Y-104096666D01*
X158175047Y-104052320D01*
X158250550Y-103976818D01*
X158311874Y-103943334D01*
X158338231Y-103940500D01*
X159574844Y-103940500D01*
X159574845Y-103940499D01*
X159729497Y-103909737D01*
X159875179Y-103849394D01*
X160006289Y-103761789D01*
X161689386Y-102078692D01*
X161776991Y-101947582D01*
X161837334Y-101801900D01*
X161868097Y-101647245D01*
X161868097Y-101489560D01*
X161868097Y-101101448D01*
X161887782Y-101034409D01*
X161915936Y-101003594D01*
X162003268Y-100935622D01*
X162003269Y-100935620D01*
X162003274Y-100935617D01*
X162157810Y-100767747D01*
X162282607Y-100576730D01*
X162374261Y-100367778D01*
X162430274Y-100146591D01*
X162430275Y-100146583D01*
X162449116Y-99919205D01*
X162449116Y-99919194D01*
X162430275Y-99691816D01*
X162430274Y-99691813D01*
X162430274Y-99691809D01*
X162374261Y-99470622D01*
X162282607Y-99261670D01*
X162237420Y-99192506D01*
X162157809Y-99070651D01*
X162003277Y-98902786D01*
X162003273Y-98902782D01*
X161828481Y-98766737D01*
X161787668Y-98710026D01*
X161783993Y-98640253D01*
X161818624Y-98579570D01*
X161828477Y-98571032D01*
X161849506Y-98554662D01*
X161293884Y-97999040D01*
X161362367Y-97970675D01*
X161464290Y-97902572D01*
X161550969Y-97815893D01*
X161619072Y-97713970D01*
X161647437Y-97645488D01*
X162201660Y-98199711D01*
X162282166Y-98076487D01*
X162373787Y-97867615D01*
X162429779Y-97646504D01*
X162448614Y-97419205D01*
X162448614Y-97419194D01*
X162429779Y-97191895D01*
X162373787Y-96970784D01*
X162282165Y-96761909D01*
X162201660Y-96638687D01*
X161647437Y-97192910D01*
X161619072Y-97124430D01*
X161550969Y-97022507D01*
X161464290Y-96935828D01*
X161362367Y-96867725D01*
X161293884Y-96839359D01*
X161849507Y-96283736D01*
X161849506Y-96283735D01*
X161828479Y-96267368D01*
X161787667Y-96210657D01*
X161783994Y-96140884D01*
X161818626Y-96080201D01*
X161828468Y-96071672D01*
X162003274Y-95935617D01*
X162157810Y-95767747D01*
X162282607Y-95576730D01*
X162374261Y-95367778D01*
X162430274Y-95146591D01*
X162430862Y-95139500D01*
X162449116Y-94919205D01*
X162449116Y-94919194D01*
X162430275Y-94691816D01*
X162430274Y-94691813D01*
X162430274Y-94691809D01*
X162374261Y-94470622D01*
X162282607Y-94261670D01*
X162157810Y-94070653D01*
X162157809Y-94070651D01*
X162003277Y-93902786D01*
X162003273Y-93902782D01*
X161828888Y-93767054D01*
X161788075Y-93710343D01*
X161784400Y-93640570D01*
X161819031Y-93579887D01*
X161828888Y-93571346D01*
X162003274Y-93435617D01*
X162157810Y-93267747D01*
X162282607Y-93076730D01*
X162374261Y-92867778D01*
X162430274Y-92646591D01*
X162439714Y-92532666D01*
X162449116Y-92419205D01*
X162449116Y-92419194D01*
X162430275Y-92191816D01*
X162430274Y-92191813D01*
X162430274Y-92191809D01*
X162374261Y-91970622D01*
X162282607Y-91761670D01*
X162245450Y-91704796D01*
X162157809Y-91570651D01*
X162003277Y-91402786D01*
X162003273Y-91402782D01*
X161823217Y-91262640D01*
X161823216Y-91262639D01*
X161622547Y-91154042D01*
X161622539Y-91154039D01*
X161406742Y-91079955D01*
X161181682Y-91042400D01*
X160953512Y-91042400D01*
X160723395Y-91080799D01*
X160723015Y-91078526D01*
X160662791Y-91076168D01*
X160614673Y-91046330D01*
X160265071Y-90696727D01*
X160265070Y-90696726D01*
X160265066Y-90696723D01*
X160158524Y-90625535D01*
X160040141Y-90576499D01*
X160040135Y-90576497D01*
X159914468Y-90551500D01*
X159914466Y-90551500D01*
X157171638Y-90551500D01*
X157104599Y-90531815D01*
X157066099Y-90492597D01*
X156998712Y-90383344D01*
X156874656Y-90259288D01*
X156725334Y-90167186D01*
X156558797Y-90112001D01*
X156558795Y-90112000D01*
X156456010Y-90101500D01*
X155455998Y-90101500D01*
X155455980Y-90101501D01*
X155353203Y-90112000D01*
X155353200Y-90112001D01*
X155186668Y-90167185D01*
X155186663Y-90167187D01*
X155037342Y-90259289D01*
X154913289Y-90383342D01*
X154821187Y-90532663D01*
X154821186Y-90532666D01*
X154766001Y-90699203D01*
X154766001Y-90699204D01*
X154766000Y-90699204D01*
X154755500Y-90801983D01*
X154755500Y-91602001D01*
X154755501Y-91602019D01*
X154766000Y-91704796D01*
X154766001Y-91704799D01*
X154814945Y-91852500D01*
X154821186Y-91871334D01*
X154912872Y-92019982D01*
X154913289Y-92020657D01*
X155006951Y-92114319D01*
X155040436Y-92175642D01*
X155035452Y-92245334D01*
X155006951Y-92289681D01*
X154913289Y-92383342D01*
X154821187Y-92532663D01*
X154821186Y-92532666D01*
X154766001Y-92699203D01*
X154766001Y-92699204D01*
X154766000Y-92699204D01*
X154755500Y-92801983D01*
X154755500Y-92981059D01*
X154735815Y-93048098D01*
X154719181Y-93068740D01*
X152155996Y-95631924D01*
X152094673Y-95665409D01*
X152024981Y-95660425D01*
X151999423Y-95647344D01*
X151982720Y-95636183D01*
X151982720Y-95636182D01*
X151863626Y-95556607D01*
X151863624Y-95556606D01*
X151820954Y-95538931D01*
X151717944Y-95496263D01*
X151717945Y-95496263D01*
X151717942Y-95496262D01*
X151717938Y-95496261D01*
X151717934Y-95496260D01*
X151563291Y-95465500D01*
X151563287Y-95465500D01*
X132726053Y-95465500D01*
X132659014Y-95445815D01*
X132647392Y-95437356D01*
X132638538Y-95430090D01*
X132638537Y-95430089D01*
X132638534Y-95430087D01*
X132638532Y-95430086D01*
X132464733Y-95337188D01*
X132464727Y-95337186D01*
X132299956Y-95287203D01*
X132276129Y-95279975D01*
X132080000Y-95260659D01*
X131883870Y-95279975D01*
X131695266Y-95337188D01*
X131521467Y-95430086D01*
X131521465Y-95430087D01*
X131517276Y-95433525D01*
X131512612Y-95437352D01*
X131448304Y-95464666D01*
X131433947Y-95465500D01*
X129672153Y-95465500D01*
X129517510Y-95496260D01*
X129517502Y-95496262D01*
X129371824Y-95556604D01*
X129371814Y-95556609D01*
X129240711Y-95644210D01*
X129240707Y-95644213D01*
X126992239Y-97892681D01*
X126930916Y-97926166D01*
X126904558Y-97929000D01*
X126474998Y-97929000D01*
X126474980Y-97929001D01*
X126372203Y-97939500D01*
X126372200Y-97939501D01*
X126205668Y-97994685D01*
X126205663Y-97994687D01*
X126056342Y-98086789D01*
X125932289Y-98210842D01*
X125846487Y-98349950D01*
X125799406Y-98394208D01*
X125795642Y-98396219D01*
X125680899Y-98472887D01*
X125680898Y-98472888D01*
X122827059Y-101326728D01*
X122765736Y-101360213D01*
X122696044Y-101355229D01*
X122640111Y-101313357D01*
X122617761Y-101263238D01*
X122593580Y-101141672D01*
X122576919Y-101101448D01*
X122540777Y-101014192D01*
X122464112Y-100899454D01*
X122464111Y-100899453D01*
X121068503Y-99503846D01*
X121035018Y-99442523D01*
X121032865Y-99429143D01*
X121027674Y-99379744D01*
X120969179Y-99199716D01*
X120895223Y-99071620D01*
X120878750Y-99003719D01*
X120901603Y-98937693D01*
X120914937Y-98921931D01*
X120914937Y-98921930D01*
X120915212Y-98921656D01*
X120917252Y-98918347D01*
X120919245Y-98916554D01*
X120919690Y-98915993D01*
X120919785Y-98916068D01*
X120969194Y-98871623D01*
X121038156Y-98860395D01*
X121102240Y-98888234D01*
X121128329Y-98918339D01*
X121130181Y-98921341D01*
X121130183Y-98921344D01*
X121254154Y-99045315D01*
X121403375Y-99137356D01*
X121403380Y-99137358D01*
X121569802Y-99192505D01*
X121569809Y-99192506D01*
X121672519Y-99202999D01*
X121809999Y-99202999D01*
X122310000Y-99202999D01*
X122447472Y-99202999D01*
X122447486Y-99202998D01*
X122550197Y-99192505D01*
X122716619Y-99137358D01*
X122716624Y-99137356D01*
X122865845Y-99045315D01*
X122989815Y-98921345D01*
X123081856Y-98772124D01*
X123081858Y-98772119D01*
X123137005Y-98605697D01*
X123137006Y-98605690D01*
X123147499Y-98502986D01*
X123147500Y-98502973D01*
X123147500Y-98228000D01*
X122310000Y-98228000D01*
X122310000Y-99202999D01*
X121809999Y-99202999D01*
X121810000Y-99202998D01*
X121810000Y-97728000D01*
X122310000Y-97728000D01*
X123147499Y-97728000D01*
X123147499Y-97453028D01*
X123147498Y-97453013D01*
X123137005Y-97350302D01*
X123081858Y-97183880D01*
X123081856Y-97183875D01*
X122989815Y-97034654D01*
X122865845Y-96910684D01*
X122716624Y-96818643D01*
X122716619Y-96818641D01*
X122550197Y-96763494D01*
X122550190Y-96763493D01*
X122447486Y-96753000D01*
X122310000Y-96753000D01*
X122310000Y-97728000D01*
X121810000Y-97728000D01*
X121810000Y-96753000D01*
X121672527Y-96753000D01*
X121672512Y-96753001D01*
X121569802Y-96763494D01*
X121403380Y-96818641D01*
X121403375Y-96818643D01*
X121254154Y-96910684D01*
X121130183Y-97034655D01*
X121130179Y-97034660D01*
X121128326Y-97037665D01*
X121126518Y-97039290D01*
X121125702Y-97040323D01*
X121125525Y-97040183D01*
X121076374Y-97084385D01*
X121007411Y-97095601D01*
X120943331Y-97067752D01*
X120917253Y-97037653D01*
X120917237Y-97037628D01*
X120915212Y-97034344D01*
X120791156Y-96910288D01*
X120666393Y-96833334D01*
X120641836Y-96818187D01*
X120641831Y-96818185D01*
X120636317Y-96816358D01*
X120475297Y-96763001D01*
X120475295Y-96763000D01*
X120372510Y-96752500D01*
X119597498Y-96752500D01*
X119597480Y-96752501D01*
X119494703Y-96763000D01*
X119494700Y-96763001D01*
X119328168Y-96818185D01*
X119328163Y-96818187D01*
X119178842Y-96910289D01*
X119054789Y-97034342D01*
X118962687Y-97183663D01*
X118962685Y-97183668D01*
X118962615Y-97183880D01*
X118907501Y-97350203D01*
X118907501Y-97350204D01*
X118907500Y-97350204D01*
X118897000Y-97452983D01*
X116586000Y-97452983D01*
X116586000Y-92456000D01*
X106680000Y-92456000D01*
X106680000Y-99822000D01*
X88107500Y-99822000D01*
X88107500Y-88772996D01*
X119463435Y-88772996D01*
X119463435Y-88773003D01*
X119483630Y-88952249D01*
X119483631Y-88952254D01*
X119543211Y-89122523D01*
X119639184Y-89275262D01*
X119766738Y-89402816D01*
X119919478Y-89498789D01*
X120089745Y-89558368D01*
X120089750Y-89558369D01*
X120268996Y-89578565D01*
X120269000Y-89578565D01*
X120269004Y-89578565D01*
X120448249Y-89558369D01*
X120448252Y-89558368D01*
X120448255Y-89558368D01*
X120618522Y-89498789D01*
X120771262Y-89402816D01*
X120898816Y-89275262D01*
X120994789Y-89122522D01*
X121054368Y-88952255D01*
X121074565Y-88773000D01*
X121054368Y-88593745D01*
X120994789Y-88423478D01*
X120898816Y-88270738D01*
X120771262Y-88143184D01*
X120618523Y-88047211D01*
X120448254Y-87987631D01*
X120448249Y-87987630D01*
X120269004Y-87967435D01*
X120268996Y-87967435D01*
X120089750Y-87987630D01*
X120089745Y-87987631D01*
X119919476Y-88047211D01*
X119766737Y-88143184D01*
X119639184Y-88270737D01*
X119543211Y-88423476D01*
X119483631Y-88593745D01*
X119483630Y-88593750D01*
X119463435Y-88772996D01*
X88107500Y-88772996D01*
X88107500Y-85597996D01*
X124670435Y-85597996D01*
X124670435Y-85598003D01*
X124690630Y-85777249D01*
X124690631Y-85777254D01*
X124750211Y-85947523D01*
X124846184Y-86100262D01*
X124973738Y-86227816D01*
X125126478Y-86323789D01*
X125296745Y-86383368D01*
X125296750Y-86383369D01*
X125475996Y-86403565D01*
X125476000Y-86403565D01*
X125476004Y-86403565D01*
X125655249Y-86383369D01*
X125655252Y-86383368D01*
X125655255Y-86383368D01*
X125825522Y-86323789D01*
X125978262Y-86227816D01*
X126105816Y-86100262D01*
X126201789Y-85947522D01*
X126261368Y-85777255D01*
X126281565Y-85598000D01*
X126261368Y-85418745D01*
X126201789Y-85248478D01*
X126105816Y-85095738D01*
X125978262Y-84968184D01*
X125825523Y-84872211D01*
X125655254Y-84812631D01*
X125655249Y-84812630D01*
X125476004Y-84792435D01*
X125475996Y-84792435D01*
X125296750Y-84812630D01*
X125296745Y-84812631D01*
X125126476Y-84872211D01*
X124973737Y-84968184D01*
X124846184Y-85095737D01*
X124750211Y-85248476D01*
X124690631Y-85418745D01*
X124690630Y-85418750D01*
X124670435Y-85597996D01*
X88107500Y-85597996D01*
X88107500Y-78739996D01*
X145498435Y-78739996D01*
X145498435Y-78740003D01*
X145518630Y-78919249D01*
X145518631Y-78919254D01*
X145578211Y-79089523D01*
X145649823Y-79203492D01*
X145674184Y-79242262D01*
X145801738Y-79369816D01*
X145954478Y-79465789D01*
X146124745Y-79525368D01*
X146124750Y-79525369D01*
X146303996Y-79545565D01*
X146304000Y-79545565D01*
X146304004Y-79545565D01*
X146483249Y-79525369D01*
X146483252Y-79525368D01*
X146483255Y-79525368D01*
X146653522Y-79465789D01*
X146779700Y-79386505D01*
X146845672Y-79367500D01*
X149802719Y-79367500D01*
X149869758Y-79387185D01*
X149890400Y-79403819D01*
X153944589Y-83458008D01*
X154031992Y-83545411D01*
X154031993Y-83545412D01*
X154134760Y-83614079D01*
X154134773Y-83614086D01*
X154248960Y-83661383D01*
X154248965Y-83661385D01*
X154248969Y-83661385D01*
X154248970Y-83661386D01*
X154370194Y-83685500D01*
X154370197Y-83685500D01*
X160081804Y-83685500D01*
X160081805Y-83685499D01*
X160203035Y-83661386D01*
X160283784Y-83627937D01*
X160317233Y-83614083D01*
X160420008Y-83545411D01*
X160507411Y-83458008D01*
X161298600Y-82666817D01*
X161359923Y-82633333D01*
X161386281Y-82630499D01*
X162448002Y-82630499D01*
X162448008Y-82630499D01*
X162550797Y-82619999D01*
X162717334Y-82564814D01*
X162866656Y-82472712D01*
X162990712Y-82348656D01*
X163082814Y-82199334D01*
X163137999Y-82032797D01*
X163148500Y-81930009D01*
X163148499Y-80629992D01*
X163137999Y-80527203D01*
X163082814Y-80360666D01*
X162990712Y-80211344D01*
X162866656Y-80087288D01*
X162717334Y-79995186D01*
X162644966Y-79971205D01*
X162587522Y-79931433D01*
X162560699Y-79866917D01*
X162560585Y-79856137D01*
X161927409Y-79222962D01*
X161990993Y-79205925D01*
X162105007Y-79140099D01*
X162198099Y-79047007D01*
X162263925Y-78932993D01*
X162280962Y-78869410D01*
X162912925Y-79501373D01*
X162912926Y-79501373D01*
X162971598Y-79417582D01*
X162971600Y-79417578D01*
X163071429Y-79203492D01*
X163071433Y-79203483D01*
X163132567Y-78975326D01*
X163132569Y-78975315D01*
X163153157Y-78740001D01*
X163153157Y-78739998D01*
X163132569Y-78504684D01*
X163132567Y-78504673D01*
X163071433Y-78276516D01*
X163071429Y-78276507D01*
X162971600Y-78062423D01*
X162971599Y-78062421D01*
X162912925Y-77978626D01*
X162912925Y-77978625D01*
X162280962Y-78610589D01*
X162263925Y-78547007D01*
X162198099Y-78432993D01*
X162105007Y-78339901D01*
X161990993Y-78274075D01*
X161927410Y-78257037D01*
X162559373Y-77625073D01*
X162559373Y-77625072D01*
X162483405Y-77571880D01*
X162439780Y-77517304D01*
X162432586Y-77447805D01*
X162464108Y-77385451D01*
X162483399Y-77368734D01*
X162669401Y-77238495D01*
X162836495Y-77071401D01*
X162972035Y-76877830D01*
X163071903Y-76663663D01*
X163133063Y-76435408D01*
X163153659Y-76200000D01*
X163133063Y-75964592D01*
X163071903Y-75736337D01*
X162972035Y-75522171D01*
X162969632Y-75518738D01*
X162836494Y-75328597D01*
X162669402Y-75161506D01*
X162669396Y-75161501D01*
X162483842Y-75031575D01*
X162440217Y-74976998D01*
X162433023Y-74907500D01*
X162464546Y-74845145D01*
X162483842Y-74828425D01*
X162506026Y-74812891D01*
X162669401Y-74698495D01*
X162836495Y-74531401D01*
X162972035Y-74337830D01*
X163071903Y-74123663D01*
X163133063Y-73895408D01*
X163153659Y-73660000D01*
X163133063Y-73424592D01*
X163071903Y-73196337D01*
X162972035Y-72982171D01*
X162966425Y-72974158D01*
X162836494Y-72788597D01*
X162669402Y-72621506D01*
X162669396Y-72621501D01*
X162483842Y-72491575D01*
X162440217Y-72436998D01*
X162433023Y-72367500D01*
X162464546Y-72305145D01*
X162483842Y-72288425D01*
X162565106Y-72231523D01*
X162669401Y-72158495D01*
X162836495Y-71991401D01*
X162972035Y-71797830D01*
X163071903Y-71583663D01*
X163133063Y-71355408D01*
X163153659Y-71120000D01*
X163133063Y-70884592D01*
X163071903Y-70656337D01*
X162972035Y-70442171D01*
X162966425Y-70434158D01*
X162836494Y-70248597D01*
X162669402Y-70081506D01*
X162669395Y-70081501D01*
X162475834Y-69945967D01*
X162475830Y-69945965D01*
X162475828Y-69945964D01*
X162261663Y-69846097D01*
X162261659Y-69846096D01*
X162261655Y-69846094D01*
X162033413Y-69784938D01*
X162033403Y-69784936D01*
X161798001Y-69764341D01*
X161797999Y-69764341D01*
X161562596Y-69784936D01*
X161562586Y-69784938D01*
X161334344Y-69846094D01*
X161334335Y-69846098D01*
X161120171Y-69945964D01*
X161120169Y-69945965D01*
X160926597Y-70081505D01*
X160759505Y-70248597D01*
X160629575Y-70434158D01*
X160574998Y-70477783D01*
X160505500Y-70484977D01*
X160443145Y-70453454D01*
X160426425Y-70434158D01*
X160296494Y-70248597D01*
X160129402Y-70081506D01*
X160129395Y-70081501D01*
X159935834Y-69945967D01*
X159935830Y-69945965D01*
X159935828Y-69945964D01*
X159721663Y-69846097D01*
X159721659Y-69846096D01*
X159721655Y-69846094D01*
X159493413Y-69784938D01*
X159493403Y-69784936D01*
X159258001Y-69764341D01*
X159257999Y-69764341D01*
X159022596Y-69784936D01*
X159022586Y-69784938D01*
X158794344Y-69846094D01*
X158794335Y-69846098D01*
X158580171Y-69945964D01*
X158580169Y-69945965D01*
X158386597Y-70081505D01*
X158219505Y-70248597D01*
X158083965Y-70442169D01*
X158083964Y-70442171D01*
X157984098Y-70656335D01*
X157984094Y-70656344D01*
X157922938Y-70884586D01*
X157922936Y-70884596D01*
X157902341Y-71119999D01*
X157902341Y-71120000D01*
X157922936Y-71355403D01*
X157922938Y-71355413D01*
X157984094Y-71583655D01*
X157984096Y-71583659D01*
X157984097Y-71583663D01*
X158063105Y-71753095D01*
X158083965Y-71797830D01*
X158083967Y-71797834D01*
X158192281Y-71952521D01*
X158219501Y-71991396D01*
X158219506Y-71991402D01*
X158386597Y-72158493D01*
X158386603Y-72158498D01*
X158572158Y-72288425D01*
X158615783Y-72343002D01*
X158622977Y-72412500D01*
X158591454Y-72474855D01*
X158572158Y-72491575D01*
X158386597Y-72621505D01*
X158219505Y-72788597D01*
X158083965Y-72982169D01*
X158083964Y-72982171D01*
X157984098Y-73196335D01*
X157984094Y-73196344D01*
X157922938Y-73424586D01*
X157922936Y-73424596D01*
X157902341Y-73659999D01*
X157902341Y-73660000D01*
X157922936Y-73895403D01*
X157922938Y-73895413D01*
X157984094Y-74123655D01*
X157984096Y-74123659D01*
X157984097Y-74123663D01*
X158040051Y-74243656D01*
X158083965Y-74337830D01*
X158083967Y-74337834D01*
X158164109Y-74452288D01*
X158219501Y-74531396D01*
X158219506Y-74531402D01*
X158386597Y-74698493D01*
X158386603Y-74698498D01*
X158572158Y-74828425D01*
X158615783Y-74883002D01*
X158622977Y-74952500D01*
X158591454Y-75014855D01*
X158572158Y-75031575D01*
X158386597Y-75161505D01*
X158219505Y-75328597D01*
X158083965Y-75522169D01*
X158083964Y-75522171D01*
X157984098Y-75736335D01*
X157984094Y-75736344D01*
X157922938Y-75964586D01*
X157922936Y-75964596D01*
X157902341Y-76199999D01*
X157902341Y-76200000D01*
X157922936Y-76435403D01*
X157922938Y-76435413D01*
X157984094Y-76663655D01*
X157984096Y-76663659D01*
X157984097Y-76663663D01*
X157984722Y-76665003D01*
X158083965Y-76877830D01*
X158083967Y-76877834D01*
X158192281Y-77032521D01*
X158219505Y-77071401D01*
X158386599Y-77238495D01*
X158572594Y-77368730D01*
X158616218Y-77423307D01*
X158623411Y-77492806D01*
X158591889Y-77555160D01*
X158572593Y-77571880D01*
X158496626Y-77625072D01*
X158496625Y-77625072D01*
X159128590Y-78257037D01*
X159065007Y-78274075D01*
X158950993Y-78339901D01*
X158857901Y-78432993D01*
X158792075Y-78547007D01*
X158775037Y-78610589D01*
X158143073Y-77978625D01*
X158143072Y-77978625D01*
X158084401Y-78062419D01*
X157984570Y-78276507D01*
X157984566Y-78276516D01*
X157923432Y-78504673D01*
X157923430Y-78504684D01*
X157902843Y-78739998D01*
X157902843Y-78740001D01*
X157923430Y-78975315D01*
X157923432Y-78975326D01*
X157984566Y-79203483D01*
X157984570Y-79203492D01*
X158084400Y-79417579D01*
X158084402Y-79417583D01*
X158143072Y-79501373D01*
X158143073Y-79501373D01*
X158775037Y-78869409D01*
X158792075Y-78932993D01*
X158857901Y-79047007D01*
X158950993Y-79140099D01*
X159065007Y-79205925D01*
X159128590Y-79222962D01*
X158496625Y-79854925D01*
X158572594Y-79908119D01*
X158616219Y-79962696D01*
X158623413Y-80032194D01*
X158591890Y-80094549D01*
X158572595Y-80111269D01*
X158386594Y-80241508D01*
X158219505Y-80408597D01*
X158083965Y-80602169D01*
X158083964Y-80602171D01*
X157984098Y-80816335D01*
X157984094Y-80816344D01*
X157922938Y-81044586D01*
X157922936Y-81044596D01*
X157902341Y-81279999D01*
X157902341Y-81280000D01*
X157922936Y-81515403D01*
X157922938Y-81515413D01*
X157984094Y-81743655D01*
X157984096Y-81743659D01*
X157984097Y-81743663D01*
X158070992Y-81930009D01*
X158083965Y-81957830D01*
X158083967Y-81957834D01*
X158219501Y-82151395D01*
X158219506Y-82151402D01*
X158286923Y-82218819D01*
X158320408Y-82280142D01*
X158315424Y-82349834D01*
X158273552Y-82405767D01*
X158208088Y-82430184D01*
X158199242Y-82430500D01*
X154743281Y-82430500D01*
X154676242Y-82410815D01*
X154655600Y-82394181D01*
X150514011Y-78252591D01*
X150514010Y-78252590D01*
X150491783Y-78237739D01*
X150491782Y-78237738D01*
X150411238Y-78183920D01*
X150411229Y-78183915D01*
X150370734Y-78167142D01*
X150370732Y-78167141D01*
X150297035Y-78136614D01*
X150297027Y-78136612D01*
X150175807Y-78112500D01*
X150175803Y-78112500D01*
X146845672Y-78112500D01*
X146779700Y-78093494D01*
X146653523Y-78014211D01*
X146483254Y-77954631D01*
X146483249Y-77954630D01*
X146304004Y-77934435D01*
X146303996Y-77934435D01*
X146124750Y-77954630D01*
X146124745Y-77954631D01*
X145954476Y-78014211D01*
X145801737Y-78110184D01*
X145674184Y-78237737D01*
X145578211Y-78390476D01*
X145518631Y-78560745D01*
X145518630Y-78560750D01*
X145498435Y-78739996D01*
X88107500Y-78739996D01*
X88107500Y-75708986D01*
X118292501Y-75708986D01*
X118302994Y-75811697D01*
X118358141Y-75978119D01*
X118358143Y-75978124D01*
X118450184Y-76127345D01*
X118574154Y-76251315D01*
X118723375Y-76343356D01*
X118723380Y-76343358D01*
X118889802Y-76398505D01*
X118889809Y-76398506D01*
X118992519Y-76408999D01*
X119129999Y-76408999D01*
X119130000Y-76408998D01*
X119130000Y-75434000D01*
X118292501Y-75434000D01*
X118292501Y-75708986D01*
X88107500Y-75708986D01*
X88107500Y-73726496D01*
X117558435Y-73726496D01*
X117558435Y-73726503D01*
X117578630Y-73905749D01*
X117578631Y-73905754D01*
X117638211Y-74076023D01*
X117723877Y-74212358D01*
X117734184Y-74228762D01*
X117861738Y-74356316D01*
X117914814Y-74389666D01*
X118008455Y-74448505D01*
X118014478Y-74452289D01*
X118128797Y-74492291D01*
X118184745Y-74511868D01*
X118191532Y-74513417D01*
X118191224Y-74514765D01*
X118248589Y-74538860D01*
X118288152Y-74596449D01*
X118293664Y-74647621D01*
X118292500Y-74659015D01*
X118292500Y-74934000D01*
X119130000Y-74934000D01*
X119130000Y-74123723D01*
X119149685Y-74056684D01*
X119150872Y-74054870D01*
X119172311Y-74022786D01*
X119198732Y-73959000D01*
X119630000Y-73959000D01*
X119630000Y-76408999D01*
X119767472Y-76408999D01*
X119767486Y-76408998D01*
X119870197Y-76398505D01*
X120036619Y-76343358D01*
X120036624Y-76343356D01*
X120185845Y-76251315D01*
X120309818Y-76127342D01*
X120311665Y-76124348D01*
X120313469Y-76122724D01*
X120314298Y-76121677D01*
X120314476Y-76121818D01*
X120363610Y-76077621D01*
X120432573Y-76066396D01*
X120496656Y-76094236D01*
X120522743Y-76124341D01*
X120524788Y-76127656D01*
X120648844Y-76251712D01*
X120648846Y-76251713D01*
X120654508Y-76256190D01*
X120653651Y-76257272D01*
X120695134Y-76303386D01*
X120706359Y-76372348D01*
X120700357Y-76397938D01*
X120669631Y-76485745D01*
X120669630Y-76485750D01*
X120649435Y-76664996D01*
X120649435Y-76665003D01*
X120669630Y-76844249D01*
X120669631Y-76844254D01*
X120729211Y-77014523D01*
X120764947Y-77071396D01*
X120825184Y-77167262D01*
X120952738Y-77294816D01*
X121017800Y-77335697D01*
X121097937Y-77386051D01*
X121105478Y-77390789D01*
X121198409Y-77423307D01*
X121275745Y-77450368D01*
X121275750Y-77450369D01*
X121454996Y-77470565D01*
X121455000Y-77470565D01*
X121455004Y-77470565D01*
X121634249Y-77450369D01*
X121634252Y-77450368D01*
X121634255Y-77450368D01*
X121804522Y-77390789D01*
X121957262Y-77294816D01*
X122019092Y-77232986D01*
X123605001Y-77232986D01*
X123615494Y-77335697D01*
X123670641Y-77502119D01*
X123670643Y-77502124D01*
X123762684Y-77651345D01*
X123886654Y-77775315D01*
X124035875Y-77867356D01*
X124035880Y-77867358D01*
X124202302Y-77922505D01*
X124202309Y-77922506D01*
X124305019Y-77932999D01*
X124442499Y-77932999D01*
X124442500Y-77932998D01*
X124442500Y-76958000D01*
X123605001Y-76958000D01*
X123605001Y-77232986D01*
X122019092Y-77232986D01*
X122084816Y-77167262D01*
X122180789Y-77014522D01*
X122240368Y-76844255D01*
X122240598Y-76842217D01*
X122260565Y-76665003D01*
X122260565Y-76664996D01*
X122240369Y-76485750D01*
X122240367Y-76485740D01*
X122222754Y-76435408D01*
X122209642Y-76397937D01*
X122206080Y-76328161D01*
X122240808Y-76267534D01*
X122256982Y-76255012D01*
X122261154Y-76251713D01*
X122261153Y-76251713D01*
X122261156Y-76251712D01*
X122385212Y-76127656D01*
X122477314Y-75978334D01*
X122496811Y-75919493D01*
X122536584Y-75862051D01*
X122601100Y-75835228D01*
X122614517Y-75834500D01*
X122684932Y-75834500D01*
X122750904Y-75853506D01*
X122840477Y-75909789D01*
X122840481Y-75909790D01*
X123010737Y-75969366D01*
X123010743Y-75969367D01*
X123010745Y-75969368D01*
X123010746Y-75969368D01*
X123010750Y-75969369D01*
X123189996Y-75989565D01*
X123190000Y-75989565D01*
X123190004Y-75989565D01*
X123369249Y-75969369D01*
X123369252Y-75969368D01*
X123369255Y-75969368D01*
X123369256Y-75969367D01*
X123369259Y-75969367D01*
X123452435Y-75940262D01*
X123452669Y-75940179D01*
X123522448Y-75936617D01*
X123583076Y-75971346D01*
X123615303Y-76033339D01*
X123614964Y-76073444D01*
X123616182Y-76073569D01*
X123605000Y-76183013D01*
X123605000Y-76458000D01*
X124442500Y-76458000D01*
X124442500Y-75483000D01*
X124305027Y-75483000D01*
X124305012Y-75483001D01*
X124202301Y-75493494D01*
X124133364Y-75516337D01*
X124063535Y-75518738D01*
X124003494Y-75483006D01*
X123972302Y-75420485D01*
X123976312Y-75370616D01*
X123973818Y-75370047D01*
X123975369Y-75363249D01*
X123995957Y-75180520D01*
X124023023Y-75116106D01*
X124080618Y-75076551D01*
X124135733Y-75073246D01*
X124135866Y-75071903D01*
X124141929Y-75072500D01*
X124141931Y-75072500D01*
X124270069Y-75072500D01*
X128645041Y-75072500D01*
X128712080Y-75092185D01*
X128757835Y-75144989D01*
X128767779Y-75214147D01*
X128762083Y-75237449D01*
X128758475Y-75247761D01*
X128754632Y-75258743D01*
X128754630Y-75258752D01*
X128753815Y-75265988D01*
X128726743Y-75330400D01*
X128718277Y-75339775D01*
X128036873Y-76021181D01*
X127975550Y-76054666D01*
X127949192Y-76057500D01*
X127927017Y-76057500D01*
X127859978Y-76037815D01*
X127814223Y-75985011D01*
X127809311Y-75972505D01*
X127808272Y-75969369D01*
X127789814Y-75913666D01*
X127697712Y-75764344D01*
X127573656Y-75640288D01*
X127451557Y-75564977D01*
X127424336Y-75548187D01*
X127424331Y-75548185D01*
X127380081Y-75533522D01*
X127257797Y-75493001D01*
X127257795Y-75493000D01*
X127155010Y-75482500D01*
X126379998Y-75482500D01*
X126379980Y-75482501D01*
X126277203Y-75493000D01*
X126277200Y-75493001D01*
X126110668Y-75548185D01*
X126110663Y-75548187D01*
X125961342Y-75640289D01*
X125837288Y-75764343D01*
X125837283Y-75764349D01*
X125835241Y-75767661D01*
X125833247Y-75769453D01*
X125832807Y-75770011D01*
X125832711Y-75769935D01*
X125783291Y-75814383D01*
X125714328Y-75825602D01*
X125650247Y-75797755D01*
X125624168Y-75767656D01*
X125622319Y-75764659D01*
X125622316Y-75764655D01*
X125498345Y-75640684D01*
X125349124Y-75548643D01*
X125349119Y-75548641D01*
X125182697Y-75493494D01*
X125182690Y-75493493D01*
X125079986Y-75483000D01*
X124942500Y-75483000D01*
X124942500Y-77932999D01*
X125079972Y-77932999D01*
X125079986Y-77932998D01*
X125182697Y-77922505D01*
X125349119Y-77867358D01*
X125349124Y-77867356D01*
X125498345Y-77775315D01*
X125622318Y-77651342D01*
X125624165Y-77648348D01*
X125625969Y-77646724D01*
X125626798Y-77645677D01*
X125626976Y-77645818D01*
X125676110Y-77601621D01*
X125745073Y-77590396D01*
X125809156Y-77618236D01*
X125835243Y-77648341D01*
X125837288Y-77651656D01*
X125961344Y-77775712D01*
X126110666Y-77867814D01*
X126277203Y-77922999D01*
X126379991Y-77933500D01*
X127155008Y-77933499D01*
X127155016Y-77933498D01*
X127155019Y-77933498D01*
X127211302Y-77927748D01*
X127257797Y-77922999D01*
X127424334Y-77867814D01*
X127573656Y-77775712D01*
X127697712Y-77651656D01*
X127789814Y-77502334D01*
X127809311Y-77443493D01*
X127849084Y-77386051D01*
X127913600Y-77359228D01*
X127927017Y-77358500D01*
X128334071Y-77358500D01*
X128418615Y-77341682D01*
X128459744Y-77333501D01*
X128578127Y-77284465D01*
X128684669Y-77213277D01*
X129638224Y-76259720D01*
X129699545Y-76226237D01*
X129712019Y-76224183D01*
X129719255Y-76223368D01*
X129889522Y-76163789D01*
X130042262Y-76067816D01*
X130169816Y-75940262D01*
X130265789Y-75787522D01*
X130325368Y-75617255D01*
X130325369Y-75617249D01*
X130345565Y-75438003D01*
X130345565Y-75437996D01*
X130325369Y-75258750D01*
X130325367Y-75258740D01*
X130317919Y-75237456D01*
X130314356Y-75167677D01*
X130349085Y-75107049D01*
X130411078Y-75074822D01*
X130434960Y-75072500D01*
X131382071Y-75072500D01*
X131466615Y-75055682D01*
X131507744Y-75047501D01*
X131626127Y-74998465D01*
X131732669Y-74927277D01*
X133956224Y-72703720D01*
X134017545Y-72670237D01*
X134030019Y-72668183D01*
X134037255Y-72667368D01*
X134207522Y-72607789D01*
X134360262Y-72511816D01*
X134487816Y-72384262D01*
X134583789Y-72231522D01*
X134643368Y-72061255D01*
X134643369Y-72061249D01*
X134663565Y-71882003D01*
X134663565Y-71881996D01*
X134643369Y-71702750D01*
X134643368Y-71702745D01*
X134601699Y-71583663D01*
X134583789Y-71532478D01*
X134487816Y-71379738D01*
X134360262Y-71252184D01*
X134207523Y-71156211D01*
X134037254Y-71096631D01*
X134037249Y-71096630D01*
X133858004Y-71076435D01*
X133857996Y-71076435D01*
X133678750Y-71096630D01*
X133678745Y-71096631D01*
X133508476Y-71156211D01*
X133355737Y-71252184D01*
X133228184Y-71379737D01*
X133132210Y-71532478D01*
X133072632Y-71702744D01*
X133072630Y-71702752D01*
X133071815Y-71709988D01*
X133044743Y-71774400D01*
X133036277Y-71783775D01*
X131084873Y-73735181D01*
X131023550Y-73768666D01*
X130997192Y-73771500D01*
X125996829Y-73771500D01*
X125929790Y-73751815D01*
X125884035Y-73699011D01*
X125873508Y-73660461D01*
X125873460Y-73660000D01*
X125853674Y-73471744D01*
X125795179Y-73291716D01*
X125700533Y-73127784D01*
X125691913Y-73118210D01*
X125661686Y-73055218D01*
X125670313Y-72985883D01*
X125696382Y-72947563D01*
X128869127Y-69774819D01*
X128930450Y-69741334D01*
X128956808Y-69738500D01*
X130387025Y-69738500D01*
X130454064Y-69758185D01*
X130459910Y-69762182D01*
X130611265Y-69872148D01*
X130611270Y-69872151D01*
X130784192Y-69949142D01*
X130784197Y-69949144D01*
X130969354Y-69988500D01*
X130969355Y-69988500D01*
X131158644Y-69988500D01*
X131158646Y-69988500D01*
X131343803Y-69949144D01*
X131516730Y-69872151D01*
X131669871Y-69760888D01*
X131796533Y-69620216D01*
X131891179Y-69456284D01*
X131949674Y-69276256D01*
X131969460Y-69088000D01*
X131949674Y-68899744D01*
X131891179Y-68719716D01*
X131796533Y-68555784D01*
X131669871Y-68415112D01*
X131668090Y-68413818D01*
X131516734Y-68303851D01*
X131516729Y-68303848D01*
X131343807Y-68226857D01*
X131343802Y-68226855D01*
X131198001Y-68195865D01*
X131158646Y-68187500D01*
X130969354Y-68187500D01*
X130936897Y-68194398D01*
X130784197Y-68226855D01*
X130784192Y-68226857D01*
X130611270Y-68303848D01*
X130611265Y-68303851D01*
X130459910Y-68413818D01*
X130394104Y-68437298D01*
X130387025Y-68437500D01*
X128571929Y-68437500D01*
X128446261Y-68462497D01*
X128446255Y-68462499D01*
X128327870Y-68511535D01*
X128221331Y-68582722D01*
X128221324Y-68582728D01*
X124462726Y-72341326D01*
X124391534Y-72447874D01*
X124342499Y-72566255D01*
X124342497Y-72566261D01*
X124317500Y-72691928D01*
X124317500Y-72961313D01*
X124297815Y-73028352D01*
X124245011Y-73074107D01*
X124175853Y-73084051D01*
X124112297Y-73055026D01*
X124101350Y-73044285D01*
X124049870Y-72987111D01*
X123896734Y-72875851D01*
X123896729Y-72875848D01*
X123723807Y-72798857D01*
X123723802Y-72798855D01*
X123578001Y-72767865D01*
X123538646Y-72759500D01*
X123349354Y-72759500D01*
X123316897Y-72766398D01*
X123164197Y-72798855D01*
X123164192Y-72798857D01*
X122991270Y-72875848D01*
X122991265Y-72875851D01*
X122838129Y-72987111D01*
X122711466Y-73127785D01*
X122616821Y-73291715D01*
X122616818Y-73291722D01*
X122573645Y-73424596D01*
X122558326Y-73471744D01*
X122538540Y-73660000D01*
X122558326Y-73848256D01*
X122558327Y-73848259D01*
X122616818Y-74028277D01*
X122616821Y-74028284D01*
X122711464Y-74192212D01*
X122711465Y-74192214D01*
X122711467Y-74192216D01*
X122812414Y-74304329D01*
X122842643Y-74367318D01*
X122834018Y-74436653D01*
X122789277Y-74490319D01*
X122786237Y-74492291D01*
X122750906Y-74514492D01*
X122684932Y-74533500D01*
X122614517Y-74533500D01*
X122547478Y-74513815D01*
X122501723Y-74461011D01*
X122496811Y-74448505D01*
X122477314Y-74389666D01*
X122385212Y-74240344D01*
X122261156Y-74116288D01*
X122111834Y-74024186D01*
X121945297Y-73969001D01*
X121945295Y-73969000D01*
X121842510Y-73958500D01*
X121067498Y-73958500D01*
X121067480Y-73958501D01*
X120964703Y-73969000D01*
X120964700Y-73969001D01*
X120798168Y-74024185D01*
X120798163Y-74024187D01*
X120648842Y-74116289D01*
X120524788Y-74240343D01*
X120524783Y-74240349D01*
X120522741Y-74243661D01*
X120520747Y-74245453D01*
X120520307Y-74246011D01*
X120520211Y-74245935D01*
X120470791Y-74290383D01*
X120401828Y-74301602D01*
X120337747Y-74273755D01*
X120311668Y-74243656D01*
X120309819Y-74240659D01*
X120309816Y-74240655D01*
X120185845Y-74116684D01*
X120036624Y-74024643D01*
X120036619Y-74024641D01*
X119870197Y-73969494D01*
X119870190Y-73969493D01*
X119767486Y-73959000D01*
X119630000Y-73959000D01*
X119198732Y-73959000D01*
X119219463Y-73908952D01*
X119243500Y-73788106D01*
X119243500Y-73664894D01*
X119219463Y-73544048D01*
X119172311Y-73430214D01*
X119172310Y-73430213D01*
X119172307Y-73430207D01*
X119103859Y-73327768D01*
X119067806Y-73291715D01*
X119016733Y-73240642D01*
X119016729Y-73240639D01*
X119016728Y-73240638D01*
X119007264Y-73234315D01*
X118988471Y-73218893D01*
X118948400Y-73178822D01*
X118866262Y-73096684D01*
X118821961Y-73068848D01*
X118713523Y-73000711D01*
X118543254Y-72941131D01*
X118543249Y-72941130D01*
X118364004Y-72920935D01*
X118363996Y-72920935D01*
X118184750Y-72941130D01*
X118184745Y-72941131D01*
X118014476Y-73000711D01*
X117861737Y-73096684D01*
X117734184Y-73224237D01*
X117638211Y-73376976D01*
X117578631Y-73547245D01*
X117578630Y-73547250D01*
X117558435Y-73726496D01*
X88107500Y-73726496D01*
X88107500Y-48005996D01*
X104604435Y-48005996D01*
X104604435Y-48006003D01*
X104624630Y-48185249D01*
X104624631Y-48185254D01*
X104684211Y-48355523D01*
X104723769Y-48418478D01*
X104780184Y-48508262D01*
X104907738Y-48635816D01*
X105060478Y-48731789D01*
X105163952Y-48767996D01*
X105230745Y-48791368D01*
X105230750Y-48791369D01*
X105409996Y-48811565D01*
X105410000Y-48811565D01*
X105410004Y-48811565D01*
X105589249Y-48791369D01*
X105589252Y-48791368D01*
X105589255Y-48791368D01*
X105759522Y-48731789D01*
X105885700Y-48652505D01*
X105951672Y-48633500D01*
X106622719Y-48633500D01*
X106689758Y-48653185D01*
X106710400Y-48669819D01*
X106870146Y-48829565D01*
X106903631Y-48890888D01*
X106905685Y-48903361D01*
X106910630Y-48947249D01*
X106970210Y-49117521D01*
X107066184Y-49270262D01*
X107193738Y-49397816D01*
X107346478Y-49493789D01*
X107449963Y-49530000D01*
X107516745Y-49553368D01*
X107516750Y-49553369D01*
X107695996Y-49573565D01*
X107696000Y-49573565D01*
X107696004Y-49573565D01*
X107875249Y-49553369D01*
X107875252Y-49553368D01*
X107875255Y-49553368D01*
X108045522Y-49493789D01*
X108198262Y-49397816D01*
X108325816Y-49270262D01*
X108421789Y-49117522D01*
X108481368Y-48947255D01*
X108487719Y-48890888D01*
X108501565Y-48768003D01*
X108501565Y-48767996D01*
X108481369Y-48588750D01*
X108481368Y-48588745D01*
X108421788Y-48418476D01*
X108325815Y-48265737D01*
X108198262Y-48138184D01*
X108045521Y-48042210D01*
X107875249Y-47982630D01*
X107831361Y-47977685D01*
X107766948Y-47950617D01*
X107757566Y-47942146D01*
X107334010Y-47518590D01*
X107311783Y-47503739D01*
X107311782Y-47503738D01*
X107231238Y-47449920D01*
X107231229Y-47449915D01*
X107190734Y-47433142D01*
X107190732Y-47433141D01*
X107117035Y-47402614D01*
X107117027Y-47402612D01*
X106995807Y-47378500D01*
X106995803Y-47378500D01*
X105951672Y-47378500D01*
X105885700Y-47359494D01*
X105759523Y-47280211D01*
X105589254Y-47220631D01*
X105589249Y-47220630D01*
X105410004Y-47200435D01*
X105409996Y-47200435D01*
X105230750Y-47220630D01*
X105230745Y-47220631D01*
X105060476Y-47280211D01*
X104907737Y-47376184D01*
X104780184Y-47503737D01*
X104684211Y-47656476D01*
X104624631Y-47826745D01*
X104624630Y-47826750D01*
X104604435Y-48005996D01*
X88107500Y-48005996D01*
X88107500Y-43180000D01*
X114918540Y-43180000D01*
X114938326Y-43368256D01*
X114938327Y-43368259D01*
X114996818Y-43548277D01*
X114996821Y-43548284D01*
X115091466Y-43712215D01*
X115141649Y-43767948D01*
X115171880Y-43830940D01*
X115173500Y-43850921D01*
X115173500Y-49340069D01*
X115182263Y-49384125D01*
X115183966Y-49421275D01*
X115172540Y-49529999D01*
X115172540Y-49530000D01*
X115192326Y-49718256D01*
X115192327Y-49718259D01*
X115250818Y-49898277D01*
X115250821Y-49898284D01*
X115345467Y-50062216D01*
X115472129Y-50202888D01*
X115625265Y-50314148D01*
X115625270Y-50314151D01*
X115798192Y-50391142D01*
X115798197Y-50391144D01*
X115983354Y-50430500D01*
X115983355Y-50430500D01*
X116172644Y-50430500D01*
X116172646Y-50430500D01*
X116357803Y-50391144D01*
X116530730Y-50314151D01*
X116683871Y-50202888D01*
X116810533Y-50062216D01*
X116905179Y-49898284D01*
X116942314Y-49783996D01*
X123908435Y-49783996D01*
X123908435Y-49784003D01*
X123928630Y-49963249D01*
X123928631Y-49963254D01*
X123988211Y-50133523D01*
X124084184Y-50286262D01*
X124211738Y-50413816D01*
X124364478Y-50509789D01*
X124534745Y-50569368D01*
X124534750Y-50569369D01*
X124713996Y-50589565D01*
X124714000Y-50589565D01*
X124714004Y-50589565D01*
X124893249Y-50569369D01*
X124893252Y-50569368D01*
X124893255Y-50569368D01*
X125063522Y-50509789D01*
X125216262Y-50413816D01*
X125343816Y-50286262D01*
X125439789Y-50133522D01*
X125499368Y-49963255D01*
X125499369Y-49963249D01*
X125519565Y-49784003D01*
X125519565Y-49783996D01*
X125499369Y-49604750D01*
X125499368Y-49604745D01*
X125481390Y-49553368D01*
X125439789Y-49434478D01*
X125419740Y-49402571D01*
X125380468Y-49340069D01*
X125343816Y-49281738D01*
X125216262Y-49154184D01*
X125063523Y-49058211D01*
X124893254Y-48998631D01*
X124893249Y-48998630D01*
X124714004Y-48978435D01*
X124713996Y-48978435D01*
X124534750Y-48998630D01*
X124534745Y-48998631D01*
X124364476Y-49058211D01*
X124211737Y-49154184D01*
X124084184Y-49281737D01*
X123988211Y-49434476D01*
X123928631Y-49604745D01*
X123928630Y-49604750D01*
X123908435Y-49783996D01*
X116942314Y-49783996D01*
X116963674Y-49718256D01*
X116983460Y-49530000D01*
X116963674Y-49341744D01*
X116905179Y-49161716D01*
X116810533Y-48997784D01*
X116683871Y-48857112D01*
X116621181Y-48811565D01*
X116525615Y-48742132D01*
X116482949Y-48686802D01*
X116474500Y-48641814D01*
X116474500Y-43850921D01*
X116494185Y-43783882D01*
X116506351Y-43767948D01*
X116556533Y-43712216D01*
X116651179Y-43548284D01*
X116709674Y-43368256D01*
X116729460Y-43180000D01*
X116709674Y-42991744D01*
X116651179Y-42811716D01*
X116556533Y-42647784D01*
X116429871Y-42507112D01*
X116367181Y-42461565D01*
X116276734Y-42395851D01*
X116276729Y-42395848D01*
X116103807Y-42318857D01*
X116103802Y-42318855D01*
X115958001Y-42287865D01*
X115918646Y-42279500D01*
X115729354Y-42279500D01*
X115699644Y-42285815D01*
X115544197Y-42318855D01*
X115544192Y-42318857D01*
X115371270Y-42395848D01*
X115371265Y-42395851D01*
X115218129Y-42507111D01*
X115091466Y-42647785D01*
X114996821Y-42811715D01*
X114996818Y-42811722D01*
X114960842Y-42922447D01*
X114938326Y-42991744D01*
X114918540Y-43180000D01*
X88107500Y-43180000D01*
X88107500Y-41655996D01*
X101810435Y-41655996D01*
X101810435Y-41656003D01*
X101830630Y-41835249D01*
X101830631Y-41835254D01*
X101890211Y-42005523D01*
X101986184Y-42158262D01*
X102113738Y-42285816D01*
X102266478Y-42381789D01*
X102436745Y-42441368D01*
X102436750Y-42441369D01*
X102615996Y-42461565D01*
X102616000Y-42461565D01*
X102616004Y-42461565D01*
X102795249Y-42441369D01*
X102795252Y-42441368D01*
X102795255Y-42441368D01*
X102965522Y-42381789D01*
X103118262Y-42285816D01*
X103245816Y-42158262D01*
X103341789Y-42005522D01*
X103401368Y-41835255D01*
X103421565Y-41656000D01*
X103401368Y-41476745D01*
X103341789Y-41306478D01*
X103245816Y-41153738D01*
X103118262Y-41026184D01*
X102965523Y-40930211D01*
X102795254Y-40870631D01*
X102795249Y-40870630D01*
X102616004Y-40850435D01*
X102615996Y-40850435D01*
X102436750Y-40870630D01*
X102436745Y-40870631D01*
X102266476Y-40930211D01*
X102113737Y-41026184D01*
X101986184Y-41153737D01*
X101890211Y-41306476D01*
X101830631Y-41476745D01*
X101830630Y-41476750D01*
X101810435Y-41655996D01*
X88107500Y-41655996D01*
X88107500Y-41272000D01*
X88127185Y-41204961D01*
X88179989Y-41159206D01*
X88231500Y-41148000D01*
X91693999Y-41148000D01*
X91694000Y-41148000D01*
X92162043Y-40713389D01*
X139819500Y-40713389D01*
X139819500Y-42586611D01*
X139846598Y-42757701D01*
X139900127Y-42922445D01*
X139978768Y-43076788D01*
X140080586Y-43216928D01*
X140203072Y-43339414D01*
X140343212Y-43441232D01*
X140497555Y-43519873D01*
X140662299Y-43573402D01*
X140833389Y-43600500D01*
X140833390Y-43600500D01*
X141006610Y-43600500D01*
X141006611Y-43600500D01*
X141177701Y-43573402D01*
X141342445Y-43519873D01*
X141496788Y-43441232D01*
X141636928Y-43339414D01*
X141759414Y-43216928D01*
X141861232Y-43076788D01*
X141939873Y-42922445D01*
X141993402Y-42757701D01*
X142020500Y-42586611D01*
X142020500Y-40713389D01*
X152619500Y-40713389D01*
X152619500Y-42586611D01*
X152646598Y-42757701D01*
X152700127Y-42922445D01*
X152778768Y-43076788D01*
X152880586Y-43216928D01*
X153003072Y-43339414D01*
X153143212Y-43441232D01*
X153297555Y-43519873D01*
X153462299Y-43573402D01*
X153633389Y-43600500D01*
X153633390Y-43600500D01*
X153806610Y-43600500D01*
X153806611Y-43600500D01*
X153977701Y-43573402D01*
X154142445Y-43519873D01*
X154296788Y-43441232D01*
X154436928Y-43339414D01*
X154559414Y-43216928D01*
X154661232Y-43076788D01*
X154739873Y-42922445D01*
X154793402Y-42757701D01*
X154820500Y-42586611D01*
X154820500Y-40713389D01*
X154793402Y-40542299D01*
X154739873Y-40377555D01*
X154661232Y-40223212D01*
X154559414Y-40083072D01*
X154436928Y-39960586D01*
X154296788Y-39858768D01*
X154142445Y-39780127D01*
X153977701Y-39726598D01*
X153977699Y-39726597D01*
X153977698Y-39726597D01*
X153846271Y-39705781D01*
X153806611Y-39699500D01*
X153633389Y-39699500D01*
X153593728Y-39705781D01*
X153462302Y-39726597D01*
X153297552Y-39780128D01*
X153143211Y-39858768D01*
X153063256Y-39916859D01*
X153003072Y-39960586D01*
X153003070Y-39960588D01*
X153003069Y-39960588D01*
X152880588Y-40083069D01*
X152880588Y-40083070D01*
X152880586Y-40083072D01*
X152836859Y-40143256D01*
X152778768Y-40223211D01*
X152700128Y-40377552D01*
X152646597Y-40542302D01*
X152619500Y-40713389D01*
X142020500Y-40713389D01*
X141993402Y-40542299D01*
X141939873Y-40377555D01*
X141861232Y-40223212D01*
X141759414Y-40083072D01*
X141636928Y-39960586D01*
X141496788Y-39858768D01*
X141342445Y-39780127D01*
X141177701Y-39726598D01*
X141177699Y-39726597D01*
X141177698Y-39726597D01*
X141046271Y-39705781D01*
X141006611Y-39699500D01*
X140833389Y-39699500D01*
X140793728Y-39705781D01*
X140662302Y-39726597D01*
X140497552Y-39780128D01*
X140343211Y-39858768D01*
X140263256Y-39916859D01*
X140203072Y-39960586D01*
X140203070Y-39960588D01*
X140203069Y-39960588D01*
X140080588Y-40083069D01*
X140080588Y-40083070D01*
X140080586Y-40083072D01*
X140036859Y-40143256D01*
X139978768Y-40223211D01*
X139900128Y-40377552D01*
X139846597Y-40542302D01*
X139819500Y-40713389D01*
X92162043Y-40713389D01*
X95250000Y-37846000D01*
X95250000Y-32774500D01*
X95269685Y-32707461D01*
X95322489Y-32661706D01*
X95374000Y-32650500D01*
X157356000Y-32650500D01*
X157423039Y-32670185D01*
G37*
%TD.AperFunction*%
%TD*%
M02*
