%TF.GenerationSoftware,KiCad,Pcbnew,8.0.5*%
%TF.CreationDate,2024-10-22T12:33:32-04:00*%
%TF.ProjectId,PCB_Schematic,5043425f-5363-4686-956d-617469632e6b,rev?*%
%TF.SameCoordinates,Original*%
%TF.FileFunction,Legend,Bot*%
%TF.FilePolarity,Positive*%
%FSLAX46Y46*%
G04 Gerber Fmt 4.6, Leading zero omitted, Abs format (unit mm)*
G04 Created by KiCad (PCBNEW 8.0.5) date 2024-10-22 12:33:32*
%MOMM*%
%LPD*%
G01*
G04 APERTURE LIST*
G04 Aperture macros list*
%AMRoundRect*
0 Rectangle with rounded corners*
0 $1 Rounding radius*
0 $2 $3 $4 $5 $6 $7 $8 $9 X,Y pos of 4 corners*
0 Add a 4 corners polygon primitive as box body*
4,1,4,$2,$3,$4,$5,$6,$7,$8,$9,$2,$3,0*
0 Add four circle primitives for the rounded corners*
1,1,$1+$1,$2,$3*
1,1,$1+$1,$4,$5*
1,1,$1+$1,$6,$7*
1,1,$1+$1,$8,$9*
0 Add four rect primitives between the rounded corners*
20,1,$1+$1,$2,$3,$4,$5,0*
20,1,$1+$1,$4,$5,$6,$7,0*
20,1,$1+$1,$6,$7,$8,$9,0*
20,1,$1+$1,$8,$9,$2,$3,0*%
G04 Aperture macros list end*
%ADD10C,0.150000*%
%ADD11C,0.508000*%
%ADD12C,0.120000*%
%ADD13C,1.752600*%
%ADD14O,1.200000X2.900000*%
%ADD15RoundRect,0.250000X0.600000X0.600000X-0.600000X0.600000X-0.600000X-0.600000X0.600000X-0.600000X0*%
%ADD16C,1.700000*%
%ADD17C,2.200000*%
%ADD18RoundRect,0.250000X0.337500X0.475000X-0.337500X0.475000X-0.337500X-0.475000X0.337500X-0.475000X0*%
%ADD19RoundRect,0.250000X-0.475000X0.337500X-0.475000X-0.337500X0.475000X-0.337500X0.475000X0.337500X0*%
%ADD20RoundRect,0.250000X-0.337500X-0.475000X0.337500X-0.475000X0.337500X0.475000X-0.337500X0.475000X0*%
%ADD21RoundRect,0.250000X-0.450000X0.350000X-0.450000X-0.350000X0.450000X-0.350000X0.450000X0.350000X0*%
%ADD22RoundRect,0.250000X0.450000X-0.350000X0.450000X0.350000X-0.450000X0.350000X-0.450000X-0.350000X0*%
G04 APERTURE END LIST*
D10*
X117444904Y-94412819D02*
X117444904Y-95222342D01*
X117444904Y-95222342D02*
X117397285Y-95317580D01*
X117397285Y-95317580D02*
X117349666Y-95365200D01*
X117349666Y-95365200D02*
X117254428Y-95412819D01*
X117254428Y-95412819D02*
X117063952Y-95412819D01*
X117063952Y-95412819D02*
X116968714Y-95365200D01*
X116968714Y-95365200D02*
X116921095Y-95317580D01*
X116921095Y-95317580D02*
X116873476Y-95222342D01*
X116873476Y-95222342D02*
X116873476Y-94412819D01*
X115873476Y-95412819D02*
X116444904Y-95412819D01*
X116159190Y-95412819D02*
X116159190Y-94412819D01*
X116159190Y-94412819D02*
X116254428Y-94555676D01*
X116254428Y-94555676D02*
X116349666Y-94650914D01*
X116349666Y-94650914D02*
X116444904Y-94698533D01*
X126912666Y-75289580D02*
X126960285Y-75337200D01*
X126960285Y-75337200D02*
X127103142Y-75384819D01*
X127103142Y-75384819D02*
X127198380Y-75384819D01*
X127198380Y-75384819D02*
X127341237Y-75337200D01*
X127341237Y-75337200D02*
X127436475Y-75241961D01*
X127436475Y-75241961D02*
X127484094Y-75146723D01*
X127484094Y-75146723D02*
X127531713Y-74956247D01*
X127531713Y-74956247D02*
X127531713Y-74813390D01*
X127531713Y-74813390D02*
X127484094Y-74622914D01*
X127484094Y-74622914D02*
X127436475Y-74527676D01*
X127436475Y-74527676D02*
X127341237Y-74432438D01*
X127341237Y-74432438D02*
X127198380Y-74384819D01*
X127198380Y-74384819D02*
X127103142Y-74384819D01*
X127103142Y-74384819D02*
X126960285Y-74432438D01*
X126960285Y-74432438D02*
X126912666Y-74480057D01*
X126531713Y-74480057D02*
X126484094Y-74432438D01*
X126484094Y-74432438D02*
X126388856Y-74384819D01*
X126388856Y-74384819D02*
X126150761Y-74384819D01*
X126150761Y-74384819D02*
X126055523Y-74432438D01*
X126055523Y-74432438D02*
X126007904Y-74480057D01*
X126007904Y-74480057D02*
X125960285Y-74575295D01*
X125960285Y-74575295D02*
X125960285Y-74670533D01*
X125960285Y-74670533D02*
X126007904Y-74813390D01*
X126007904Y-74813390D02*
X126579332Y-75384819D01*
X126579332Y-75384819D02*
X125960285Y-75384819D01*
X126777166Y-103515580D02*
X126824785Y-103563200D01*
X126824785Y-103563200D02*
X126967642Y-103610819D01*
X126967642Y-103610819D02*
X127062880Y-103610819D01*
X127062880Y-103610819D02*
X127205737Y-103563200D01*
X127205737Y-103563200D02*
X127300975Y-103467961D01*
X127300975Y-103467961D02*
X127348594Y-103372723D01*
X127348594Y-103372723D02*
X127396213Y-103182247D01*
X127396213Y-103182247D02*
X127396213Y-103039390D01*
X127396213Y-103039390D02*
X127348594Y-102848914D01*
X127348594Y-102848914D02*
X127300975Y-102753676D01*
X127300975Y-102753676D02*
X127205737Y-102658438D01*
X127205737Y-102658438D02*
X127062880Y-102610819D01*
X127062880Y-102610819D02*
X126967642Y-102610819D01*
X126967642Y-102610819D02*
X126824785Y-102658438D01*
X126824785Y-102658438D02*
X126777166Y-102706057D01*
X126205737Y-103039390D02*
X126300975Y-102991771D01*
X126300975Y-102991771D02*
X126348594Y-102944152D01*
X126348594Y-102944152D02*
X126396213Y-102848914D01*
X126396213Y-102848914D02*
X126396213Y-102801295D01*
X126396213Y-102801295D02*
X126348594Y-102706057D01*
X126348594Y-102706057D02*
X126300975Y-102658438D01*
X126300975Y-102658438D02*
X126205737Y-102610819D01*
X126205737Y-102610819D02*
X126015261Y-102610819D01*
X126015261Y-102610819D02*
X125920023Y-102658438D01*
X125920023Y-102658438D02*
X125872404Y-102706057D01*
X125872404Y-102706057D02*
X125824785Y-102801295D01*
X125824785Y-102801295D02*
X125824785Y-102848914D01*
X125824785Y-102848914D02*
X125872404Y-102944152D01*
X125872404Y-102944152D02*
X125920023Y-102991771D01*
X125920023Y-102991771D02*
X126015261Y-103039390D01*
X126015261Y-103039390D02*
X126205737Y-103039390D01*
X126205737Y-103039390D02*
X126300975Y-103087009D01*
X126300975Y-103087009D02*
X126348594Y-103134628D01*
X126348594Y-103134628D02*
X126396213Y-103229866D01*
X126396213Y-103229866D02*
X126396213Y-103420342D01*
X126396213Y-103420342D02*
X126348594Y-103515580D01*
X126348594Y-103515580D02*
X126300975Y-103563200D01*
X126300975Y-103563200D02*
X126205737Y-103610819D01*
X126205737Y-103610819D02*
X126015261Y-103610819D01*
X126015261Y-103610819D02*
X125920023Y-103563200D01*
X125920023Y-103563200D02*
X125872404Y-103515580D01*
X125872404Y-103515580D02*
X125824785Y-103420342D01*
X125824785Y-103420342D02*
X125824785Y-103229866D01*
X125824785Y-103229866D02*
X125872404Y-103134628D01*
X125872404Y-103134628D02*
X125920023Y-103087009D01*
X125920023Y-103087009D02*
X126015261Y-103039390D01*
X120892166Y-103261580D02*
X120939785Y-103309200D01*
X120939785Y-103309200D02*
X121082642Y-103356819D01*
X121082642Y-103356819D02*
X121177880Y-103356819D01*
X121177880Y-103356819D02*
X121320737Y-103309200D01*
X121320737Y-103309200D02*
X121415975Y-103213961D01*
X121415975Y-103213961D02*
X121463594Y-103118723D01*
X121463594Y-103118723D02*
X121511213Y-102928247D01*
X121511213Y-102928247D02*
X121511213Y-102785390D01*
X121511213Y-102785390D02*
X121463594Y-102594914D01*
X121463594Y-102594914D02*
X121415975Y-102499676D01*
X121415975Y-102499676D02*
X121320737Y-102404438D01*
X121320737Y-102404438D02*
X121177880Y-102356819D01*
X121177880Y-102356819D02*
X121082642Y-102356819D01*
X121082642Y-102356819D02*
X120939785Y-102404438D01*
X120939785Y-102404438D02*
X120892166Y-102452057D01*
X120558832Y-102356819D02*
X119892166Y-102356819D01*
X119892166Y-102356819D02*
X120320737Y-103356819D01*
X119800666Y-77321580D02*
X119848285Y-77369200D01*
X119848285Y-77369200D02*
X119991142Y-77416819D01*
X119991142Y-77416819D02*
X120086380Y-77416819D01*
X120086380Y-77416819D02*
X120229237Y-77369200D01*
X120229237Y-77369200D02*
X120324475Y-77273961D01*
X120324475Y-77273961D02*
X120372094Y-77178723D01*
X120372094Y-77178723D02*
X120419713Y-76988247D01*
X120419713Y-76988247D02*
X120419713Y-76845390D01*
X120419713Y-76845390D02*
X120372094Y-76654914D01*
X120372094Y-76654914D02*
X120324475Y-76559676D01*
X120324475Y-76559676D02*
X120229237Y-76464438D01*
X120229237Y-76464438D02*
X120086380Y-76416819D01*
X120086380Y-76416819D02*
X119991142Y-76416819D01*
X119991142Y-76416819D02*
X119848285Y-76464438D01*
X119848285Y-76464438D02*
X119800666Y-76512057D01*
X118848285Y-77416819D02*
X119419713Y-77416819D01*
X119133999Y-77416819D02*
X119133999Y-76416819D01*
X119133999Y-76416819D02*
X119229237Y-76559676D01*
X119229237Y-76559676D02*
X119324475Y-76654914D01*
X119324475Y-76654914D02*
X119419713Y-76702533D01*
X125679580Y-99887833D02*
X125727200Y-99840214D01*
X125727200Y-99840214D02*
X125774819Y-99697357D01*
X125774819Y-99697357D02*
X125774819Y-99602119D01*
X125774819Y-99602119D02*
X125727200Y-99459262D01*
X125727200Y-99459262D02*
X125631961Y-99364024D01*
X125631961Y-99364024D02*
X125536723Y-99316405D01*
X125536723Y-99316405D02*
X125346247Y-99268786D01*
X125346247Y-99268786D02*
X125203390Y-99268786D01*
X125203390Y-99268786D02*
X125012914Y-99316405D01*
X125012914Y-99316405D02*
X124917676Y-99364024D01*
X124917676Y-99364024D02*
X124822438Y-99459262D01*
X124822438Y-99459262D02*
X124774819Y-99602119D01*
X124774819Y-99602119D02*
X124774819Y-99697357D01*
X124774819Y-99697357D02*
X124822438Y-99840214D01*
X124822438Y-99840214D02*
X124870057Y-99887833D01*
X125774819Y-100364024D02*
X125774819Y-100554500D01*
X125774819Y-100554500D02*
X125727200Y-100649738D01*
X125727200Y-100649738D02*
X125679580Y-100697357D01*
X125679580Y-100697357D02*
X125536723Y-100792595D01*
X125536723Y-100792595D02*
X125346247Y-100840214D01*
X125346247Y-100840214D02*
X124965295Y-100840214D01*
X124965295Y-100840214D02*
X124870057Y-100792595D01*
X124870057Y-100792595D02*
X124822438Y-100744976D01*
X124822438Y-100744976D02*
X124774819Y-100649738D01*
X124774819Y-100649738D02*
X124774819Y-100459262D01*
X124774819Y-100459262D02*
X124822438Y-100364024D01*
X124822438Y-100364024D02*
X124870057Y-100316405D01*
X124870057Y-100316405D02*
X124965295Y-100268786D01*
X124965295Y-100268786D02*
X125203390Y-100268786D01*
X125203390Y-100268786D02*
X125298628Y-100316405D01*
X125298628Y-100316405D02*
X125346247Y-100364024D01*
X125346247Y-100364024D02*
X125393866Y-100459262D01*
X125393866Y-100459262D02*
X125393866Y-100649738D01*
X125393866Y-100649738D02*
X125346247Y-100744976D01*
X125346247Y-100744976D02*
X125298628Y-100792595D01*
X125298628Y-100792595D02*
X125203390Y-100840214D01*
X121189166Y-100017580D02*
X121236785Y-100065200D01*
X121236785Y-100065200D02*
X121379642Y-100112819D01*
X121379642Y-100112819D02*
X121474880Y-100112819D01*
X121474880Y-100112819D02*
X121617737Y-100065200D01*
X121617737Y-100065200D02*
X121712975Y-99969961D01*
X121712975Y-99969961D02*
X121760594Y-99874723D01*
X121760594Y-99874723D02*
X121808213Y-99684247D01*
X121808213Y-99684247D02*
X121808213Y-99541390D01*
X121808213Y-99541390D02*
X121760594Y-99350914D01*
X121760594Y-99350914D02*
X121712975Y-99255676D01*
X121712975Y-99255676D02*
X121617737Y-99160438D01*
X121617737Y-99160438D02*
X121474880Y-99112819D01*
X121474880Y-99112819D02*
X121379642Y-99112819D01*
X121379642Y-99112819D02*
X121236785Y-99160438D01*
X121236785Y-99160438D02*
X121189166Y-99208057D01*
X120332023Y-99112819D02*
X120522499Y-99112819D01*
X120522499Y-99112819D02*
X120617737Y-99160438D01*
X120617737Y-99160438D02*
X120665356Y-99208057D01*
X120665356Y-99208057D02*
X120760594Y-99350914D01*
X120760594Y-99350914D02*
X120808213Y-99541390D01*
X120808213Y-99541390D02*
X120808213Y-99922342D01*
X120808213Y-99922342D02*
X120760594Y-100017580D01*
X120760594Y-100017580D02*
X120712975Y-100065200D01*
X120712975Y-100065200D02*
X120617737Y-100112819D01*
X120617737Y-100112819D02*
X120427261Y-100112819D01*
X120427261Y-100112819D02*
X120332023Y-100065200D01*
X120332023Y-100065200D02*
X120284404Y-100017580D01*
X120284404Y-100017580D02*
X120236785Y-99922342D01*
X120236785Y-99922342D02*
X120236785Y-99684247D01*
X120236785Y-99684247D02*
X120284404Y-99589009D01*
X120284404Y-99589009D02*
X120332023Y-99541390D01*
X120332023Y-99541390D02*
X120427261Y-99493771D01*
X120427261Y-99493771D02*
X120617737Y-99493771D01*
X120617737Y-99493771D02*
X120712975Y-99541390D01*
X120712975Y-99541390D02*
X120760594Y-99589009D01*
X120760594Y-99589009D02*
X120808213Y-99684247D01*
X156030819Y-103497142D02*
X155554628Y-103163809D01*
X156030819Y-102925714D02*
X155030819Y-102925714D01*
X155030819Y-102925714D02*
X155030819Y-103306666D01*
X155030819Y-103306666D02*
X155078438Y-103401904D01*
X155078438Y-103401904D02*
X155126057Y-103449523D01*
X155126057Y-103449523D02*
X155221295Y-103497142D01*
X155221295Y-103497142D02*
X155364152Y-103497142D01*
X155364152Y-103497142D02*
X155459390Y-103449523D01*
X155459390Y-103449523D02*
X155507009Y-103401904D01*
X155507009Y-103401904D02*
X155554628Y-103306666D01*
X155554628Y-103306666D02*
X155554628Y-102925714D01*
X156030819Y-104449523D02*
X156030819Y-103878095D01*
X156030819Y-104163809D02*
X155030819Y-104163809D01*
X155030819Y-104163809D02*
X155173676Y-104068571D01*
X155173676Y-104068571D02*
X155268914Y-103973333D01*
X155268914Y-103973333D02*
X155316533Y-103878095D01*
X155030819Y-105306666D02*
X155030819Y-105116190D01*
X155030819Y-105116190D02*
X155078438Y-105020952D01*
X155078438Y-105020952D02*
X155126057Y-104973333D01*
X155126057Y-104973333D02*
X155268914Y-104878095D01*
X155268914Y-104878095D02*
X155459390Y-104830476D01*
X155459390Y-104830476D02*
X155840342Y-104830476D01*
X155840342Y-104830476D02*
X155935580Y-104878095D01*
X155935580Y-104878095D02*
X155983200Y-104925714D01*
X155983200Y-104925714D02*
X156030819Y-105020952D01*
X156030819Y-105020952D02*
X156030819Y-105211428D01*
X156030819Y-105211428D02*
X155983200Y-105306666D01*
X155983200Y-105306666D02*
X155935580Y-105354285D01*
X155935580Y-105354285D02*
X155840342Y-105401904D01*
X155840342Y-105401904D02*
X155602247Y-105401904D01*
X155602247Y-105401904D02*
X155507009Y-105354285D01*
X155507009Y-105354285D02*
X155459390Y-105306666D01*
X155459390Y-105306666D02*
X155411771Y-105211428D01*
X155411771Y-105211428D02*
X155411771Y-105020952D01*
X155411771Y-105020952D02*
X155459390Y-104925714D01*
X155459390Y-104925714D02*
X155507009Y-104878095D01*
X155507009Y-104878095D02*
X155602247Y-104830476D01*
X158060819Y-111625142D02*
X157584628Y-111291809D01*
X158060819Y-111053714D02*
X157060819Y-111053714D01*
X157060819Y-111053714D02*
X157060819Y-111434666D01*
X157060819Y-111434666D02*
X157108438Y-111529904D01*
X157108438Y-111529904D02*
X157156057Y-111577523D01*
X157156057Y-111577523D02*
X157251295Y-111625142D01*
X157251295Y-111625142D02*
X157394152Y-111625142D01*
X157394152Y-111625142D02*
X157489390Y-111577523D01*
X157489390Y-111577523D02*
X157537009Y-111529904D01*
X157537009Y-111529904D02*
X157584628Y-111434666D01*
X157584628Y-111434666D02*
X157584628Y-111053714D01*
X158060819Y-112577523D02*
X158060819Y-112006095D01*
X158060819Y-112291809D02*
X157060819Y-112291809D01*
X157060819Y-112291809D02*
X157203676Y-112196571D01*
X157203676Y-112196571D02*
X157298914Y-112101333D01*
X157298914Y-112101333D02*
X157346533Y-112006095D01*
X157489390Y-113148952D02*
X157441771Y-113053714D01*
X157441771Y-113053714D02*
X157394152Y-113006095D01*
X157394152Y-113006095D02*
X157298914Y-112958476D01*
X157298914Y-112958476D02*
X157251295Y-112958476D01*
X157251295Y-112958476D02*
X157156057Y-113006095D01*
X157156057Y-113006095D02*
X157108438Y-113053714D01*
X157108438Y-113053714D02*
X157060819Y-113148952D01*
X157060819Y-113148952D02*
X157060819Y-113339428D01*
X157060819Y-113339428D02*
X157108438Y-113434666D01*
X157108438Y-113434666D02*
X157156057Y-113482285D01*
X157156057Y-113482285D02*
X157251295Y-113529904D01*
X157251295Y-113529904D02*
X157298914Y-113529904D01*
X157298914Y-113529904D02*
X157394152Y-113482285D01*
X157394152Y-113482285D02*
X157441771Y-113434666D01*
X157441771Y-113434666D02*
X157489390Y-113339428D01*
X157489390Y-113339428D02*
X157489390Y-113148952D01*
X157489390Y-113148952D02*
X157537009Y-113053714D01*
X157537009Y-113053714D02*
X157584628Y-113006095D01*
X157584628Y-113006095D02*
X157679866Y-112958476D01*
X157679866Y-112958476D02*
X157870342Y-112958476D01*
X157870342Y-112958476D02*
X157965580Y-113006095D01*
X157965580Y-113006095D02*
X158013200Y-113053714D01*
X158013200Y-113053714D02*
X158060819Y-113148952D01*
X158060819Y-113148952D02*
X158060819Y-113339428D01*
X158060819Y-113339428D02*
X158013200Y-113434666D01*
X158013200Y-113434666D02*
X157965580Y-113482285D01*
X157965580Y-113482285D02*
X157870342Y-113529904D01*
X157870342Y-113529904D02*
X157679866Y-113529904D01*
X157679866Y-113529904D02*
X157584628Y-113482285D01*
X157584628Y-113482285D02*
X157537009Y-113434666D01*
X157537009Y-113434666D02*
X157489390Y-113339428D01*
X158060819Y-91559142D02*
X157584628Y-91225809D01*
X158060819Y-90987714D02*
X157060819Y-90987714D01*
X157060819Y-90987714D02*
X157060819Y-91368666D01*
X157060819Y-91368666D02*
X157108438Y-91463904D01*
X157108438Y-91463904D02*
X157156057Y-91511523D01*
X157156057Y-91511523D02*
X157251295Y-91559142D01*
X157251295Y-91559142D02*
X157394152Y-91559142D01*
X157394152Y-91559142D02*
X157489390Y-91511523D01*
X157489390Y-91511523D02*
X157537009Y-91463904D01*
X157537009Y-91463904D02*
X157584628Y-91368666D01*
X157584628Y-91368666D02*
X157584628Y-90987714D01*
X158060819Y-92511523D02*
X158060819Y-91940095D01*
X158060819Y-92225809D02*
X157060819Y-92225809D01*
X157060819Y-92225809D02*
X157203676Y-92130571D01*
X157203676Y-92130571D02*
X157298914Y-92035333D01*
X157298914Y-92035333D02*
X157346533Y-91940095D01*
X158060819Y-92987714D02*
X158060819Y-93178190D01*
X158060819Y-93178190D02*
X158013200Y-93273428D01*
X158013200Y-93273428D02*
X157965580Y-93321047D01*
X157965580Y-93321047D02*
X157822723Y-93416285D01*
X157822723Y-93416285D02*
X157632247Y-93463904D01*
X157632247Y-93463904D02*
X157251295Y-93463904D01*
X157251295Y-93463904D02*
X157156057Y-93416285D01*
X157156057Y-93416285D02*
X157108438Y-93368666D01*
X157108438Y-93368666D02*
X157060819Y-93273428D01*
X157060819Y-93273428D02*
X157060819Y-93082952D01*
X157060819Y-93082952D02*
X157108438Y-92987714D01*
X157108438Y-92987714D02*
X157156057Y-92940095D01*
X157156057Y-92940095D02*
X157251295Y-92892476D01*
X157251295Y-92892476D02*
X157489390Y-92892476D01*
X157489390Y-92892476D02*
X157584628Y-92940095D01*
X157584628Y-92940095D02*
X157632247Y-92987714D01*
X157632247Y-92987714D02*
X157679866Y-93082952D01*
X157679866Y-93082952D02*
X157679866Y-93273428D01*
X157679866Y-93273428D02*
X157632247Y-93368666D01*
X157632247Y-93368666D02*
X157584628Y-93416285D01*
X157584628Y-93416285D02*
X157489390Y-93463904D01*
X158060819Y-96147142D02*
X157584628Y-95813809D01*
X158060819Y-95575714D02*
X157060819Y-95575714D01*
X157060819Y-95575714D02*
X157060819Y-95956666D01*
X157060819Y-95956666D02*
X157108438Y-96051904D01*
X157108438Y-96051904D02*
X157156057Y-96099523D01*
X157156057Y-96099523D02*
X157251295Y-96147142D01*
X157251295Y-96147142D02*
X157394152Y-96147142D01*
X157394152Y-96147142D02*
X157489390Y-96099523D01*
X157489390Y-96099523D02*
X157537009Y-96051904D01*
X157537009Y-96051904D02*
X157584628Y-95956666D01*
X157584628Y-95956666D02*
X157584628Y-95575714D01*
X157156057Y-96528095D02*
X157108438Y-96575714D01*
X157108438Y-96575714D02*
X157060819Y-96670952D01*
X157060819Y-96670952D02*
X157060819Y-96909047D01*
X157060819Y-96909047D02*
X157108438Y-97004285D01*
X157108438Y-97004285D02*
X157156057Y-97051904D01*
X157156057Y-97051904D02*
X157251295Y-97099523D01*
X157251295Y-97099523D02*
X157346533Y-97099523D01*
X157346533Y-97099523D02*
X157489390Y-97051904D01*
X157489390Y-97051904D02*
X158060819Y-96480476D01*
X158060819Y-96480476D02*
X158060819Y-97099523D01*
X157060819Y-97718571D02*
X157060819Y-97813809D01*
X157060819Y-97813809D02*
X157108438Y-97909047D01*
X157108438Y-97909047D02*
X157156057Y-97956666D01*
X157156057Y-97956666D02*
X157251295Y-98004285D01*
X157251295Y-98004285D02*
X157441771Y-98051904D01*
X157441771Y-98051904D02*
X157679866Y-98051904D01*
X157679866Y-98051904D02*
X157870342Y-98004285D01*
X157870342Y-98004285D02*
X157965580Y-97956666D01*
X157965580Y-97956666D02*
X158013200Y-97909047D01*
X158013200Y-97909047D02*
X158060819Y-97813809D01*
X158060819Y-97813809D02*
X158060819Y-97718571D01*
X158060819Y-97718571D02*
X158013200Y-97623333D01*
X158013200Y-97623333D02*
X157965580Y-97575714D01*
X157965580Y-97575714D02*
X157870342Y-97528095D01*
X157870342Y-97528095D02*
X157679866Y-97480476D01*
X157679866Y-97480476D02*
X157441771Y-97480476D01*
X157441771Y-97480476D02*
X157251295Y-97528095D01*
X157251295Y-97528095D02*
X157156057Y-97575714D01*
X157156057Y-97575714D02*
X157108438Y-97623333D01*
X157108438Y-97623333D02*
X157060819Y-97718571D01*
D11*
%TO.C,J7*%
X161448597Y-103128800D02*
G75*
G02*
X160686597Y-103128800I-381000J0D01*
G01*
X160686597Y-103128800D02*
G75*
G02*
X161448597Y-103128800I381000J0D01*
G01*
%TO.C,J6*%
X161514000Y-118125600D02*
G75*
G02*
X160752000Y-118125600I-381000J0D01*
G01*
X160752000Y-118125600D02*
G75*
G02*
X161514000Y-118125600I381000J0D01*
G01*
%TO.C,J2*%
X117128600Y-123952000D02*
G75*
G02*
X116366600Y-123952000I-381000J0D01*
G01*
X116366600Y-123952000D02*
G75*
G02*
X117128600Y-123952000I381000J0D01*
G01*
%TO.C,J4*%
X94282500Y-101770900D02*
G75*
G02*
X93520500Y-101770900I-381000J0D01*
G01*
X93520500Y-101770900D02*
G75*
G02*
X94282500Y-101770900I381000J0D01*
G01*
%TO.C,J3*%
X157768600Y-123698000D02*
G75*
G02*
X157006600Y-123698000I-381000J0D01*
G01*
X157006600Y-123698000D02*
G75*
G02*
X157768600Y-123698000I381000J0D01*
G01*
D12*
%TO.C,C2*%
X125468748Y-75973000D02*
X125991252Y-75973000D01*
X125468748Y-77443000D02*
X125991252Y-77443000D01*
%TO.C,C8*%
X126349248Y-104101000D02*
X126871752Y-104101000D01*
X126349248Y-105571000D02*
X126871752Y-105571000D01*
%TO.C,C7*%
X120464248Y-103847000D02*
X120986752Y-103847000D01*
X120464248Y-105317000D02*
X120986752Y-105317000D01*
%TO.C,C1*%
X120156248Y-74449000D02*
X120678752Y-74449000D01*
X120156248Y-75919000D02*
X120678752Y-75919000D01*
%TO.C,C9*%
X126265000Y-100315752D02*
X126265000Y-99793248D01*
X127735000Y-100315752D02*
X127735000Y-99793248D01*
%TO.C,C6*%
X121283752Y-97243000D02*
X120761248Y-97243000D01*
X121283752Y-98713000D02*
X120761248Y-98713000D01*
%TO.C,R16*%
X156491000Y-104367064D02*
X156491000Y-103912936D01*
X157961000Y-104367064D02*
X157961000Y-103912936D01*
%TO.C,R18*%
X155221000Y-112040936D02*
X155221000Y-112495064D01*
X156691000Y-112040936D02*
X156691000Y-112495064D01*
%TO.C,R19*%
X155221000Y-91974936D02*
X155221000Y-92429064D01*
X156691000Y-91974936D02*
X156691000Y-92429064D01*
%TO.C,R20*%
X155221000Y-96562936D02*
X155221000Y-97017064D01*
X156691000Y-96562936D02*
X156691000Y-97017064D01*
%TD*%
%LPC*%
D13*
%TO.C,J7*%
X161067597Y-99919200D03*
X161067597Y-97419200D03*
X161067597Y-94919200D03*
X161067597Y-92419200D03*
%TD*%
D14*
%TO.C,J5*%
X153720000Y-41650000D03*
X140920000Y-41650000D03*
%TD*%
D13*
%TO.C,J6*%
X161133000Y-114916000D03*
X161133000Y-112416000D03*
X161133000Y-109916000D03*
X161133000Y-107416000D03*
%TD*%
D15*
%TO.C,J1*%
X161798000Y-81280000D03*
D16*
X159258000Y-81280000D03*
X161798000Y-78740000D03*
X159258000Y-78740000D03*
X161798000Y-76200000D03*
X159258000Y-76200000D03*
X161798000Y-73660000D03*
X159258000Y-73660000D03*
X161798000Y-71120000D03*
X159258000Y-71120000D03*
%TD*%
D13*
%TO.C,J2*%
X113538000Y-123952000D03*
X111038000Y-123952000D03*
X108538000Y-123952000D03*
X106038000Y-123952000D03*
%TD*%
D17*
%TO.C,H1*%
X91613000Y-36156000D03*
%TD*%
%TO.C,H4*%
X163322000Y-123698000D03*
%TD*%
D13*
%TO.C,J4*%
X93901500Y-104980500D03*
X93901500Y-107480500D03*
X93901500Y-109980500D03*
X93901500Y-112480500D03*
%TD*%
D17*
%TO.C,H2*%
X163322000Y-36068000D03*
%TD*%
D13*
%TO.C,J3*%
X154178000Y-123698000D03*
X151678000Y-123698000D03*
X149178000Y-123698000D03*
X146678000Y-123698000D03*
%TD*%
D17*
%TO.C,H3*%
X91694000Y-123698000D03*
%TD*%
D18*
%TO.C,C2*%
X126767500Y-76708000D03*
X124692500Y-76708000D03*
%TD*%
%TO.C,C8*%
X127648000Y-104836000D03*
X125573000Y-104836000D03*
%TD*%
%TO.C,C7*%
X121763000Y-104582000D03*
X119688000Y-104582000D03*
%TD*%
%TO.C,C1*%
X121455000Y-75184000D03*
X119380000Y-75184000D03*
%TD*%
D19*
%TO.C,C9*%
X127000000Y-99017000D03*
X127000000Y-101092000D03*
%TD*%
D20*
%TO.C,C6*%
X119985000Y-97978000D03*
X122060000Y-97978000D03*
%TD*%
D21*
%TO.C,R16*%
X157226000Y-103140000D03*
X157226000Y-105140000D03*
%TD*%
D22*
%TO.C,R18*%
X155956000Y-113268000D03*
X155956000Y-111268000D03*
%TD*%
%TO.C,R19*%
X155956000Y-93202000D03*
X155956000Y-91202000D03*
%TD*%
%TO.C,R20*%
X155956000Y-97790000D03*
X155956000Y-95790000D03*
%TD*%
%LPD*%
M02*
