M48
; DRILL file {KiCad 8.0.5} date 2024-10-22T19:54:10-0400
; FORMAT={-:-/ absolute / metric / decimal}
; #@! TF.CreationDate,2024-10-22T19:54:10-04:00
; #@! TF.GenerationSoftware,Kicad,Pcbnew,8.0.5
; #@! TF.FileFunction,Plated,1,2,PTH
FMAT,2
METRIC
; #@! TA.AperFunction,Plated,PTH,ViaDrill
T1C0.381
; #@! TA.AperFunction,Plated,PTH,ViaDrill
T2C0.400
; #@! TA.AperFunction,Plated,PTH,ViaDrill
T3C0.600
; #@! TA.AperFunction,Plated,PTH,ComponentDrill
T4C0.600
; #@! TA.AperFunction,Plated,PTH,ComponentDrill
T5C1.000
; #@! TA.AperFunction,Plated,PTH,ComponentDrill
T6C1.245
; #@! TA.AperFunction,Plated,PTH,ViaDrill
T7C2.500
%
G90
G05
T1
X92.71Y-46.736
X92.964Y-48.768
X92.964Y-65.278
X94.488Y-82.042
X94.742Y-49.53
X95.504Y-46.482
X96.266Y-48.26
X96.266Y-50.038
X97.028Y-95.758
X100.838Y-49.784
X100.838Y-50.8
X100.838Y-94.742
X101.854Y-49.784
X101.854Y-50.8
X102.616Y-41.656
X102.87Y-50.8
X102.87Y-71.628
X103.124Y-49.784
X103.378Y-61.722
X104.648Y-109.22
X104.902Y-35.052
X105.41Y-48.006
X106.172Y-64.77
X106.172Y-69.596
X107.696Y-48.768
X107.95Y-46.736
X108.712Y-69.088
X109.037Y-114.566
X110.236Y-83.82
X111.76Y-45.466
X112.522Y-101.6
X112.776Y-107.442
X113.538Y-91.44
X114.046Y-33.274
X114.3Y-63.5
X114.3Y-85.344
X114.935Y-113.919
X116.078Y-101.6
X118.364Y-107.696
X119.38Y-111.252
X120.269Y-88.773
X120.291Y-93.726
X120.396Y-70.358
X121.455Y-76.665
X121.666Y-70.104
X121.666Y-89.408
X122.936Y-73.66
X122.936Y-80.772
X123.19Y-75.184
X124.206Y-74.168
X124.714Y-49.784
X124.714Y-124.46
X124.714Y-126.492
X124.968Y-121.412
X125.222Y-69.596
X125.476Y-85.598
X125.984Y-74.422
X125.984Y-109.474
X125.984Y-118.364
X127.0Y-81.28
X127.254Y-103.124
X127.762Y-80.772
X129.032Y-71.374
X129.032Y-78.994
X129.032Y-111.506
X129.794Y-77.216
X132.08Y-97.536
X134.82Y-77.149
X136.652Y-98.044
X138.176Y-67.31
X143.002Y-98.298
X146.304Y-78.74
X147.574Y-55.626
X148.59Y-94.996
X151.892Y-56.896
X154.178Y-53.086
X155.956Y-38.354
X158.75Y-88.9
T2
X90.932Y-118.872
X94.742Y-96.774
X94.742Y-118.364
X99.314Y-120.396
X102.87Y-96.774
X103.886Y-82.55
X108.458Y-74.676
X109.22Y-36.83
X109.22Y-102.713
X109.474Y-91.694
X110.744Y-64.262
X110.744Y-80.264
X110.744Y-88.138
X114.3Y-116.332
X114.808Y-72.39
X115.316Y-81.534
X115.824Y-43.18
X115.824Y-50.292
X118.11Y-115.062
X120.142Y-99.568
X120.142Y-115.062
X120.396Y-81.28
X121.92Y-102.87
X122.428Y-115.062
X123.19Y-68.834
X123.952Y-70.104
X124.714Y-115.062
X125.73Y-80.772
X125.984Y-55.118
X126.746Y-33.782
X127.254Y-115.062
X130.005Y-75.438
X130.302Y-65.024
X130.556Y-89.154
X133.604Y-56.896
X133.604Y-83.566
X134.874Y-42.926
X135.636Y-102.362
X137.414Y-37.846
X137.414Y-82.296
X137.414Y-90.678
X137.922Y-78.74
X138.938Y-106.68
X139.954Y-58.166
X139.954Y-101.346
X140.208Y-122.428
X140.97Y-89.154
X141.478Y-117.602
X142.24Y-48.26
X144.78Y-54.356
X145.288Y-82.296
X147.574Y-87.884
X148.59Y-109.474
X148.844Y-114.808
X151.892Y-60.96
X164.084Y-61.468
X164.592Y-53.848
T3
X132.08Y-96.266
T5
X159.258Y-71.12
X159.258Y-73.66
X159.258Y-76.2
X159.258Y-78.74
X159.258Y-81.28
X161.798Y-71.12
X161.798Y-73.66
X161.798Y-76.2
X161.798Y-78.74
X161.798Y-81.28
T6
X93.901Y-104.98
X93.901Y-107.48
X93.901Y-109.98
X93.901Y-112.48
X106.038Y-123.952
X108.538Y-123.952
X111.038Y-123.952
X113.538Y-123.952
X146.678Y-123.698
X149.178Y-123.698
X151.678Y-123.698
X154.178Y-123.698
X161.068Y-92.419
X161.068Y-94.919
X161.068Y-97.419
X161.068Y-99.919
X161.133Y-107.416
X161.133Y-109.916
X161.133Y-112.416
X161.133Y-114.916
T7
X120.904Y-121.412
T4
X140.92Y-42.5G85X140.92Y-40.8
G05
X153.72Y-42.5G85X153.72Y-40.8
G05
M30
