G04 #@! TF.GenerationSoftware,KiCad,Pcbnew,8.0.5*
G04 #@! TF.CreationDate,2024-10-23T16:05:06-04:00*
G04 #@! TF.ProjectId,PCB_Schematic,5043425f-5363-4686-956d-617469632e6b,rev?*
G04 #@! TF.SameCoordinates,Original*
G04 #@! TF.FileFunction,Legend,Bot*
G04 #@! TF.FilePolarity,Positive*
%FSLAX46Y46*%
G04 Gerber Fmt 4.6, Leading zero omitted, Abs format (unit mm)*
G04 Created by KiCad (PCBNEW 8.0.5) date 2024-10-23 16:05:06*
%MOMM*%
%LPD*%
G01*
G04 APERTURE LIST*
G04 Aperture macros list*
%AMRoundRect*
0 Rectangle with rounded corners*
0 $1 Rounding radius*
0 $2 $3 $4 $5 $6 $7 $8 $9 X,Y pos of 4 corners*
0 Add a 4 corners polygon primitive as box body*
4,1,4,$2,$3,$4,$5,$6,$7,$8,$9,$2,$3,0*
0 Add four circle primitives for the rounded corners*
1,1,$1+$1,$2,$3*
1,1,$1+$1,$4,$5*
1,1,$1+$1,$6,$7*
1,1,$1+$1,$8,$9*
0 Add four rect primitives between the rounded corners*
20,1,$1+$1,$2,$3,$4,$5,0*
20,1,$1+$1,$4,$5,$6,$7,0*
20,1,$1+$1,$6,$7,$8,$9,0*
20,1,$1+$1,$8,$9,$2,$3,0*%
G04 Aperture macros list end*
%ADD10C,0.150000*%
%ADD11C,0.508000*%
%ADD12C,0.120000*%
%ADD13C,1.752600*%
%ADD14O,1.200000X2.900000*%
%ADD15RoundRect,0.250000X0.600000X0.600000X-0.600000X0.600000X-0.600000X-0.600000X0.600000X-0.600000X0*%
%ADD16C,1.700000*%
%ADD17C,2.200000*%
%ADD18RoundRect,0.250000X0.337500X0.475000X-0.337500X0.475000X-0.337500X-0.475000X0.337500X-0.475000X0*%
%ADD19RoundRect,0.250000X-0.475000X0.337500X-0.475000X-0.337500X0.475000X-0.337500X0.475000X0.337500X0*%
%ADD20RoundRect,0.250000X-0.337500X-0.475000X0.337500X-0.475000X0.337500X0.475000X-0.337500X0.475000X0*%
%ADD21RoundRect,0.250000X-0.450000X0.350000X-0.450000X-0.350000X0.450000X-0.350000X0.450000X0.350000X0*%
%ADD22RoundRect,0.250000X0.450000X-0.350000X0.450000X0.350000X-0.450000X0.350000X-0.450000X-0.350000X0*%
%ADD23C,0.600000*%
%ADD24C,0.800000*%
%ADD25C,5.000000*%
%ADD26C,1.000000*%
G04 APERTURE END LIST*
D10*
X117444904Y-94412819D02*
X117444904Y-95222342D01*
X117444904Y-95222342D02*
X117397285Y-95317580D01*
X117397285Y-95317580D02*
X117349666Y-95365200D01*
X117349666Y-95365200D02*
X117254428Y-95412819D01*
X117254428Y-95412819D02*
X117063952Y-95412819D01*
X117063952Y-95412819D02*
X116968714Y-95365200D01*
X116968714Y-95365200D02*
X116921095Y-95317580D01*
X116921095Y-95317580D02*
X116873476Y-95222342D01*
X116873476Y-95222342D02*
X116873476Y-94412819D01*
X115873476Y-95412819D02*
X116444904Y-95412819D01*
X116159190Y-95412819D02*
X116159190Y-94412819D01*
X116159190Y-94412819D02*
X116254428Y-94555676D01*
X116254428Y-94555676D02*
X116349666Y-94650914D01*
X116349666Y-94650914D02*
X116444904Y-94698533D01*
X123102666Y-77321580D02*
X123150285Y-77369200D01*
X123150285Y-77369200D02*
X123293142Y-77416819D01*
X123293142Y-77416819D02*
X123388380Y-77416819D01*
X123388380Y-77416819D02*
X123531237Y-77369200D01*
X123531237Y-77369200D02*
X123626475Y-77273961D01*
X123626475Y-77273961D02*
X123674094Y-77178723D01*
X123674094Y-77178723D02*
X123721713Y-76988247D01*
X123721713Y-76988247D02*
X123721713Y-76845390D01*
X123721713Y-76845390D02*
X123674094Y-76654914D01*
X123674094Y-76654914D02*
X123626475Y-76559676D01*
X123626475Y-76559676D02*
X123531237Y-76464438D01*
X123531237Y-76464438D02*
X123388380Y-76416819D01*
X123388380Y-76416819D02*
X123293142Y-76416819D01*
X123293142Y-76416819D02*
X123150285Y-76464438D01*
X123150285Y-76464438D02*
X123102666Y-76512057D01*
X122721713Y-76512057D02*
X122674094Y-76464438D01*
X122674094Y-76464438D02*
X122578856Y-76416819D01*
X122578856Y-76416819D02*
X122340761Y-76416819D01*
X122340761Y-76416819D02*
X122245523Y-76464438D01*
X122245523Y-76464438D02*
X122197904Y-76512057D01*
X122197904Y-76512057D02*
X122150285Y-76607295D01*
X122150285Y-76607295D02*
X122150285Y-76702533D01*
X122150285Y-76702533D02*
X122197904Y-76845390D01*
X122197904Y-76845390D02*
X122769332Y-77416819D01*
X122769332Y-77416819D02*
X122150285Y-77416819D01*
X125896666Y-103483580D02*
X125944285Y-103531200D01*
X125944285Y-103531200D02*
X126087142Y-103578819D01*
X126087142Y-103578819D02*
X126182380Y-103578819D01*
X126182380Y-103578819D02*
X126325237Y-103531200D01*
X126325237Y-103531200D02*
X126420475Y-103435961D01*
X126420475Y-103435961D02*
X126468094Y-103340723D01*
X126468094Y-103340723D02*
X126515713Y-103150247D01*
X126515713Y-103150247D02*
X126515713Y-103007390D01*
X126515713Y-103007390D02*
X126468094Y-102816914D01*
X126468094Y-102816914D02*
X126420475Y-102721676D01*
X126420475Y-102721676D02*
X126325237Y-102626438D01*
X126325237Y-102626438D02*
X126182380Y-102578819D01*
X126182380Y-102578819D02*
X126087142Y-102578819D01*
X126087142Y-102578819D02*
X125944285Y-102626438D01*
X125944285Y-102626438D02*
X125896666Y-102674057D01*
X125325237Y-103007390D02*
X125420475Y-102959771D01*
X125420475Y-102959771D02*
X125468094Y-102912152D01*
X125468094Y-102912152D02*
X125515713Y-102816914D01*
X125515713Y-102816914D02*
X125515713Y-102769295D01*
X125515713Y-102769295D02*
X125468094Y-102674057D01*
X125468094Y-102674057D02*
X125420475Y-102626438D01*
X125420475Y-102626438D02*
X125325237Y-102578819D01*
X125325237Y-102578819D02*
X125134761Y-102578819D01*
X125134761Y-102578819D02*
X125039523Y-102626438D01*
X125039523Y-102626438D02*
X124991904Y-102674057D01*
X124991904Y-102674057D02*
X124944285Y-102769295D01*
X124944285Y-102769295D02*
X124944285Y-102816914D01*
X124944285Y-102816914D02*
X124991904Y-102912152D01*
X124991904Y-102912152D02*
X125039523Y-102959771D01*
X125039523Y-102959771D02*
X125134761Y-103007390D01*
X125134761Y-103007390D02*
X125325237Y-103007390D01*
X125325237Y-103007390D02*
X125420475Y-103055009D01*
X125420475Y-103055009D02*
X125468094Y-103102628D01*
X125468094Y-103102628D02*
X125515713Y-103197866D01*
X125515713Y-103197866D02*
X125515713Y-103388342D01*
X125515713Y-103388342D02*
X125468094Y-103483580D01*
X125468094Y-103483580D02*
X125420475Y-103531200D01*
X125420475Y-103531200D02*
X125325237Y-103578819D01*
X125325237Y-103578819D02*
X125134761Y-103578819D01*
X125134761Y-103578819D02*
X125039523Y-103531200D01*
X125039523Y-103531200D02*
X124991904Y-103483580D01*
X124991904Y-103483580D02*
X124944285Y-103388342D01*
X124944285Y-103388342D02*
X124944285Y-103197866D01*
X124944285Y-103197866D02*
X124991904Y-103102628D01*
X124991904Y-103102628D02*
X125039523Y-103055009D01*
X125039523Y-103055009D02*
X125134761Y-103007390D01*
X120308666Y-102975580D02*
X120356285Y-103023200D01*
X120356285Y-103023200D02*
X120499142Y-103070819D01*
X120499142Y-103070819D02*
X120594380Y-103070819D01*
X120594380Y-103070819D02*
X120737237Y-103023200D01*
X120737237Y-103023200D02*
X120832475Y-102927961D01*
X120832475Y-102927961D02*
X120880094Y-102832723D01*
X120880094Y-102832723D02*
X120927713Y-102642247D01*
X120927713Y-102642247D02*
X120927713Y-102499390D01*
X120927713Y-102499390D02*
X120880094Y-102308914D01*
X120880094Y-102308914D02*
X120832475Y-102213676D01*
X120832475Y-102213676D02*
X120737237Y-102118438D01*
X120737237Y-102118438D02*
X120594380Y-102070819D01*
X120594380Y-102070819D02*
X120499142Y-102070819D01*
X120499142Y-102070819D02*
X120356285Y-102118438D01*
X120356285Y-102118438D02*
X120308666Y-102166057D01*
X119975332Y-102070819D02*
X119308666Y-102070819D01*
X119308666Y-102070819D02*
X119737237Y-103070819D01*
X119800666Y-77321580D02*
X119848285Y-77369200D01*
X119848285Y-77369200D02*
X119991142Y-77416819D01*
X119991142Y-77416819D02*
X120086380Y-77416819D01*
X120086380Y-77416819D02*
X120229237Y-77369200D01*
X120229237Y-77369200D02*
X120324475Y-77273961D01*
X120324475Y-77273961D02*
X120372094Y-77178723D01*
X120372094Y-77178723D02*
X120419713Y-76988247D01*
X120419713Y-76988247D02*
X120419713Y-76845390D01*
X120419713Y-76845390D02*
X120372094Y-76654914D01*
X120372094Y-76654914D02*
X120324475Y-76559676D01*
X120324475Y-76559676D02*
X120229237Y-76464438D01*
X120229237Y-76464438D02*
X120086380Y-76416819D01*
X120086380Y-76416819D02*
X119991142Y-76416819D01*
X119991142Y-76416819D02*
X119848285Y-76464438D01*
X119848285Y-76464438D02*
X119800666Y-76512057D01*
X118848285Y-77416819D02*
X119419713Y-77416819D01*
X119133999Y-77416819D02*
X119133999Y-76416819D01*
X119133999Y-76416819D02*
X119229237Y-76559676D01*
X119229237Y-76559676D02*
X119324475Y-76654914D01*
X119324475Y-76654914D02*
X119419713Y-76702533D01*
X125679580Y-99887833D02*
X125727200Y-99840214D01*
X125727200Y-99840214D02*
X125774819Y-99697357D01*
X125774819Y-99697357D02*
X125774819Y-99602119D01*
X125774819Y-99602119D02*
X125727200Y-99459262D01*
X125727200Y-99459262D02*
X125631961Y-99364024D01*
X125631961Y-99364024D02*
X125536723Y-99316405D01*
X125536723Y-99316405D02*
X125346247Y-99268786D01*
X125346247Y-99268786D02*
X125203390Y-99268786D01*
X125203390Y-99268786D02*
X125012914Y-99316405D01*
X125012914Y-99316405D02*
X124917676Y-99364024D01*
X124917676Y-99364024D02*
X124822438Y-99459262D01*
X124822438Y-99459262D02*
X124774819Y-99602119D01*
X124774819Y-99602119D02*
X124774819Y-99697357D01*
X124774819Y-99697357D02*
X124822438Y-99840214D01*
X124822438Y-99840214D02*
X124870057Y-99887833D01*
X125774819Y-100364024D02*
X125774819Y-100554500D01*
X125774819Y-100554500D02*
X125727200Y-100649738D01*
X125727200Y-100649738D02*
X125679580Y-100697357D01*
X125679580Y-100697357D02*
X125536723Y-100792595D01*
X125536723Y-100792595D02*
X125346247Y-100840214D01*
X125346247Y-100840214D02*
X124965295Y-100840214D01*
X124965295Y-100840214D02*
X124870057Y-100792595D01*
X124870057Y-100792595D02*
X124822438Y-100744976D01*
X124822438Y-100744976D02*
X124774819Y-100649738D01*
X124774819Y-100649738D02*
X124774819Y-100459262D01*
X124774819Y-100459262D02*
X124822438Y-100364024D01*
X124822438Y-100364024D02*
X124870057Y-100316405D01*
X124870057Y-100316405D02*
X124965295Y-100268786D01*
X124965295Y-100268786D02*
X125203390Y-100268786D01*
X125203390Y-100268786D02*
X125298628Y-100316405D01*
X125298628Y-100316405D02*
X125346247Y-100364024D01*
X125346247Y-100364024D02*
X125393866Y-100459262D01*
X125393866Y-100459262D02*
X125393866Y-100649738D01*
X125393866Y-100649738D02*
X125346247Y-100744976D01*
X125346247Y-100744976D02*
X125298628Y-100792595D01*
X125298628Y-100792595D02*
X125203390Y-100840214D01*
X122594666Y-100181580D02*
X122642285Y-100229200D01*
X122642285Y-100229200D02*
X122785142Y-100276819D01*
X122785142Y-100276819D02*
X122880380Y-100276819D01*
X122880380Y-100276819D02*
X123023237Y-100229200D01*
X123023237Y-100229200D02*
X123118475Y-100133961D01*
X123118475Y-100133961D02*
X123166094Y-100038723D01*
X123166094Y-100038723D02*
X123213713Y-99848247D01*
X123213713Y-99848247D02*
X123213713Y-99705390D01*
X123213713Y-99705390D02*
X123166094Y-99514914D01*
X123166094Y-99514914D02*
X123118475Y-99419676D01*
X123118475Y-99419676D02*
X123023237Y-99324438D01*
X123023237Y-99324438D02*
X122880380Y-99276819D01*
X122880380Y-99276819D02*
X122785142Y-99276819D01*
X122785142Y-99276819D02*
X122642285Y-99324438D01*
X122642285Y-99324438D02*
X122594666Y-99372057D01*
X121737523Y-99276819D02*
X121927999Y-99276819D01*
X121927999Y-99276819D02*
X122023237Y-99324438D01*
X122023237Y-99324438D02*
X122070856Y-99372057D01*
X122070856Y-99372057D02*
X122166094Y-99514914D01*
X122166094Y-99514914D02*
X122213713Y-99705390D01*
X122213713Y-99705390D02*
X122213713Y-100086342D01*
X122213713Y-100086342D02*
X122166094Y-100181580D01*
X122166094Y-100181580D02*
X122118475Y-100229200D01*
X122118475Y-100229200D02*
X122023237Y-100276819D01*
X122023237Y-100276819D02*
X121832761Y-100276819D01*
X121832761Y-100276819D02*
X121737523Y-100229200D01*
X121737523Y-100229200D02*
X121689904Y-100181580D01*
X121689904Y-100181580D02*
X121642285Y-100086342D01*
X121642285Y-100086342D02*
X121642285Y-99848247D01*
X121642285Y-99848247D02*
X121689904Y-99753009D01*
X121689904Y-99753009D02*
X121737523Y-99705390D01*
X121737523Y-99705390D02*
X121832761Y-99657771D01*
X121832761Y-99657771D02*
X122023237Y-99657771D01*
X122023237Y-99657771D02*
X122118475Y-99705390D01*
X122118475Y-99705390D02*
X122166094Y-99753009D01*
X122166094Y-99753009D02*
X122213713Y-99848247D01*
X156030819Y-103497142D02*
X155554628Y-103163809D01*
X156030819Y-102925714D02*
X155030819Y-102925714D01*
X155030819Y-102925714D02*
X155030819Y-103306666D01*
X155030819Y-103306666D02*
X155078438Y-103401904D01*
X155078438Y-103401904D02*
X155126057Y-103449523D01*
X155126057Y-103449523D02*
X155221295Y-103497142D01*
X155221295Y-103497142D02*
X155364152Y-103497142D01*
X155364152Y-103497142D02*
X155459390Y-103449523D01*
X155459390Y-103449523D02*
X155507009Y-103401904D01*
X155507009Y-103401904D02*
X155554628Y-103306666D01*
X155554628Y-103306666D02*
X155554628Y-102925714D01*
X156030819Y-104449523D02*
X156030819Y-103878095D01*
X156030819Y-104163809D02*
X155030819Y-104163809D01*
X155030819Y-104163809D02*
X155173676Y-104068571D01*
X155173676Y-104068571D02*
X155268914Y-103973333D01*
X155268914Y-103973333D02*
X155316533Y-103878095D01*
X155030819Y-105306666D02*
X155030819Y-105116190D01*
X155030819Y-105116190D02*
X155078438Y-105020952D01*
X155078438Y-105020952D02*
X155126057Y-104973333D01*
X155126057Y-104973333D02*
X155268914Y-104878095D01*
X155268914Y-104878095D02*
X155459390Y-104830476D01*
X155459390Y-104830476D02*
X155840342Y-104830476D01*
X155840342Y-104830476D02*
X155935580Y-104878095D01*
X155935580Y-104878095D02*
X155983200Y-104925714D01*
X155983200Y-104925714D02*
X156030819Y-105020952D01*
X156030819Y-105020952D02*
X156030819Y-105211428D01*
X156030819Y-105211428D02*
X155983200Y-105306666D01*
X155983200Y-105306666D02*
X155935580Y-105354285D01*
X155935580Y-105354285D02*
X155840342Y-105401904D01*
X155840342Y-105401904D02*
X155602247Y-105401904D01*
X155602247Y-105401904D02*
X155507009Y-105354285D01*
X155507009Y-105354285D02*
X155459390Y-105306666D01*
X155459390Y-105306666D02*
X155411771Y-105211428D01*
X155411771Y-105211428D02*
X155411771Y-105020952D01*
X155411771Y-105020952D02*
X155459390Y-104925714D01*
X155459390Y-104925714D02*
X155507009Y-104878095D01*
X155507009Y-104878095D02*
X155602247Y-104830476D01*
X158060819Y-111625142D02*
X157584628Y-111291809D01*
X158060819Y-111053714D02*
X157060819Y-111053714D01*
X157060819Y-111053714D02*
X157060819Y-111434666D01*
X157060819Y-111434666D02*
X157108438Y-111529904D01*
X157108438Y-111529904D02*
X157156057Y-111577523D01*
X157156057Y-111577523D02*
X157251295Y-111625142D01*
X157251295Y-111625142D02*
X157394152Y-111625142D01*
X157394152Y-111625142D02*
X157489390Y-111577523D01*
X157489390Y-111577523D02*
X157537009Y-111529904D01*
X157537009Y-111529904D02*
X157584628Y-111434666D01*
X157584628Y-111434666D02*
X157584628Y-111053714D01*
X158060819Y-112577523D02*
X158060819Y-112006095D01*
X158060819Y-112291809D02*
X157060819Y-112291809D01*
X157060819Y-112291809D02*
X157203676Y-112196571D01*
X157203676Y-112196571D02*
X157298914Y-112101333D01*
X157298914Y-112101333D02*
X157346533Y-112006095D01*
X157489390Y-113148952D02*
X157441771Y-113053714D01*
X157441771Y-113053714D02*
X157394152Y-113006095D01*
X157394152Y-113006095D02*
X157298914Y-112958476D01*
X157298914Y-112958476D02*
X157251295Y-112958476D01*
X157251295Y-112958476D02*
X157156057Y-113006095D01*
X157156057Y-113006095D02*
X157108438Y-113053714D01*
X157108438Y-113053714D02*
X157060819Y-113148952D01*
X157060819Y-113148952D02*
X157060819Y-113339428D01*
X157060819Y-113339428D02*
X157108438Y-113434666D01*
X157108438Y-113434666D02*
X157156057Y-113482285D01*
X157156057Y-113482285D02*
X157251295Y-113529904D01*
X157251295Y-113529904D02*
X157298914Y-113529904D01*
X157298914Y-113529904D02*
X157394152Y-113482285D01*
X157394152Y-113482285D02*
X157441771Y-113434666D01*
X157441771Y-113434666D02*
X157489390Y-113339428D01*
X157489390Y-113339428D02*
X157489390Y-113148952D01*
X157489390Y-113148952D02*
X157537009Y-113053714D01*
X157537009Y-113053714D02*
X157584628Y-113006095D01*
X157584628Y-113006095D02*
X157679866Y-112958476D01*
X157679866Y-112958476D02*
X157870342Y-112958476D01*
X157870342Y-112958476D02*
X157965580Y-113006095D01*
X157965580Y-113006095D02*
X158013200Y-113053714D01*
X158013200Y-113053714D02*
X158060819Y-113148952D01*
X158060819Y-113148952D02*
X158060819Y-113339428D01*
X158060819Y-113339428D02*
X158013200Y-113434666D01*
X158013200Y-113434666D02*
X157965580Y-113482285D01*
X157965580Y-113482285D02*
X157870342Y-113529904D01*
X157870342Y-113529904D02*
X157679866Y-113529904D01*
X157679866Y-113529904D02*
X157584628Y-113482285D01*
X157584628Y-113482285D02*
X157537009Y-113434666D01*
X157537009Y-113434666D02*
X157489390Y-113339428D01*
X158060819Y-91559142D02*
X157584628Y-91225809D01*
X158060819Y-90987714D02*
X157060819Y-90987714D01*
X157060819Y-90987714D02*
X157060819Y-91368666D01*
X157060819Y-91368666D02*
X157108438Y-91463904D01*
X157108438Y-91463904D02*
X157156057Y-91511523D01*
X157156057Y-91511523D02*
X157251295Y-91559142D01*
X157251295Y-91559142D02*
X157394152Y-91559142D01*
X157394152Y-91559142D02*
X157489390Y-91511523D01*
X157489390Y-91511523D02*
X157537009Y-91463904D01*
X157537009Y-91463904D02*
X157584628Y-91368666D01*
X157584628Y-91368666D02*
X157584628Y-90987714D01*
X158060819Y-92511523D02*
X158060819Y-91940095D01*
X158060819Y-92225809D02*
X157060819Y-92225809D01*
X157060819Y-92225809D02*
X157203676Y-92130571D01*
X157203676Y-92130571D02*
X157298914Y-92035333D01*
X157298914Y-92035333D02*
X157346533Y-91940095D01*
X158060819Y-92987714D02*
X158060819Y-93178190D01*
X158060819Y-93178190D02*
X158013200Y-93273428D01*
X158013200Y-93273428D02*
X157965580Y-93321047D01*
X157965580Y-93321047D02*
X157822723Y-93416285D01*
X157822723Y-93416285D02*
X157632247Y-93463904D01*
X157632247Y-93463904D02*
X157251295Y-93463904D01*
X157251295Y-93463904D02*
X157156057Y-93416285D01*
X157156057Y-93416285D02*
X157108438Y-93368666D01*
X157108438Y-93368666D02*
X157060819Y-93273428D01*
X157060819Y-93273428D02*
X157060819Y-93082952D01*
X157060819Y-93082952D02*
X157108438Y-92987714D01*
X157108438Y-92987714D02*
X157156057Y-92940095D01*
X157156057Y-92940095D02*
X157251295Y-92892476D01*
X157251295Y-92892476D02*
X157489390Y-92892476D01*
X157489390Y-92892476D02*
X157584628Y-92940095D01*
X157584628Y-92940095D02*
X157632247Y-92987714D01*
X157632247Y-92987714D02*
X157679866Y-93082952D01*
X157679866Y-93082952D02*
X157679866Y-93273428D01*
X157679866Y-93273428D02*
X157632247Y-93368666D01*
X157632247Y-93368666D02*
X157584628Y-93416285D01*
X157584628Y-93416285D02*
X157489390Y-93463904D01*
X158060819Y-96147142D02*
X157584628Y-95813809D01*
X158060819Y-95575714D02*
X157060819Y-95575714D01*
X157060819Y-95575714D02*
X157060819Y-95956666D01*
X157060819Y-95956666D02*
X157108438Y-96051904D01*
X157108438Y-96051904D02*
X157156057Y-96099523D01*
X157156057Y-96099523D02*
X157251295Y-96147142D01*
X157251295Y-96147142D02*
X157394152Y-96147142D01*
X157394152Y-96147142D02*
X157489390Y-96099523D01*
X157489390Y-96099523D02*
X157537009Y-96051904D01*
X157537009Y-96051904D02*
X157584628Y-95956666D01*
X157584628Y-95956666D02*
X157584628Y-95575714D01*
X157156057Y-96528095D02*
X157108438Y-96575714D01*
X157108438Y-96575714D02*
X157060819Y-96670952D01*
X157060819Y-96670952D02*
X157060819Y-96909047D01*
X157060819Y-96909047D02*
X157108438Y-97004285D01*
X157108438Y-97004285D02*
X157156057Y-97051904D01*
X157156057Y-97051904D02*
X157251295Y-97099523D01*
X157251295Y-97099523D02*
X157346533Y-97099523D01*
X157346533Y-97099523D02*
X157489390Y-97051904D01*
X157489390Y-97051904D02*
X158060819Y-96480476D01*
X158060819Y-96480476D02*
X158060819Y-97099523D01*
X157060819Y-97718571D02*
X157060819Y-97813809D01*
X157060819Y-97813809D02*
X157108438Y-97909047D01*
X157108438Y-97909047D02*
X157156057Y-97956666D01*
X157156057Y-97956666D02*
X157251295Y-98004285D01*
X157251295Y-98004285D02*
X157441771Y-98051904D01*
X157441771Y-98051904D02*
X157679866Y-98051904D01*
X157679866Y-98051904D02*
X157870342Y-98004285D01*
X157870342Y-98004285D02*
X157965580Y-97956666D01*
X157965580Y-97956666D02*
X158013200Y-97909047D01*
X158013200Y-97909047D02*
X158060819Y-97813809D01*
X158060819Y-97813809D02*
X158060819Y-97718571D01*
X158060819Y-97718571D02*
X158013200Y-97623333D01*
X158013200Y-97623333D02*
X157965580Y-97575714D01*
X157965580Y-97575714D02*
X157870342Y-97528095D01*
X157870342Y-97528095D02*
X157679866Y-97480476D01*
X157679866Y-97480476D02*
X157441771Y-97480476D01*
X157441771Y-97480476D02*
X157251295Y-97528095D01*
X157251295Y-97528095D02*
X157156057Y-97575714D01*
X157156057Y-97575714D02*
X157108438Y-97623333D01*
X157108438Y-97623333D02*
X157060819Y-97718571D01*
D11*
X161448597Y-103128800D02*
G75*
G02*
X160686597Y-103128800I-381000J0D01*
G01*
X160686597Y-103128800D02*
G75*
G02*
X161448597Y-103128800I381000J0D01*
G01*
X161514000Y-118125600D02*
G75*
G02*
X160752000Y-118125600I-381000J0D01*
G01*
X160752000Y-118125600D02*
G75*
G02*
X161514000Y-118125600I381000J0D01*
G01*
X117128600Y-123952000D02*
G75*
G02*
X116366600Y-123952000I-381000J0D01*
G01*
X116366600Y-123952000D02*
G75*
G02*
X117128600Y-123952000I381000J0D01*
G01*
X94282500Y-101770900D02*
G75*
G02*
X93520500Y-101770900I-381000J0D01*
G01*
X93520500Y-101770900D02*
G75*
G02*
X94282500Y-101770900I381000J0D01*
G01*
X157768600Y-123698000D02*
G75*
G02*
X157006600Y-123698000I-381000J0D01*
G01*
X157006600Y-123698000D02*
G75*
G02*
X157768600Y-123698000I381000J0D01*
G01*
D12*
X125447248Y-75973000D02*
X125969752Y-75973000D01*
X125447248Y-77443000D02*
X125969752Y-77443000D01*
X126349248Y-104101000D02*
X126871752Y-104101000D01*
X126349248Y-105571000D02*
X126871752Y-105571000D01*
X120464248Y-103847000D02*
X120986752Y-103847000D01*
X120464248Y-105317000D02*
X120986752Y-105317000D01*
X120156248Y-74449000D02*
X120678752Y-74449000D01*
X120156248Y-75919000D02*
X120678752Y-75919000D01*
X126265000Y-100315752D02*
X126265000Y-99793248D01*
X127735000Y-100315752D02*
X127735000Y-99793248D01*
X121283752Y-97243000D02*
X120761248Y-97243000D01*
X121283752Y-98713000D02*
X120761248Y-98713000D01*
X156491000Y-104367064D02*
X156491000Y-103912936D01*
X157961000Y-104367064D02*
X157961000Y-103912936D01*
X155221000Y-112040936D02*
X155221000Y-112495064D01*
X156691000Y-112040936D02*
X156691000Y-112495064D01*
X155221000Y-91974936D02*
X155221000Y-92429064D01*
X156691000Y-91974936D02*
X156691000Y-92429064D01*
X155221000Y-96562936D02*
X155221000Y-97017064D01*
X156691000Y-96562936D02*
X156691000Y-97017064D01*
%LPC*%
D13*
X161067597Y-99919200D03*
X161067597Y-97419200D03*
X161067597Y-94919200D03*
X161067597Y-92419200D03*
D14*
X153720000Y-41650000D03*
X140920000Y-41650000D03*
D13*
X161133000Y-114916000D03*
X161133000Y-112416000D03*
X161133000Y-109916000D03*
X161133000Y-107416000D03*
D15*
X161798000Y-81280000D03*
D16*
X159258000Y-81280000D03*
X161798000Y-78740000D03*
X159258000Y-78740000D03*
X161798000Y-76200000D03*
X159258000Y-76200000D03*
X161798000Y-73660000D03*
X159258000Y-73660000D03*
X161798000Y-71120000D03*
X159258000Y-71120000D03*
D13*
X113538000Y-123952000D03*
X111038000Y-123952000D03*
X108538000Y-123952000D03*
X106038000Y-123952000D03*
D17*
X91613000Y-36156000D03*
X163322000Y-123698000D03*
D13*
X93901500Y-104980500D03*
X93901500Y-107480500D03*
X93901500Y-109980500D03*
X93901500Y-112480500D03*
D17*
X163322000Y-36068000D03*
D13*
X154178000Y-123698000D03*
X151678000Y-123698000D03*
X149178000Y-123698000D03*
X146678000Y-123698000D03*
D17*
X91694000Y-123698000D03*
D18*
X126746000Y-76708000D03*
X124671000Y-76708000D03*
X127648000Y-104836000D03*
X125573000Y-104836000D03*
X121763000Y-104582000D03*
X119688000Y-104582000D03*
X121455000Y-75184000D03*
X119380000Y-75184000D03*
D19*
X127000000Y-99017000D03*
X127000000Y-101092000D03*
D20*
X119985000Y-97978000D03*
X122060000Y-97978000D03*
D21*
X157226000Y-103140000D03*
X157226000Y-105140000D03*
D22*
X155956000Y-113268000D03*
X155956000Y-111268000D03*
X155956000Y-93202000D03*
X155956000Y-91202000D03*
X155956000Y-97790000D03*
X155956000Y-95790000D03*
D23*
X132080000Y-97536000D03*
D24*
X137414000Y-37846000D03*
D23*
X151892000Y-56896000D03*
X147574000Y-55626000D03*
X125222000Y-69596000D03*
D24*
X145288000Y-82296000D03*
D23*
X122936000Y-73660000D03*
X118364000Y-107696000D03*
D24*
X133604000Y-56896000D03*
D23*
X124714000Y-124460000D03*
X114046000Y-33274000D03*
X92964000Y-48768000D03*
D24*
X164592000Y-53848000D03*
D23*
X120396000Y-70358000D03*
D24*
X147574000Y-87884000D03*
D23*
X148590000Y-94996000D03*
D24*
X133604000Y-83566000D03*
X103886000Y-82550000D03*
X125984000Y-55118000D03*
D23*
X111760000Y-45466000D03*
X108712000Y-69088000D03*
X114300000Y-85344000D03*
X100838000Y-50800000D03*
D24*
X151892000Y-60960000D03*
X130556000Y-89154000D03*
X94742000Y-96774000D03*
X139954000Y-58166000D03*
X108458000Y-74676000D03*
D23*
X100838000Y-94742000D03*
X101854000Y-50800000D03*
X114300000Y-63500000D03*
X109037500Y-114565500D03*
X113538000Y-91440000D03*
D24*
X110744000Y-88138000D03*
X148844000Y-114808000D03*
D23*
X112522000Y-101600000D03*
D24*
X134874000Y-42926000D03*
D23*
X104648000Y-109220000D03*
D24*
X164084000Y-61468000D03*
D23*
X96266000Y-48260000D03*
D24*
X137922000Y-78740000D03*
D23*
X121666000Y-70104000D03*
D24*
X144780000Y-54356000D03*
D23*
X100838000Y-49784000D03*
D24*
X102870000Y-96774000D03*
D23*
X103124000Y-49784000D03*
D24*
X141478000Y-117602000D03*
X130302000Y-65024000D03*
D23*
X124714000Y-126492000D03*
X154178000Y-53086000D03*
X107950000Y-46736000D03*
X94488000Y-82042000D03*
X102870000Y-50800000D03*
X134820000Y-77149000D03*
D24*
X109474000Y-91694000D03*
X123952000Y-70104000D03*
X137414000Y-82296000D03*
X138938000Y-106680000D03*
D23*
X121666000Y-89408000D03*
X120291000Y-93726000D03*
X116078000Y-101600000D03*
D24*
X99314000Y-120396000D03*
X90932000Y-118872000D03*
D23*
X155956000Y-38354000D03*
X92964000Y-65278000D03*
D24*
X137414000Y-90678000D03*
D23*
X119380000Y-111252000D03*
X103378000Y-61722000D03*
X158750000Y-88900000D03*
D24*
X94742000Y-118364000D03*
D23*
X101854000Y-49784000D03*
D24*
X110744000Y-64262000D03*
X140970000Y-89154000D03*
D23*
X129794000Y-77216000D03*
X129032000Y-111506000D03*
X97028000Y-95758000D03*
D24*
X110744000Y-80264000D03*
D23*
X114935000Y-113919000D03*
X122936000Y-80772000D03*
D24*
X142240000Y-48260000D03*
D23*
X94742000Y-49530000D03*
D24*
X126746000Y-33782000D03*
D23*
X102870000Y-71628000D03*
X110236000Y-83820000D03*
X106172000Y-64770000D03*
X96266000Y-50038000D03*
X95504000Y-46482000D03*
X104902000Y-35052000D03*
D24*
X114300000Y-116332000D03*
D23*
X125984000Y-118364000D03*
X138176000Y-67310000D03*
D24*
X115316000Y-81534000D03*
D23*
X106172000Y-69596000D03*
X92710000Y-46736000D03*
X124968000Y-121412000D03*
D25*
X120904000Y-121412000D03*
D24*
X140208000Y-122428000D03*
X148590000Y-109474000D03*
X109220000Y-36830000D03*
D23*
X125984000Y-109474000D03*
X102616000Y-41656000D03*
D24*
X120142000Y-99568000D03*
D26*
X132080000Y-96266000D03*
D24*
X121920000Y-102870000D03*
D23*
X124714000Y-49784000D03*
X127254000Y-103124000D03*
X146304000Y-78740000D03*
X107696000Y-48768000D03*
X105410000Y-48006000D03*
X121455000Y-76665000D03*
X123190000Y-75184000D03*
X120269000Y-88773000D03*
X125476000Y-85598000D03*
D24*
X115824000Y-43180000D03*
X115824000Y-50292000D03*
X109220000Y-102713456D03*
X135636000Y-102362000D03*
D23*
X143002000Y-98298000D03*
D24*
X139954000Y-101346000D03*
D23*
X136652000Y-98044000D03*
X112776000Y-107442000D03*
D24*
X122428000Y-115062000D03*
X118110000Y-115062000D03*
X127254000Y-115062000D03*
X124714000Y-115062000D03*
X120142000Y-115062000D03*
X120396000Y-81280000D03*
X125730000Y-80772000D03*
X114808000Y-72390000D03*
D23*
X124206000Y-74168000D03*
D24*
X130005000Y-75438000D03*
X123190000Y-68834000D03*
D23*
X129032000Y-78994000D03*
X127762000Y-80772000D03*
X127000000Y-81280000D03*
%LPD*%
M02*
