G04 #@! TF.GenerationSoftware,KiCad,Pcbnew,8.0.5*
G04 #@! TF.CreationDate,2024-10-23T16:05:06-04:00*
G04 #@! TF.ProjectId,PCB_Schematic,5043425f-5363-4686-956d-617469632e6b,rev?*
G04 #@! TF.SameCoordinates,Original*
G04 #@! TF.FileFunction,Soldermask,Bot*
G04 #@! TF.FilePolarity,Negative*
%FSLAX46Y46*%
G04 Gerber Fmt 4.6, Leading zero omitted, Abs format (unit mm)*
G04 Created by KiCad (PCBNEW 8.0.5) date 2024-10-23 16:05:06*
%MOMM*%
%LPD*%
G01*
G04 APERTURE LIST*
G04 Aperture macros list*
%AMRoundRect*
0 Rectangle with rounded corners*
0 $1 Rounding radius*
0 $2 $3 $4 $5 $6 $7 $8 $9 X,Y pos of 4 corners*
0 Add a 4 corners polygon primitive as box body*
4,1,4,$2,$3,$4,$5,$6,$7,$8,$9,$2,$3,0*
0 Add four circle primitives for the rounded corners*
1,1,$1+$1,$2,$3*
1,1,$1+$1,$4,$5*
1,1,$1+$1,$6,$7*
1,1,$1+$1,$8,$9*
0 Add four rect primitives between the rounded corners*
20,1,$1+$1,$2,$3,$4,$5,0*
20,1,$1+$1,$4,$5,$6,$7,0*
20,1,$1+$1,$6,$7,$8,$9,0*
20,1,$1+$1,$8,$9,$2,$3,0*%
G04 Aperture macros list end*
%ADD10C,1.752600*%
%ADD11O,1.200000X2.900000*%
%ADD12RoundRect,0.250000X0.600000X0.600000X-0.600000X0.600000X-0.600000X-0.600000X0.600000X-0.600000X0*%
%ADD13C,1.700000*%
%ADD14C,2.200000*%
%ADD15RoundRect,0.250000X0.337500X0.475000X-0.337500X0.475000X-0.337500X-0.475000X0.337500X-0.475000X0*%
%ADD16RoundRect,0.250000X-0.475000X0.337500X-0.475000X-0.337500X0.475000X-0.337500X0.475000X0.337500X0*%
%ADD17RoundRect,0.250000X-0.337500X-0.475000X0.337500X-0.475000X0.337500X0.475000X-0.337500X0.475000X0*%
%ADD18RoundRect,0.250000X-0.450000X0.350000X-0.450000X-0.350000X0.450000X-0.350000X0.450000X0.350000X0*%
%ADD19RoundRect,0.250000X0.450000X-0.350000X0.450000X0.350000X-0.450000X0.350000X-0.450000X-0.350000X0*%
%ADD20C,0.600000*%
%ADD21C,0.800000*%
%ADD22C,5.000000*%
%ADD23C,1.000000*%
G04 APERTURE END LIST*
D10*
X161067597Y-99919200D03*
X161067597Y-97419200D03*
X161067597Y-94919200D03*
X161067597Y-92419200D03*
D11*
X153720000Y-41650000D03*
X140920000Y-41650000D03*
D10*
X161133000Y-114916000D03*
X161133000Y-112416000D03*
X161133000Y-109916000D03*
X161133000Y-107416000D03*
D12*
X161798000Y-81280000D03*
D13*
X159258000Y-81280000D03*
X161798000Y-78740000D03*
X159258000Y-78740000D03*
X161798000Y-76200000D03*
X159258000Y-76200000D03*
X161798000Y-73660000D03*
X159258000Y-73660000D03*
X161798000Y-71120000D03*
X159258000Y-71120000D03*
D10*
X113538000Y-123952000D03*
X111038000Y-123952000D03*
X108538000Y-123952000D03*
X106038000Y-123952000D03*
D14*
X91613000Y-36156000D03*
X163322000Y-123698000D03*
D10*
X93901500Y-104980500D03*
X93901500Y-107480500D03*
X93901500Y-109980500D03*
X93901500Y-112480500D03*
D14*
X163322000Y-36068000D03*
D10*
X154178000Y-123698000D03*
X151678000Y-123698000D03*
X149178000Y-123698000D03*
X146678000Y-123698000D03*
D14*
X91694000Y-123698000D03*
D15*
X126746000Y-76708000D03*
X124671000Y-76708000D03*
X127648000Y-104836000D03*
X125573000Y-104836000D03*
X121763000Y-104582000D03*
X119688000Y-104582000D03*
X121455000Y-75184000D03*
X119380000Y-75184000D03*
D16*
X127000000Y-99017000D03*
X127000000Y-101092000D03*
D17*
X119985000Y-97978000D03*
X122060000Y-97978000D03*
D18*
X157226000Y-103140000D03*
X157226000Y-105140000D03*
D19*
X155956000Y-113268000D03*
X155956000Y-111268000D03*
X155956000Y-93202000D03*
X155956000Y-91202000D03*
X155956000Y-97790000D03*
X155956000Y-95790000D03*
D20*
X132080000Y-97536000D03*
D21*
X137414000Y-37846000D03*
D20*
X151892000Y-56896000D03*
X147574000Y-55626000D03*
X125222000Y-69596000D03*
D21*
X145288000Y-82296000D03*
D20*
X122936000Y-73660000D03*
X118364000Y-107696000D03*
D21*
X133604000Y-56896000D03*
D20*
X124714000Y-124460000D03*
X114046000Y-33274000D03*
X92964000Y-48768000D03*
D21*
X164592000Y-53848000D03*
D20*
X120396000Y-70358000D03*
D21*
X147574000Y-87884000D03*
D20*
X148590000Y-94996000D03*
D21*
X133604000Y-83566000D03*
X103886000Y-82550000D03*
X125984000Y-55118000D03*
D20*
X111760000Y-45466000D03*
X108712000Y-69088000D03*
X114300000Y-85344000D03*
X100838000Y-50800000D03*
D21*
X151892000Y-60960000D03*
X130556000Y-89154000D03*
X94742000Y-96774000D03*
X139954000Y-58166000D03*
X108458000Y-74676000D03*
D20*
X100838000Y-94742000D03*
X101854000Y-50800000D03*
X114300000Y-63500000D03*
X109037500Y-114565500D03*
X113538000Y-91440000D03*
D21*
X110744000Y-88138000D03*
X148844000Y-114808000D03*
D20*
X112522000Y-101600000D03*
D21*
X134874000Y-42926000D03*
D20*
X104648000Y-109220000D03*
D21*
X164084000Y-61468000D03*
D20*
X96266000Y-48260000D03*
D21*
X137922000Y-78740000D03*
D20*
X121666000Y-70104000D03*
D21*
X144780000Y-54356000D03*
D20*
X100838000Y-49784000D03*
D21*
X102870000Y-96774000D03*
D20*
X103124000Y-49784000D03*
D21*
X141478000Y-117602000D03*
X130302000Y-65024000D03*
D20*
X124714000Y-126492000D03*
X154178000Y-53086000D03*
X107950000Y-46736000D03*
X94488000Y-82042000D03*
X102870000Y-50800000D03*
X134820000Y-77149000D03*
D21*
X109474000Y-91694000D03*
X123952000Y-70104000D03*
X137414000Y-82296000D03*
X138938000Y-106680000D03*
D20*
X121666000Y-89408000D03*
X120291000Y-93726000D03*
X116078000Y-101600000D03*
D21*
X99314000Y-120396000D03*
X90932000Y-118872000D03*
D20*
X155956000Y-38354000D03*
X92964000Y-65278000D03*
D21*
X137414000Y-90678000D03*
D20*
X119380000Y-111252000D03*
X103378000Y-61722000D03*
X158750000Y-88900000D03*
D21*
X94742000Y-118364000D03*
D20*
X101854000Y-49784000D03*
D21*
X110744000Y-64262000D03*
X140970000Y-89154000D03*
D20*
X129794000Y-77216000D03*
X129032000Y-111506000D03*
X97028000Y-95758000D03*
D21*
X110744000Y-80264000D03*
D20*
X114935000Y-113919000D03*
X122936000Y-80772000D03*
D21*
X142240000Y-48260000D03*
D20*
X94742000Y-49530000D03*
D21*
X126746000Y-33782000D03*
D20*
X102870000Y-71628000D03*
X110236000Y-83820000D03*
X106172000Y-64770000D03*
X96266000Y-50038000D03*
X95504000Y-46482000D03*
X104902000Y-35052000D03*
D21*
X114300000Y-116332000D03*
D20*
X125984000Y-118364000D03*
X138176000Y-67310000D03*
D21*
X115316000Y-81534000D03*
D20*
X106172000Y-69596000D03*
X92710000Y-46736000D03*
X124968000Y-121412000D03*
D22*
X120904000Y-121412000D03*
D21*
X140208000Y-122428000D03*
X148590000Y-109474000D03*
X109220000Y-36830000D03*
D20*
X125984000Y-109474000D03*
X102616000Y-41656000D03*
D21*
X120142000Y-99568000D03*
D23*
X132080000Y-96266000D03*
D21*
X121920000Y-102870000D03*
D20*
X124714000Y-49784000D03*
X127254000Y-103124000D03*
X146304000Y-78740000D03*
X107696000Y-48768000D03*
X105410000Y-48006000D03*
X121455000Y-76665000D03*
X123190000Y-75184000D03*
X120269000Y-88773000D03*
X125476000Y-85598000D03*
D21*
X115824000Y-43180000D03*
X115824000Y-50292000D03*
X109220000Y-102713456D03*
X135636000Y-102362000D03*
D20*
X143002000Y-98298000D03*
D21*
X139954000Y-101346000D03*
D20*
X136652000Y-98044000D03*
X112776000Y-107442000D03*
D21*
X122428000Y-115062000D03*
X118110000Y-115062000D03*
X127254000Y-115062000D03*
X124714000Y-115062000D03*
X120142000Y-115062000D03*
X120396000Y-81280000D03*
X125730000Y-80772000D03*
X114808000Y-72390000D03*
D20*
X124206000Y-74168000D03*
D21*
X130005000Y-75438000D03*
X123190000Y-68834000D03*
D20*
X129032000Y-78994000D03*
X127762000Y-80772000D03*
X127000000Y-81280000D03*
M02*
